<?xml version="1.0" encoding="utf-8"?>
<!-- Generator: Adobe Illustrator 27.2.0, SVG Export Plug-In . SVG Version: 6.00 Build 0)  -->
<svg version="1.1" xmlns="http://www.w3.org/2000/svg" xmlns:xlink="http://www.w3.org/1999/xlink" x="0px" y="0px"
	 viewBox="0 0 351.1 307.7" style="enable-background:new 0 0 351.1 307.7;" xml:space="preserve">
<style type="text/css">
	.st0{display:none;}
	.st1{display:inline;}
	.st2{display:none;fill:#FFFFFF;}
	.st3{fill:#020202;}
	.st4{fill:#030303;}
	.st5{fill:#040404;}
	.st6{fill:#050505;}
	.st7{fill:#58504F;}
	.st8{fill:#544D4C;}
	.st9{fill:#524A4A;}
	.st10{fill:#524B4A;}
	.st11{fill:#BC0D24;}
	.st12{fill:#A7BA1A;}
	
		.st13{display:none;fill:#FFFFFF;stroke:#FFFFFF;stroke-width:25;stroke-linecap:round;stroke-linejoin:round;stroke-miterlimit:10;}
	.st14{fill:#FFFFFF;stroke:#FFFFFF;stroke-width:25;stroke-linecap:round;stroke-linejoin:round;stroke-miterlimit:10;}
</style>
<g id="Layer_2_xA0_Image_00000021096509604269948900000000615900650495162534_" class="st0">
	<g class="st1">
		<path class="st2" d="M0,292.1C0,194.8,0,97.4,0,0c117,0,234.1,0,351.1,0c0,102.5,0,205.1,0,307.7c-117,0-234.1,0-351.1,0
			c0-3.8,0-7.6,0-11.5c0.8,1,1.7,1.3,3,1.2c3.1-0.1,6.2,0,9.2,0c2.4,0,4.7,0,7.1,0c0-2.9,0-5.7,0-8.7c-0.9,0.3-1.7,0.5-2.5,0.8
			c0,1.9,0,3.7,0,5.4c-4.8,0-9.5,0-14.4,0c0-1.1,0-2.2,0-3.3C1.5,291.8,0.8,292,0,292.1z M125,238.7c0.1,0,0.2-0.1,0.2-0.1
			c2.9,3.3,5.9,6.6,9,10.2c0-4.9,0-9.4,0-14c-0.5,0-0.9,0-1.4,0.1c0,3.4,0,6.7,0,10.2c-3.1-3.6-6.1-7-9-10.3
			c-0.1,0.1-0.2,0.1-0.3,0.2c0,4.5,0,9,0,13.5c0.5,0,0.9,0,1.5,0C125,245.1,125,241.9,125,238.7z M11.5,244.7
			c-2.9-3.3-5.8-6.6-8.7-10c-0.1,0-0.2,0.1-0.2,0.1c0,4.5,0,9,0,13.6c0.5,0,0.9,0,1.5,0c0-3.3,0-6.6,0-10.1c3.1,3.5,6,6.9,9.1,10.4
			c0-4.9,0-9.4,0-13.9c-0.4,0-0.8,0-1.4,0c0,3.4,0,6.7,0,10C11.7,244.7,11.6,244.7,11.5,244.7z M68.2,186.6c0.2,1.4,0.5,2.7,0.5,4.1
			c-0.1,6.6,0.3,13.2-0.3,19.7c2,0,4.2,0,6.4,0c-1-3-0.4-5.9-0.6-9c0.5,0,0.9,0,1.3,0c3.9,0,7.8,0.1,11.6,0c2.9-0.1,4-0.9,4.3-3.9
			c0.2-2.4,0.1-4.9,0-7.3c-0.2-2.6-1.5-3.8-4.1-3.8c-6.3,0-12.6,0-18.9,0C68.3,186.5,68.2,186.5,68.2,186.6z M184.1,206.4
			c-0.3-0.4-0.7-0.8-1-1.3c-3.8-5.9-7.6-11.9-11.5-17.8c-0.2-0.4-0.7-0.9-1.1-0.9c-2.4-0.1-4.8,0-7,0c0.1,1.9,0.3,3.7,0.3,5.5
			c0,6.1,0.2,12.3-0.2,18.4c1,0,2.2,0,3,0c-0.3-6.7-0.1-13.4,0-20.1c0.4,0.4,0.6,0.7,0.9,1.1c3.9,6.1,7.8,12.2,11.8,18.3
			c0.2,0.3,0.6,0.8,0.9,0.8c2.2,0.1,4.4,0,6.6,0c0-0.6,0-1,0-1.4c0-3.8-0.1-7.5,0-11.3c0.1-3.7-0.4-7.4,0.3-11.1c-1.2,0-2.4,0-3.7,0
			c0.2,0.8,0.5,1.6,0.5,2.3C184.1,194.8,184.1,200.6,184.1,206.4L184.1,206.4z M296.5,0.5c-0.1,0-0.3-0.1-0.4-0.1
			c-1.8,3.1-4.5,5-7.5,6.6c-8.9,4.6-18.6,6.4-28.4,8.2c-4.8,0.9-9.6,1.7-14.3,2.9c-14.4,4-27.1,11.1-37.8,21.7
			c-8.4,8.3-14.7,18-19.6,28.7c-8.2,18-11.8,37.2-12.9,56.8c-0.4,6.4-0.1,12.9,0,19.4c0,0.5,0.2,1.1,0.3,1.8
			c6.6-10.7,15.7-17.6,27.6-21.3c12.6-3.9,23.9-10.3,34.7-17.7c8.3-5.7,16-12.1,23.4-19c5-4.6,9.5-9.6,13.2-15.2
			c8.6-13,13.9-27.4,17.2-42.5c1.1-5.2,1.9-10.4,2.7-15.6C295.5,10.3,295.9,5.4,296.5,0.5z M349.1,205c-0.1-0.4-0.1-0.6-0.1-0.8
			c-0.6-1.6-1.1-3.2-1.8-4.7c-4-9.4-9.7-17.6-16.4-25.3c-8.4-9.7-18.5-16.8-30.4-21.4c-5.3-2.1-10.8-3.6-16.5-4.6
			c-2.7-0.5-5.5-1-8.2-1.4c-2.1-0.3-4.2-0.4-6.4-0.5c-3.2-0.2-6.3-0.5-9.5-0.6c-7.2-0.1-14.4,0.1-21.5,1.1
			c-3.6,0.4-7.2,0.7-10.7,1.3c-7.1,1.3-14.1,2.6-21.1,4.2c-6.9,1.6-13.6,3.5-20.2,6.1c-5.6,2.2-11.5,2.7-17.4,1.6
			c-3.2-0.6-6.3-2-9.4-2.9c-6.1-1.7-12.1-3.5-18.3-5c-5.3-1.3-10.7-2.4-16.1-3.4c-3.9-0.7-7.9-1.2-11.8-1.7c-2-0.2-4-0.3-5.9-0.5
			c-2.8-0.2-5.7-0.6-8.5-0.7c-5.5-0.1-10.9,0.1-16.4,0.2c-2.8,0.1-5.7,0.2-8.5,0.7c-5.2,0.8-10.3,1.7-15.4,2.9
			c-9.1,2.3-17.7,6-25.5,11.3c-5.7,3.9-10.6,8.6-15.1,13.8c-7,7.9-12.7,16.6-16.5,26.4c-0.4,1.1-0.8,2.3-1.3,3.8
			c11.1,0,21.9,0,32.6,0c0.3,0,0.8-0.4,0.9-0.7c3.9-8.7,9.6-16.1,16.5-22.6c7.1-6.7,15.3-11.7,24.4-15.3c9.4-3.7,19.2-5.5,29.2-6
			c4-0.2,8.1,0,12.2,0.2c2.9,0.1,5.8,0.4,8.6,0.7c3.5,0.5,7.1,1,10.6,1.8c3.5,0.8,7,1.9,10.5,3c4.5,1.4,9.1,2.8,13.6,4.5
			c3.8,1.4,7.6,2.5,11.6,2.9c2.5,0.2,5,0,7.5-0.2c4.4-0.3,8.7-1.3,12.8-2.9c10.2-3.8,20.4-7.4,31.2-8.9c3.8-0.5,7.6-1,11.4-1.1
			c4.9-0.1,9.7-0.1,14.6,0.2c3.9,0.3,7.8,1,11.7,1.6c5.5,0.8,10.8,2.6,16,4.7c10.1,4.1,18.9,10.1,26.4,18
			c5.7,5.9,10.3,12.6,13.5,19.9c5.5,0,11,0,16.5,0C337.9,205,343.5,205,349.1,205z M286.5,199.4c0.5-0.1,0.7-0.1,1-0.1
			c2.3-0.2,3.1-0.9,3.5-3.2c0.2-1.6,0.2-3.3,0.2-5c0-3.5-1.2-4.8-4.7-4.8c-5.8,0-11.6,0-17.4,0c-0.4,0-0.8,0-0.9,0
			c0.1,1.9,0.3,3.6,0.3,5.4c0,3.1,0.1,6.2,0,9.4c-0.1,3.1,0.5,6.2-0.5,9.2c2.3,0,4.5,0,6.6,0c-0.9-3.7-0.3-7.3-0.5-11
			c2.1,0,4,0,5.9,0c0.7,0,1,0.3,1.3,0.9c1.3,3.1,2.6,6.3,4,9.4c0.1,0.3,0.4,0.8,0.6,0.8c2,0.1,4,0,5.9,0
			C289.9,206.7,288.2,203.1,286.5,199.4z M183.4,295c0-2.1,0-4.1,0-6.3c-0.9,0.3-1.6,0.6-2.4,0.9c0,1.8,0,3.6,0,5.5
			c-3.3,0-6.6-0.1-9.8,0c-1.4,0-2.3-0.6-3.2-1.5c1.1-0.8,2.1-1.6,3.1-2.4c1.1-0.8,1.2-2.5,0.3-3.6c-2.5-3-8.9-3.1-11.4,0.6
			c-0.5,0.8-0.4,2.2,0.3,2.7c1.2,0.9,2.3,1.8,3.6,2.8c-0.8,0.5-1.5,1.2-2.1,1.3c-2.1,0.2-4.3,0.1-6.4,0.1c0-2.6,0-5,0-7.5
			c0-1.9-0.9-3.2-2.5-3.8c-0.7-0.2-1.6-0.6-2.1-0.4c-0.6,0.3-1,1.2-1.6,2.1c0.9,0,1.4,0,1.8,0c0.9,0.1,1.8,0.5,1.8,1.6
			c0.1,2.6,0,5.3,0,8c-2.5,0-5.1,0-7.8,0c-0.7,0-1.1,0.1-1.4,0.8c-0.2,0.5-0.5,1-0.8,1.5c6.5,0,12.8,0,19.1,0c0.9,0,1.7-0.6,2.5-1
			c0.5-0.3,1-0.8,1.4-1.2c0.4,0.3,0.6,0.5,0.8,0.7c1.1,1.2,2.5,1.6,4.2,1.6c8.1-0.1,16.3,0,24.5,0c0.4,0,0.9,0,1.3,0
			c0-6.8,0-13.4,0-20.1c-0.9,0.3-1.6,0.5-2.4,0.8c0,5.7,0,11.3,0,16.9c-1.4,0-2.8,0-4.2,0c0-5.9,0-11.7,0-17.6
			c-2.4,0.5-2.4,0.5-2.4,2.6c0,4.5,0,9,0,13.4c0,0.5,0,1,0,1.5C186.3,295,184.9,295,183.4,295z M137.7,210.5c0.2,0,0.5,0,0.7,0
			c2.6,0,5.2,0,7.8-0.1c1.6-0.1,2.8-1.2,3-2.6c0.1-1.1,0.2-2.1,0.2-3.2c0-3.9,0-7.8,0-11.6c0-1.2-0.1-2.4-0.2-3.5
			c-0.1-1.4-1.2-2.6-2.4-2.8c-0.8-0.1-1.6-0.2-2.5-0.2c-4.6,0-9.2,0-13.8,0c-0.6,0-1.3,0.1-1.9,0.2c-1.2,0.1-2.7,1.5-2.7,3.1
			c0,5.7-0.2,11.3-0.1,17c0,2.7,1.5,3.8,4.1,3.8C132.6,210.5,135.1,210.5,137.7,210.5z M42.7,295.8c0.8,1.6,2.2,1.6,3.7,1.6
			c11.5,0,22.9,0,34.4,0c0.4,0,0.9,0,1.3,0c0-6.8,0-13.4,0-20.1c-0.8,0.3-1.6,0.5-2.4,0.8c0,5.6,0,11.3,0,16.8
			c-2.8,0.7-4.9,0.1-6.2-2.5c-0.1-0.2-0.3-0.4-0.5-0.5c-2.1-2.3-4.3-4.4-7.3-5.5c-3-1.1-4.4-0.6-5.4,2c2.5-0.2,4.9,0,6.9,1.5
			c2,1.4,3.7,3.1,5.1,5.2c-5.9,0-11.7,0-17.6,0c0.2-2.5-1.1-4-3-5c-1.3-0.7-2.9-0.9-4.3-1.5c-1.5-0.6-2.3,0.2-3.1,1.4
			c-0.8,1.2-1.8,2.2-2.5,3.3c-1.2,1.9-3,2-5,1.7c0-2,0-4,0-6.1c-0.5,0.1-0.8,0.3-1.2,0.4c-1,0.1-1.4,0.6-1.3,1.6
			c0.1,1.4,0,2.8,0,4.2c-3.1,0-6.1,0-9.2,0c0-5.9,0-11.8,0-17.7c-0.7,0.2-1.3,0.3-1.8,0.6c-0.3,0.1-0.6,0.5-0.6,0.8
			c0,5.5,0,11.1,0,16.7c0,1.3,0.8,2.1,2.1,2.1c4.6,0,9.2,0,13.8,0C40.1,297.4,41.5,297.1,42.7,295.8z M207.3,189.1
			c4.6,0,9.2,0,13.8,0c-0.2-0.9-0.3-1.8-0.5-2.7c-6.5,0-12.9,0-19.1,0c0.1,2.1,0.3,4.1,0.3,6.1c0.1,4,0,8.1,0,12.1
			c0,1.9-0.2,3.8-0.2,5.7c6.3,0,12.8,0,19.4,0c0.1-0.9,0.2-1.8,0.3-2.6c-4.7,0-9.3,0-13.9,0c0-2.8,0-5.6,0-8.3c4.3,0,8.6,0,12.8,0
			c0-1,0-1.9,0-2.7c-4.3,0-8.6,0-12.8,0C207.3,194.2,207.3,191.6,207.3,189.1z M240.6,207.8c0-2.8,0-5.6,0-8.3c4.3,0,8.6,0,12.9,0
			c0-1,0-1.9,0-2.7c-4.3,0-8.6,0-12.9,0c0-2.6,0-5.2,0-7.6c4.6,0,9.2,0,13.8,0c-0.1-0.9-0.3-1.8-0.4-2.7c-6.6,0-13,0-19.4,0
			c0.9,4,0.4,8,0.4,12c0,4,0.5,8-0.5,12c6.6,0,13,0,19.6,0c0.1-0.9,0.2-1.8,0.3-2.6C249.8,207.8,245.2,207.8,240.6,207.8z
			 M325.5,295.9c0.7,1.4,1.9,1.6,3.3,1.5c4.8-0.1,9.6,0,14.4,0c0.4,0,0.8,0,1.2-0.1c0-6.7,0-13.3,0-20.1c-0.9,0.3-1.6,0.5-2.5,0.8
			c0,5.7,0,11.3,0,16.9c-1.5,0-2.9,0-4.3,0c0.1-2.1-0.8-3.7-2.5-4.7c-1.5-0.8-3.2-1.2-4.8-1.8c-1.4-0.5-2.2,0.2-3,1.3
			c-0.8,1.1-1.7,2.1-2.5,3.2c-1.2,1.9-3,2.2-5.1,1.8c0-2.2,0-4.3,0-6.4c-2.4,0.4-2.4,0.4-2.4,2.5c0,1.8,0,3.6,0,5.4
			c0,1.7,0,3.4,0,5.2c0,1.1-0.3,2.2-1.5,2.6c-0.5,0.2-1.1,0.2-1.7,0.4c0.8,2,0.8,2,2.3,1.6c2.5-0.7,3.3-1.8,3.2-4.5
			c0-1.4,0-2.8,0-4.1C324.2,297.3,324,297,325.5,295.9z M311.8,297.4c-0.2-1.1-0.1-2.2-0.6-2.8c-3-3.6-6.1-7.1-9.2-10.5
			c-0.7-0.7-0.4-1,0.2-1.2c2.1-0.8,4.3-1.5,6.4-2.1s2.2-0.6,2-2.8c0,0,0-0.1-0.1-0.2c-0.3,0.1-0.6,0.1-0.9,0.2
			c-2.8,0.9-5.6,1.9-8.5,2.7c-1.2,0.4-1.6,0.9-1.6,2.2c0,1.4,0.4,2.4,1.3,3.5c2,2,3.8,4.2,5.7,6.4c0.7,0.8,1.3,1.5,2.1,2.4
			c-4.4,0-8.6,0-12.9,0c0-2.2,0-4.4,0-6.7c-0.9,0.3-1.6,0.5-2.4,0.7c0,4,0,8,0,11.9c0,2.3-0.4,2.9-2.6,3.4c-0.2,0.1-0.5,0.1-1,0.1
			c0.6,0.7,1,1.7,1.5,1.8c2,0.4,4.2-1.6,4.2-3.7c0-1.7,0-3.4,0-5.1C300.9,297.4,306.2,297.4,311.8,297.4z M105.5,186.4
			c0.1,2.1,0.3,4.2,0.3,6.3c0.1,3.9,0,7.8,0,11.6c0,2-0.2,4-0.2,6.1c1.9,0,4.1,0,6.1,0c-0.1-1-0.3-2-0.3-2.9c0-5.3,0-10.6,0-15.9
			c0-1.7,0.2-3.4,0.3-5.1C109.6,186.4,107.5,186.4,105.5,186.4z M101.1,304.2c0.7,2.3,0.7,2.3,2.9,2.3c1,0,1.9,0.1,2.9,0
			c2.2-0.2,3.5-0.9,4.1-2.6c0.3-1,0.4-2,0.4-3c0-5,0-10.1,0-15.1c0-0.4,0-0.8,0-1.3c-1.9,0-3.6,0-5.3,0c-0.4,0-0.8,0-1.2,0
			c-2,0.2-3.8,1.8-3.9,3.5c-0.1,3.1,0,6.2,0,9.4c0.8,0,1.6,0.1,2.3,0c1.9-0.2,4.1,0.8,5.6-1.8c0,2.3,0,4.2,0,6c0,2-0.5,2.5-2.5,2.5
			C104.7,304.3,102.9,304.2,101.1,304.2z M130.2,295c0-4.4,0-8.6,0-12.9c-0.9,0.3-1.6,0.5-2.4,0.8c0,0.5,0,0.9,0,1.2
			c-1.3,0.1-2.5,0.2-3.7,0.3c-1.6,0.2-3.3,1.8-3.4,3.2c-0.1,2.4,0,4.9,0,7.4c2.4-0.5,5.1,1,7.2-1.9c0,1.7,0,3,0,4.1
			c4.8,0,9.4,0,14,0c0-2.9,0-5.6,0-8.5c-0.3,0.1-0.6,0.1-0.9,0.2c-1.2,0.2-1.6,0.8-1.4,2c0.1,1.3,0,2.6,0,4
			C136.5,295,133.4,295,130.2,295z M208.9,292.9c-0.8,0.3-1.8,0.4-2.2,0.9c-0.5,0.7-0.6,1.9-0.4,2.7c1,5.7,6.3,9,11.9,6.9
			c4.2-1.5,6-6.2,5.4-11.1c-2.1,0-4.3,0-6.5,0c0-0.8,0-1.5,0-2.2c0-0.4,0-0.9,0-1.3c0-1.7,1.1-2.1,2.9-2.3c1.2-0.1,2.4,0,3.6,0
			c-0.3-0.8-0.5-1.5-0.7-2.2c-1.4,0-2.8,0-4.2,0c-1.6,0-3.6,1.3-3.8,2.8c-0.2,2.5-0.1,5-0.1,7.5c2,0,4.1,0,6.2,0
			c0.3,2.8-0.7,5-3.2,6.3c-2.2,1.1-4.6,1.2-6.6-0.4C208.9,298.7,208.1,296.2,208.9,292.9z M264.1,288.4c-0.4,0.1-0.6,0.1-0.8,0.2
			c-1.4,0.1-1.6,0.9-1.6,2.1c0.1,3.4,0,6.7,0,10.1c0,2.7-0.2,3-2.7,3.6c-0.2,0-0.3,0-0.8,0.1c0.6,0.7,1,1.6,1.5,1.8
			c1.3,0.4,3.6-1,4-2.4c0.2-0.7,0.3-1.5,0.3-2.2c0-1.4,0-2.8,0-4.3c2.3,0,4.5,0,6.6,0c0-6.7,0-13.3,0-20c-0.4,0.1-0.6,0.1-0.9,0.2
			c-1.1,0.2-1.5,0.8-1.5,2c0.1,4,0,7.9,0,11.9c0,1.2,0,2.4,0,3.6c-1.5,0-2.9,0-4.3,0C264.1,292.7,264.1,290.6,264.1,288.4z
			 M256.1,288.8c-2.1,0.3-2.4,0.6-2.4,2.4c0,1.2,0,2.5,0,3.7c-3.1,0-6.2,0-9.3,0c0-5.9,0-11.8,0-17.7c-0.6,0.2-1,0.4-1.5,0.4
			c-0.9,0-0.9,0.5-0.9,1.1c0,5.5,0,11,0,16.5c0,0.4,0.2,0.8,0.4,1.1c0.4,0.6,1,0.9,1.8,0.9c3.9,0,7.9,0,11.9,0
			C256.1,294.5,256.1,291.6,256.1,288.8z M108.3,234.6c-3.9-0.6-7.2,3.4-7.1,7c0,4.1,3.1,7.2,7.2,7.2c4.1,0,7.2-3,7.2-7.1
			C115.6,237.3,112.7,234.6,108.3,234.6z M302.1,244.6c-0.1,0-0.2,0.1-0.3,0.1c-2.9-3.3-5.8-6.7-8.7-10c-0.1,0.1-0.2,0.1-0.3,0.1
			c0,4.5,0,9,0,13.5c0.5,0,1,0,1.5,0c0-3.3,0-6.6,0-10.1c3.1,3.5,6,6.9,9.2,10.5c0-4.9,0-9.4,0-13.9c-0.5,0-0.9,0-1.4,0
			C302.1,238.1,302.1,241.3,302.1,244.6z M238.6,297.4c0-3.3,0.1-6.4,0-9.6c-0.1-2.5-1-3.6-3.1-4.2c-0.6-0.2-1.2-0.2-1.9-0.3
			c-0.4,0.6-0.7,1.2-1.2,2c0.4,0,0.7,0.1,1,0.1c1.9,0,2.6,0.6,2.7,2.4c0.1,2.4,0,4.8,0,7.3c-2.3,0-4.6,0-6.9,0c-2.2,0-2.2,0-3,2.3
			C230.3,297.4,234.4,297.4,238.6,297.4z M167.2,244.6c-0.3-0.3-0.5-0.5-0.8-0.7c-0.9-0.9-1.7-1.8-2.5-2.7c2.2-2.3,2.7-3.9,1.7-5
			c-1-1.2-3.3-1.3-4.6-0.3c-1.4,1.1-1.3,1.9,0.7,5c-0.8,0.9-1.8,1.8-2.5,2.8c-0.8,1.1-0.9,2.3-0.2,3.5c0.6,1.1,1.7,1.6,3,1.6
			c2,0.1,3.6-0.9,5.3-2.2c0.5,0.6,0.9,1.3,1.4,1.6c0.6,0.3,1.3,0.3,2,0.4c0.1-0.1,0.1-0.3,0.2-0.4c-0.9-0.8-1.7-1.5-2.6-2.3
			c0.6-0.6,1.1-1,1.7-1.5c-0.4-0.3-0.7-0.6-1-0.9C168.3,243.8,167.8,244.1,167.2,244.6z M188.7,234.7c0,4.7,0,9.2,0,13.7
			c1.9,0,3.6,0.1,5.4,0c3.2-0.2,5.1-1.8,5.8-4.6c0.2-0.9,0.1-1.8,0.1-2.7c0-3-1.9-5.5-4.8-6C193.1,234.7,190.9,234.8,188.7,234.7z
			 M61.5,248.3c-1.6-2.1-3.1-4.1-4.8-6.2c0.7-0.1,1.1-0.1,1.6-0.1c2.1-0.4,2.8-1.4,2.8-4.2c0-1.4-1.1-2.7-2.7-2.9
			c-1.9-0.2-3.8,0-5.7,0c0,4.6,0,9,0,13.5c0.5,0,0.9,0,1.4,0c0-2.1,0-4.2,0-6.6c0.5,0.4,0.9,0.6,1.1,0.9c1.3,1.6,2.6,3.2,3.7,4.8
			C59.7,248.4,60.4,248.6,61.5,248.3z M344.8,242.1c0.7-0.1,1.1-0.1,1.6-0.1c2.1-0.4,2.9-1.6,2.9-4.2c0-1.5-1.3-2.8-3-2.9
			c-1.8-0.1-3.6,0-5.4,0c0,4.6,0,9.1,0,13.6c0.5,0,0.9,0,1.4-0.1c0-2.1,0-4.2,0-6.7c0.6,0.5,0.9,0.8,1.2,1.1
			c1.2,1.6,2.5,3.1,3.6,4.8c0.6,0.9,1.4,1.1,2.5,0.8C348,246.2,346.4,244.3,344.8,242.1z M275.1,278c0,6.5,0,12.9,0,19.3
			c0.8,0,1.5,0,2.3,0c0-6.7,0-13.3,0-20C276.5,277.5,275.8,277.8,275.1,278z M269.4,237.3c-1.5-2.6-5.4-3.5-8.5-2.5
			c-3.1,1-4.9,3.8-4.9,6.9c0,3.2,2.5,6.2,5.6,7c2.8,0.7,6.5-0.6,7.8-2.8c-0.3-0.2-0.7-0.5-1-0.8c-3.3,3.2-6.8,2.8-9.2,0.4
			c-2.1-2.1-2.1-5.7-0.1-7.8c2.4-2.6,6.1-2.5,9.4,0.4C268.8,237.9,269.1,237.6,269.4,237.3z M88.7,277.3c-0.3,0.1-0.6,0.2-0.9,0.2
			c-1.4,0.1-1.5,0.8-1.5,2c0.1,5.5,0,11.1,0,16.6c0,0.4,0,0.8,0,1.1c0.9,0,1.6,0,2.4,0C88.7,290.7,88.7,284.1,88.7,277.3z
			 M350.9,297.4c0-6.8,0-13.4,0-20c-0.3,0.1-0.6,0.2-0.9,0.2c-1.4,0-1.5,0.9-1.5,2c0,5.5,0,11.1,0,16.6c0,0.4,0,0.8,0,1.2
			C349.4,297.4,350.1,297.4,350.9,297.4z M285.1,234.8c-2.6,0-5.2,0-7.7,0c0,4.6,0,9.1,0,13.5c2.6,0,5.2,0,7.7,0c0-0.5,0-0.9,0-1.4
			c-2.1,0-4.2,0-6.3,0c0-1.8,0-3.4,0-5.2c2.1,0,4.2,0,6.3,0c0-0.5,0-0.9,0-1.4c-2.1,0-4.2,0-6.3,0c0-1.4,0-2.8,0-4.2
			c2.1,0,4.2,0,6.3,0C285.1,235.7,285.1,235.3,285.1,234.8z M325.4,234.8c0,4.6,0,9.1,0,13.6c2.6,0,5.1,0,7.7,0c0-0.5,0-0.9,0-1.4
			c-2.1,0-4.2,0-6.3,0c0-1.8,0-3.5,0-5.3c2.1,0,4.2,0,6.3,0c0-0.5,0-0.9,0-1.4c-2.1,0-4.2,0-6.4,0c0-1.4,0-2.8,0-4.2
			c2.1,0,4.2,0,6.3,0c0-0.5,0-0.9,0-1.3C330.5,234.8,328,234.8,325.4,234.8z M29.5,234.8c0,2.6,0,5.2,0,7.8c0,0.8,0,1.5-0.1,2.3
			c-0.3,1.6-1.5,2.5-3.2,2.4c-1.6-0.1-2.8-1.1-2.8-2.8c-0.1-1.7,0-3.4,0-5c0-1.6,0-3.1,0-4.6c-0.5,0-1,0-1.4,0c0,3.5-0.1,6.8,0,10.2
			c0.1,2,1.8,3.5,3.9,3.7c2.4,0.2,4.3-1,4.8-3c0.1-0.5,0.1-1,0.1-1.5c0-3.1,0-6.2,0-9.3C30.4,234.8,30,234.8,29.5,234.8z
			 M217.6,234.8c0,4.6,0,9.1,0,13.6c2.6,0,5.1,0,7.7,0c0-0.5,0-0.9-0.1-1.4c-2.2,0-4.3,0-6.4,0c0-1.8,0-3.4,0-5.2c2.1,0,4.2,0,6.4,0
			c0-0.5,0-0.9,0-1.4c-2.2,0-4.3,0-6.4,0c0-1.4,0-2.7,0-4.2c2.2,0,4.3,0,6.5,0c0-0.5,0-0.9,0-1.3
			C222.7,234.8,220.2,234.8,217.6,234.8z M38,234.8c-0.3,1.1,0.1,1.6,1.1,1.4c0.6-0.1,1.2,0,2,0c0,4.1,0,8.1,0,12.1c0.5,0,1,0,1.5,0
			c0-4.1,0-8.1,0-12.1c0.7,0,1.2,0,1.7,0c1.3,0,1.4-0.1,1.1-1.4C42.9,234.8,40.5,234.8,38,234.8z M85.1,234.8c-2.5,0-4.9,0-7.4,0
			c0,0.5,0,0.9,0.1,1.4c1,0,2,0,3,0c0,4.1,0,8.1,0,12.1c0.5,0,0.9,0,1.5,0c0-4.1,0-8.1,0-12.1C85.2,236.1,85.2,236.1,85.1,234.8z
			 M313.8,236.2c0,4.1,0,8.1,0,12.1c0.5,0,0.9,0,1.4,0c0-4.1,0-8.1,0-12.1c0.7,0,1.3,0,1.9,0c1.2,0.1,1.3-0.5,1.1-1.4
			c-2.5,0-5,0-7.5,0c0,0.5,0,0.9,0,1.4C311.7,236.2,312.7,236.2,313.8,236.2z M234.6,236.6c0,3.8,0,7.8,0,11.8c0.5,0,0.9,0,1.4,0
			c0-4.1,0-8.1,0-12.1c0.7,0,1.3-0.1,1.9,0c1.2,0.1,1.4-0.4,1.1-1.4c-2.5,0-5,0-7.6,0C231.5,237.4,233.6,235.6,234.6,236.6z
			 M92.2,234.8c0,4.6,0,9.1,0,13.6c0.5,0,0.9,0,1.3,0c0-4.6,0-9.1,0-13.6C93,234.8,92.6,234.8,92.2,234.8z M70.7,248.4
			c0-4.6,0-9.1,0-13.6c-0.5,0-0.9,0-1.3,0c0,4.6,0,9.1,0,13.6C69.8,248.4,70.2,248.4,70.7,248.4z M207.8,248.4c0.5,0,0.9,0,1.3,0
			c0-4.6,0-9.1,0-13.6c-0.5,0-0.9,0.1-1.3,0.1C207.8,239.4,207.8,243.8,207.8,248.4z M147.1,281c1,0,2,0,3,0c0-0.8,0-1.5,0-2.3
			c-1,0-2,0-3,0C147.1,279.5,147.1,280.2,147.1,281z M123.7,278.5c-1.1,0-2.2,0-3.3,0c0,0.7,0,1.4,0,2c1.1,0,2.2,0,3.3,0
			C123.7,279.9,123.7,279.3,123.7,278.5z M13.4,287.4c-1.2,0-2.2,0-3.3,0c0,0.7,0,1.4,0,2c1.1,0,2.2,0,3.3,0
			C13.4,288.7,13.4,288.1,13.4,287.4z M178.2,284.3c-1.1,0-2.1,0-3,0c0,0.7,0,1.4,0,2c1,0,2,0,3,0
			C178.2,285.6,178.2,285,178.2,284.3z M182.7,286.3c0-0.8,0-1.4,0-2.1c-1,0-2,0-3,0c0,0.7,0,1.4,0,2.1
			C180.7,286.3,181.7,286.3,182.7,286.3z M167.4,282.5c0-0.8,0-1.4,0-2.1c-1.1,0-2,0-3,0c0,0.7,0,1.4,0,2.1
			C165.4,282.5,166.3,282.5,167.4,282.5z M125.2,280.6c1.1,0,2.1,0,3,0c0-0.7,0-1.4,0-2c-1,0-2,0-3.1,0
			C125.2,279.2,125.2,279.9,125.2,280.6z M8.8,289.5c0-0.8,0-1.4,0-2.1c-1.1,0-2,0-3,0c0,0.7,0,1.4,0,2.1
			C6.8,289.5,7.8,289.5,8.8,289.5z M292.4,283.8c0,0.8,0,1.4,0,2c1,0,2.1,0,3,0c0-0.7,0-1.3,0-2
			C294.4,283.8,293.5,283.8,292.4,283.8z M28.6,302.2c1,0,2,0,3,0c0-0.7,0-1.4,0-2.1c-1,0-2,0-3,0C28.6,300.8,28.6,301.5,28.6,302.2
			z M36,300.1c-1.1,0-2.1,0-3,0c0,0.7,0,1.4,0,2c1,0,2,0,3,0C36,301.4,36,300.8,36,300.1z M136.7,300.1c-1.1,0-2.1,0-3,0
			c0,0.7,0,1.4,0,2c1.1,0,2,0,3,0C136.7,301.4,136.7,300.8,136.7,300.1z M141.2,300.1c-1.1,0-2.1,0-3,0c0,0.7,0,1.4,0,2
			c1.1,0,2,0,3,0C141.2,301.4,141.2,300.8,141.2,300.1z M250.9,300.1c-1.1,0-2.1,0-3,0c0,0.7,0,1.4,0,2c1.1,0,2,0,3,0
			C250.9,301.4,250.9,300.8,250.9,300.1z M252.4,300.1c0,0.7,0,1.4,0,2.1c1,0,2,0,3,0c0-0.7,0-1.4,0-2.1
			C254.4,300.1,253.4,300.1,252.4,300.1z M211.1,307.4c1.1,0,2.1,0,3,0c0-0.7,0-1.4,0-2c-1.1,0-2,0-3,0
			C211.1,306.1,211.1,306.7,211.1,307.4z M218.7,305.4c-1,0-2,0-3,0c0,0.7,0,1.3,0,2c1,0,2,0,3,0
			C218.7,306.7,218.7,306.1,218.7,305.4z"/>
		<g>
			<path class="st3" d="M0,292.1c0.8-0.1,1.5-0.3,2.3-0.5c0,1.1,0,2.2,0,3.3c4.8,0,9.6,0,14.4,0c0-1.7,0-3.5,0-5.4
				c0.8-0.3,1.6-0.5,2.5-0.8c0,2.9,0,5.8,0,8.7c-2.4,0-4.7,0-7.1,0c-3.1,0-6.2-0.1-9.2,0c-1.2,0-2.2-0.2-3-1.2
				C0,294.8,0,293.5,0,292.1z"/>
			<path class="st4" d="M183.4,295c1.5,0,2.9,0,4.3,0c0-0.5,0-1,0-1.5c0-4.5,0-9,0-13.4c0-2.2,0-2.2,2.4-2.6c0,5.9,0,11.7,0,17.6
				c1.5,0,2.8,0,4.2,0c0-5.6,0-11.2,0-16.9c0.8-0.3,1.5-0.5,2.4-0.8c0,6.7,0,13.4,0,20.1c-0.5,0-0.9,0-1.3,0c-8.1,0-16.3,0-24.5,0
				c-1.7,0-3-0.3-4.2-1.6c-0.2-0.2-0.5-0.4-0.8-0.7c-0.5,0.4-0.9,0.9-1.4,1.2c-0.8,0.4-1.7,1-2.5,1c-6.3,0.1-12.6,0-19.1,0
				c0.3-0.6,0.6-1,0.8-1.5c0.2-0.7,0.7-0.8,1.4-0.8c2.6,0,5.2,0,7.8,0c0-2.7,0.1-5.4,0-8c0-1-0.9-1.5-1.8-1.6c-0.5-0.1-0.9,0-1.8,0
				c0.6-0.9,1-1.8,1.6-2.1c0.5-0.2,1.4,0.1,2.1,0.4c1.6,0.6,2.5,1.9,2.5,3.8c0,2.4,0,4.9,0,7.5c2.1,0,4.3,0.1,6.4-0.1
				c0.7,0,1.3-0.8,2.1-1.3c-1.3-1-2.5-1.9-3.6-2.8c-0.7-0.6-0.9-2-0.3-2.7c2.5-3.7,8.9-3.6,11.4-0.6c0.9,1.1,0.8,2.8-0.3,3.6
				c-1,0.8-2,1.5-3.1,2.4c0.9,1,1.8,1.6,3.2,1.5c3.2-0.1,6.5,0,9.8,0c0-1.8,0-3.6,0-5.5c0.8-0.3,1.5-0.6,2.4-0.9
				C183.4,290.8,183.4,292.8,183.4,295z M162.4,289.4c1.1,0.8,2.1,1.6,3.2,2.3c0.2,0.1,0.6,0.1,0.8,0c1.1-0.8,2.2-1.6,3.2-2.3
				C168.1,287.1,163.7,287,162.4,289.4z"/>
			<path class="st4" d="M42.7,295.8c-1.2,1.4-2.6,1.6-4,1.6c-4.6,0.1-9.2,0-13.8,0c-1.3,0-2.1-0.8-2.1-2.1c0-5.5,0-11.1,0-16.7
				c0-0.3,0.3-0.7,0.6-0.8c0.5-0.3,1.1-0.4,1.8-0.6c0,5.9,0,11.8,0,17.7c3.1,0,6.1,0,9.2,0c0-1.4,0.1-2.8,0-4.2
				c-0.1-1,0.3-1.5,1.3-1.6c0.4,0,0.8-0.2,1.2-0.4c0,2.1,0,4.1,0,6.1c2,0.3,3.8,0.2,5-1.7c0.8-1.2,1.8-2.2,2.5-3.3
				c0.8-1.1,1.6-1.9,3.1-1.4c1.4,0.5,3,0.8,4.3,1.5c1.9,1,3.2,2.6,3,5c5.9,0,11.6,0,17.6,0c-1.5-2.1-3.2-3.7-5.1-5.2
				c-2.1-1.5-4.5-1.7-6.9-1.5c1-2.6,2.4-3.1,5.4-2c3,1.1,5.2,3.2,7.3,5.5c0.2,0.2,0.4,0.3,0.5,0.5c1.3,2.6,3.5,3.2,6.2,2.5
				c0-5.5,0-11.1,0-16.8c0.8-0.3,1.6-0.5,2.4-0.8c0,6.7,0,13.4,0,20.1c-0.4,0-0.9,0-1.3,0c-11.5,0-22.9,0-34.4,0
				C44.8,297.4,43.5,297.4,42.7,295.8z M43.3,295c3.2,0,6.1,0,9.2,0c-0.2-0.6-0.3-1.2-0.6-1.6c-1.1-1.8-3-2.2-4.9-2.7
				c-0.2,0-0.6,0.2-0.7,0.5C45.3,292.4,44.3,293.6,43.3,295z"/>
			<path class="st5" d="M325.5,295.9c-1.5,1.1-1.2,1.4-6,1.5c0,1.4,0,2.8,0,4.1c0.1,2.7-0.7,3.8-3.2,4.5c-1.5,0.4-1.5,0.4-2.3-1.6
				c0.6-0.1,1.1-0.2,1.7-0.4c1.2-0.4,1.5-1.4,1.5-2.6c0-1.7,0-3.4,0-5.2c0-1.8,0-3.6,0-5.4c0-2.1,0-2.1,2.4-2.5c0,2.1,0,4.3,0,6.4
				c2.2,0.4,3.9,0.1,5.1-1.8c0.7-1.1,1.7-2.1,2.5-3.2s1.5-1.8,3-1.3c1.6,0.6,3.3,1,4.8,1.8c1.7,0.9,2.6,2.6,2.5,4.7
				c1.4,0,2.8,0,4.3,0c0-5.6,0-11.2,0-16.9c0.9-0.3,1.6-0.5,2.5-0.8c0,6.7,0,13.4,0,20.1c-0.4,0-0.8,0.1-1.2,0.1
				c-4.8,0-9.6,0-14.4,0C327.4,297.5,326.2,297.3,325.5,295.9z M326,295c3.2,0,6.1,0,9.3,0c-0.2-0.6-0.4-1.2-0.7-1.7
				c-1.1-1.7-3-2.3-4.9-2.6c-0.2,0-0.5,0.2-0.7,0.4C328.1,292.3,327.1,293.6,326,295z"/>
			<path class="st5" d="M311.8,297.4c-5.6,0-10.8,0-16.2,0c0,1.8,0,3.5,0,5.1c0,2.1-2.2,4.1-4.2,3.7c-0.5-0.1-0.9-1-1.5-1.8
				c0.5-0.1,0.7-0.1,1-0.1c2.2-0.6,2.6-1.1,2.6-3.4c0-3.9,0-7.8,0-11.9c0.8-0.2,1.5-0.5,2.4-0.7c0,2.3,0,4.5,0,6.7
				c4.3,0,8.5,0,12.9,0c-0.8-0.9-1.4-1.6-2.1-2.4c-1.9-2.1-3.7-4.3-5.7-6.4c-1-1-1.4-2-1.3-3.5c0-1.3,0.4-1.8,1.6-2.2
				c2.9-0.8,5.7-1.8,8.5-2.7c0.3-0.1,0.6-0.2,0.9-0.2c0.1,0.1,0.1,0.1,0.1,0.2c0.2,2.1,0.2,2.1-2,2.8c-2.2,0.7-4.3,1.4-6.4,2.1
				c-0.6,0.2-0.9,0.5-0.2,1.2c3.1,3.5,6.2,6.9,9.2,10.5C311.7,295.2,311.6,296.3,311.8,297.4z"/>
			<path class="st4" d="M101.1,304.2c1.9,0,3.6,0,5.4,0c1.9,0,2.5-0.6,2.5-2.5c0-1.9,0-3.7,0-6c-1.5,2.6-3.7,1.6-5.6,1.8
				c-0.7,0.1-1.5,0-2.3,0c0-3.2-0.1-6.3,0-9.4c0.1-1.8,1.9-3.3,3.9-3.5c0.4,0,0.8,0,1.2,0c1.7,0,3.4,0,5.3,0c0,0.5,0,0.9,0,1.3
				c0,5,0,10.1,0,15.1c0,1-0.1,2.1-0.4,3c-0.6,1.8-1.9,2.5-4.1,2.6c-0.9,0.1-1.9,0-2.9,0C101.8,306.5,101.8,306.5,101.1,304.2z
				 M108.9,295c0-2.8,0-5.4,0-8.1c-1.3,0-2.6,0-3.9,0c-0.9,0-1.6,0.5-1.6,1.4c-0.1,2.2,0,4.4,0,6.7C105.2,295,107,295,108.9,295z"/>
			<path class="st4" d="M130.2,295c3.2,0,6.2,0,9.4,0c0-1.4,0.1-2.7,0-4c-0.1-1.2,0.3-1.8,1.4-2c0.3,0,0.5-0.1,0.9-0.2
				c0,2.8,0,5.6,0,8.5c-4.6,0-9.3,0-14,0c0-1.2,0-2.4,0-4.1c-2.1,2.9-4.8,1.4-7.2,1.9c0-2.6-0.1-5,0-7.4c0.1-1.5,1.8-3,3.4-3.2
				c1.2-0.2,2.4-0.2,3.7-0.3c0-0.4,0-0.8,0-1.2c0.8-0.3,1.6-0.5,2.4-0.8C130.2,286.4,130.2,290.6,130.2,295z M127.9,286.8
				c-1.2,0-2.4-0.1-3.5,0c-0.5,0.1-1.2,0.7-1.2,1.1c-0.2,1.4-0.3,2.7-0.3,4.1c0,0.2,0.5,0.7,0.8,0.7c1.1,0.1,2.2,0,3.2,0
				c0.8,0,1.1-0.3,1-1C127.8,290.2,127.9,288.6,127.9,286.8z"/>
			<path class="st6" d="M208.9,292.9c-0.8,3.3,0,5.8,2.4,7.8c2,1.6,4.4,1.6,6.6,0.4c2.5-1.2,3.5-3.4,3.2-6.3c-2.1,0-4.2,0-6.2,0
				c0-2.6-0.2-5.1,0.1-7.5c0.1-1.5,2.1-2.8,3.8-2.8c1.4,0,2.8,0,4.2,0c0.2,0.7,0.4,1.3,0.7,2.2c-1.3,0-2.5-0.1-3.6,0
				c-1.9,0.1-2.9,0.5-2.9,2.3c0,0.4,0,0.9,0,1.3c0,0.7,0,1.4,0,2.2c2.2,0,4.4,0,6.5,0c0.6,4.9-1.2,9.5-5.4,11.1
				c-5.6,2.1-10.9-1.3-11.9-6.9c-0.1-0.9,0-2,0.4-2.7C207.1,293.3,208.2,293.2,208.9,292.9z"/>
			<path class="st4" d="M264.1,288.4c0,2.2,0,4.4,0,6.5c1.4,0,2.8,0,4.3,0c0-1.2,0-2.4,0-3.6c0-4,0.1-7.9,0-11.9
				c0-1.2,0.4-1.8,1.5-2c0.3,0,0.5-0.1,0.9-0.2c0,6.7,0,13.3,0,20c-2.1,0-4.3,0-6.6,0c0,1.5,0,2.9,0,4.3c0,0.7-0.1,1.5-0.3,2.2
				c-0.4,1.3-2.7,2.8-4,2.4c-0.6-0.2-0.9-1-1.5-1.8c0.4-0.1,0.6-0.1,0.8-0.1c2.5-0.6,2.7-0.9,2.7-3.6c0-3.4,0.1-6.7,0-10.1
				c0-1.3,0.2-2,1.6-2.1C263.5,288.5,263.7,288.5,264.1,288.4z"/>
			<path class="st3" d="M256.1,288.8c0,2.8,0,5.6,0,8.6c-4,0-7.9,0-11.9,0c-0.8,0-1.4-0.2-1.8-0.9c-0.2-0.3-0.4-0.8-0.4-1.1
				c0-5.5,0-11,0-16.5c0-0.7,0.1-1.1,0.9-1.1c0.4,0,0.9-0.2,1.5-0.4c0,5.9,0,11.8,0,17.7c3.1,0,6.2,0,9.3,0c0-1.2,0-2.5,0-3.7
				C253.8,289.4,254.1,289.1,256.1,288.8z"/>
			<path class="st4" d="M238.6,297.4c-4.2,0-8.3,0-12.4,0c0.8-2.3,0.8-2.3,3-2.3c2.3,0,4.6,0,6.9,0c0-2.5,0.1-4.9,0-7.3
				c-0.1-1.8-0.8-2.3-2.7-2.4c-0.3,0-0.6-0.1-1-0.1c0.4-0.8,0.8-1.4,1.2-2c0.6,0.1,1.3,0.1,1.9,0.3c2.2,0.6,3.1,1.8,3.1,4.2
				C238.7,290.9,238.6,294.1,238.6,297.4z"/>
			<path class="st3" d="M275.1,278c0.7-0.2,1.5-0.5,2.3-0.7c0,6.7,0,13.4,0,20c-0.8,0-1.5,0-2.3,0
				C275.1,290.9,275.1,284.5,275.1,278z"/>
			<path class="st3" d="M88.7,277.3c0,6.7,0,13.4,0,20c-0.8,0-1.5,0-2.4,0c0-0.4,0-0.8,0-1.1c0-5.5,0-11.1,0-16.6c0-1.2,0.2-2,1.5-2
				C88.1,277.5,88.4,277.4,88.7,277.3z"/>
			<path class="st3" d="M350.9,297.4c-0.8,0-1.5,0-2.3,0c0-0.4,0-0.8,0-1.2c0-5.5,0-11.1,0-16.6c0-1.2,0.1-2,1.5-2
				c0.3,0,0.5-0.1,0.9-0.2C350.9,284,350.9,290.6,350.9,297.4z"/>
			<path class="st3" d="M147.1,281c0-0.8,0-1.5,0-2.3c1,0,2,0,3,0c0,0.8,0,1.5,0,2.3C149.1,281,148.1,281,147.1,281z"/>
			<path class="st3" d="M123.7,278.5c0,0.7,0,1.4,0,2c-1.1,0-2.2,0-3.3,0c0-0.7,0-1.3,0-2C121.5,278.5,122.6,278.5,123.7,278.5z"/>
			<path class="st3" d="M13.4,287.4c0,0.7,0,1.3,0,2c-1.1,0-2.1,0-3.3,0c0-0.7,0-1.3,0-2C11.2,287.4,12.2,287.4,13.4,287.4z"/>
			<path class="st3" d="M178.2,284.3c0,0.7,0,1.3,0,2c-1,0-2,0-3,0c0-0.6,0-1.3,0-2C176.1,284.3,177.1,284.3,178.2,284.3z"/>
			<path class="st3" d="M182.7,286.3c-1,0-2,0-3,0c0-0.7,0-1.3,0-2.1c1,0,1.9,0,3,0C182.7,284.9,182.7,285.6,182.7,286.3z"/>
			<path class="st3" d="M167.4,282.5c-1,0-2,0-3,0c0-0.7,0-1.3,0-2.1c1,0,1.9,0,3,0C167.4,281.1,167.4,281.7,167.4,282.5z"/>
			<path class="st3" d="M125.2,280.6c0-0.7,0-1.3,0-2c1,0,2,0,3,0c0,0.7,0,1.3,0,2C127.3,280.6,126.3,280.6,125.2,280.6z"/>
			<path class="st3" d="M8.8,289.5c-1,0-1.9,0-3,0c0-0.7,0-1.3,0-2.1c0.9,0,1.9,0,3,0C8.8,288,8.8,288.7,8.8,289.5z"/>
			<path class="st3" d="M292.4,283.8c1,0,2,0,3,0c0,0.7,0,1.3,0,2c-1,0-2,0-3,0C292.4,285.2,292.4,284.5,292.4,283.8z"/>
			<path class="st3" d="M28.6,302.2c0-0.7,0-1.4,0-2.1c1,0,2,0,3,0c0,0.7,0,1.4,0,2.1C30.6,302.2,29.6,302.2,28.6,302.2z"/>
			<path class="st3" d="M36,300.1c0,0.7,0,1.3,0,2c-1,0-2,0-3,0c0-0.6,0-1.3,0-2C33.9,300.1,34.8,300.1,36,300.1z"/>
			<path class="st3" d="M136.7,300.1c0,0.7,0,1.3,0,2c-1,0-1.9,0-3,0c0-0.6,0-1.3,0-2C134.6,300.1,135.6,300.1,136.7,300.1z"/>
			<path class="st3" d="M141.2,300.1c0,0.7,0,1.3,0,2c-1,0-1.9,0-3,0c0-0.6,0-1.3,0-2C139.2,300.1,140.1,300.1,141.2,300.1z"/>
			<path class="st3" d="M250.9,300.1c0,0.6,0,1.3,0,2c-0.9,0-1.9,0-3,0c0-0.6,0-1.2,0-2C248.8,300.1,249.8,300.1,250.9,300.1z"/>
			<path class="st3" d="M252.4,300.1c1.1,0,2,0,3,0c0,0.7,0,1.4,0,2.1c-1,0-2,0-3,0C252.4,301.5,252.4,300.8,252.4,300.1z"/>
			<path class="st3" d="M211.1,307.4c0-0.6,0-1.3,0-2c0.9,0,1.9,0,3,0c0,0.6,0,1.2,0,2C213.2,307.4,212.2,307.4,211.1,307.4z"/>
			<path class="st3" d="M218.7,305.4c0,0.7,0,1.3,0,2c-1,0-2,0-3,0c0-0.7,0-1.4,0-2C216.7,305.4,217.7,305.4,218.7,305.4z"/>
		</g>
		<g>
			<path class="st7" d="M108.3,234.6c4.4,0,7.3,2.8,7.3,7c0,4.1-3.1,7.1-7.2,7.1c-4.1,0-7.2-3.1-7.2-7.2
				C101.2,238,104.4,234,108.3,234.6z M108.2,247.3c3.4,0.1,5.9-2.2,5.9-5.7c0-3.5-2.1-5.7-5.8-5.7c-3,0-5.4,2.1-5.6,5.6
				C102.4,244.3,105.3,247.5,108.2,247.3z"/>
			<path class="st8" d="M302.1,244.6c0-3.2,0-6.4,0-9.7c0.5,0,0.9,0,1.4,0c0,4.5,0,9.1,0,13.9c-3.1-3.6-6.1-6.9-9.2-10.5
				c0,3.5,0,6.7,0,10.1c-0.5,0-1,0-1.5,0c0-4.5,0-9,0-13.5c0.1-0.1,0.2-0.1,0.3-0.1c2.9,3.3,5.8,6.7,8.7,10
				C301.9,244.6,302,244.6,302.1,244.6z"/>
			<path class="st7" d="M167.2,244.6c0.6-0.5,1.1-0.8,1.7-1.3c0.3,0.3,0.6,0.6,1,0.9c-0.6,0.5-1.1,0.9-1.7,1.5
				c0.9,0.8,1.8,1.6,2.6,2.3c-0.1,0.1-0.1,0.3-0.2,0.4c-0.7-0.1-1.4-0.1-2-0.4c-0.6-0.4-1-1.1-1.4-1.6c-1.7,1.3-3.2,2.3-5.3,2.2
				c-1.3-0.1-2.4-0.5-3-1.6c-0.7-1.2-0.6-2.4,0.2-3.5c0.7-1,1.6-1.8,2.5-2.8c-2-3.1-2.1-3.8-0.7-5c1.3-1,3.6-0.9,4.6,0.3
				c1,1.1,0.5,2.8-1.7,5c0.8,0.9,1.7,1.8,2.5,2.7C166.6,244.1,166.9,244.3,167.2,244.6z M162.5,241.9c-0.8,0.9-1.7,1.8-2.3,2.8
				c-0.3,0.4-0.1,1.4,0.2,1.8c0.5,0.5,1.4,1.1,2,0.9c1.2-0.3,2.4-1.1,3.7-1.7c-1.2-1.2-2.1-2.3-3.1-3.3
				C162.9,242.3,162.9,242.2,162.5,241.9z M163,240.2c0.6-0.8,1.1-1.3,1.5-1.9c0.4-0.7,0-1.4-0.8-1.5c-0.4-0.1-0.8-0.1-1.2,0
				c-1,0.1-1.4,0.8-0.8,1.7C162,239,162.5,239.5,163,240.2z"/>
			<path class="st8" d="M188.7,234.7c2.2,0.1,4.4,0,6.5,0.4c3,0.5,4.8,3,4.8,6c0,0.9,0.1,1.9-0.1,2.7c-0.7,2.8-2.6,4.4-5.8,4.6
				c-1.7,0.1-3.5,0-5.4,0C188.7,243.9,188.7,239.4,188.7,234.7z M190,247.1c1.6-0.1,3.1-0.1,4.6-0.3c2.7-0.4,3.9-2.1,4-4.9
				c0.1-3.1-1.8-5-3.6-5.4c-1.6-0.3-3.3-0.3-5-0.4C190,239.9,190,243.4,190,247.1z"/>
			<path class="st8" d="M11.8,244.8c0-3.3,0-6.6,0-10c0.6,0,0.9,0,1.4,0c0,4.5,0,9,0,13.9c-3.1-3.6-6-6.9-9.1-10.4
				c0,3.5,0,6.8,0,10.1c-0.6,0-1,0-1.5,0c0-4.5,0-9.1,0-13.6c0.1,0,0.2-0.1,0.2-0.1c2.9,3.3,5.8,6.6,8.7,10
				C11.6,244.7,11.7,244.7,11.8,244.8z"/>
			<path class="st8" d="M125,238.7c0,3.2,0,6.4,0,9.7c-0.6,0-1,0-1.5,0c0-4.6,0-9.1,0-13.5c0.1-0.1,0.2-0.1,0.3-0.2
				c2.9,3.4,5.9,6.8,9,10.3c0-3.5,0-6.8,0-10.2c0.5,0,0.9,0,1.4-0.1c0,4.6,0,9.1,0,14c-3.1-3.5-6.1-6.9-9-10.2
				c-0.1,0-0.2-0.1-0.2-0.1C125,238.5,125,238.6,125,238.7z"/>
			<path class="st8" d="M61.5,248.3c-1.1,0.3-1.8,0.1-2.5-0.8c-1.2-1.7-2.5-3.2-3.7-4.8c-0.2-0.3-0.6-0.5-1.1-0.9c0,2.4,0,4.5,0,6.6
				c-0.5,0-0.9,0-1.4,0c0-4.5,0-9,0-13.5c1.9,0,3.8-0.1,5.7,0c1.6,0.1,2.7,1.5,2.7,2.9c0,2.8-0.8,3.9-2.8,4.2
				c-0.4,0.1-0.9,0.1-1.6,0.1C58.4,244.2,59.9,246.2,61.5,248.3z M54.3,236.2c0,1.6,0,3.1,0,4.7c1.3-0.1,2.6-0.2,3.8-0.4
				c1.2-0.2,1.7-1.1,1.6-2.5c-0.1-1.1-0.8-1.8-1.9-1.8C56.6,236.2,55.5,236.2,54.3,236.2z"/>
			<path class="st8" d="M344.8,242.1c1.6,2.1,3.2,4.1,4.8,6.2c-1.1,0.3-1.8,0.1-2.5-0.8c-1.1-1.6-2.4-3.2-3.6-4.8
				c-0.2-0.3-0.6-0.6-1.2-1.1c0,2.5,0,4.6,0,6.7c-0.5,0-0.9,0.1-1.4,0.1c0-4.6,0-9,0-13.6c1.8,0,3.6-0.1,5.4,0
				c1.7,0.1,2.9,1.4,3,2.9c0,2.6-0.8,3.9-2.9,4.2C345.9,242,345.5,242,344.8,242.1z M342,236.2c0,1.3,0,2.5,0,3.6
				c0,0.3,0.4,0.9,0.6,0.9c1.2,0,2.5-0.1,3.8-0.3c1-0.2,1.5-1.2,1.4-2.3c-0.1-1.1-0.9-1.8-2-1.8C344.6,236.2,343.4,236.2,342,236.2z
				"/>
			<path class="st7" d="M269.4,237.3c-0.3,0.3-0.6,0.5-1,0.8c-3.3-2.9-6.9-3-9.4-0.4c-2,2.1-2,5.7,0.1,7.8c2.4,2.4,6,2.8,9.2-0.4
				c0.3,0.2,0.7,0.5,1,0.8c-1.3,2.2-5,3.5-7.8,2.8c-3.2-0.8-5.7-3.8-5.6-7c0-3.1,1.8-5.9,4.9-6.9C264,233.8,267.9,234.7,269.4,237.3
				z"/>
			<path class="st9" d="M285.1,234.8c0,0.4,0,0.8,0,1.3c-2.1,0-4.2,0-6.3,0c0,1.4,0,2.7,0,4.2c2.1,0,4.2,0,6.3,0c0,0.5,0,0.9,0,1.4
				c-2.1,0-4.2,0-6.3,0c0,1.8,0,3.5,0,5.2c2.1,0,4.2,0,6.3,0c0,0.5,0,0.9,0,1.4c-2.5,0-5.1,0-7.7,0c0-4.4,0-8.9,0-13.5
				C279.9,234.8,282.5,234.8,285.1,234.8z"/>
			<path class="st9" d="M325.4,234.8c2.6,0,5.1,0,7.7,0c0,0.4,0,0.8,0,1.3c-2.1,0-4.2,0-6.3,0c0,1.4,0,2.7,0,4.2c2.1,0,4.2,0,6.4,0
				c0,0.5,0,0.9,0,1.4c-2.1,0-4.1,0-6.3,0c0,1.8,0,3.5,0,5.3c2.1,0,4.1,0,6.3,0c0,0.5,0,0.9,0,1.4c-2.6,0-5.1,0-7.7,0
				C325.4,243.9,325.4,239.4,325.4,234.8z"/>
			<path class="st8" d="M29.5,234.8c0.5,0,0.9,0,1.3,0c0,3.1,0,6.2,0,9.3c0,0.5,0,1.1-0.1,1.5c-0.5,2.1-2.4,3.2-4.8,3
				c-2.1-0.2-3.9-1.7-3.9-3.7c-0.1-3.4,0-6.8,0-10.2c0.4,0,0.8,0,1.4,0c0,1.6,0,3.1,0,4.6c0,1.7,0,3.4,0,5c0.1,1.7,1.2,2.7,2.8,2.8
				c1.7,0.1,2.9-0.8,3.2-2.4c0.1-0.7,0.1-1.5,0.1-2.3C29.5,240,29.5,237.5,29.5,234.8z"/>
			<path class="st9" d="M217.6,234.8c2.6,0,5.1,0,7.7,0c0,0.4,0,0.8,0,1.3c-2.2,0-4.3,0-6.5,0c0,1.5,0,2.8,0,4.2c2.1,0,4.2,0,6.4,0
				c0,0.5,0,0.9,0,1.4c-2.2,0-4.2,0-6.4,0c0,1.8,0,3.4,0,5.2c2.1,0,4.2,0,6.4,0c0,0.5,0,0.9,0.1,1.4c-2.6,0-5.1,0-7.7,0
				C217.6,243.9,217.6,239.4,217.6,234.8z"/>
			<path class="st9" d="M38,234.8c2.5,0,5,0,7.4,0c0.3,1.3,0.2,1.4-1.1,1.4c-0.5,0-1,0-1.7,0c0,4.1,0,8.1,0,12.1c-0.6,0-1,0-1.5,0
				c0-4,0-8,0-12.1c-0.8,0-1.4-0.1-2,0C38,236.4,37.7,235.9,38,234.8z"/>
			<path class="st10" d="M85.1,234.8c0.1,1.2,0.1,1.2-2.9,1.5c0,4,0,8,0,12.1c-0.6,0-1,0-1.5,0c0-4,0-8,0-12.1c-1,0-2,0-3,0
				c0-0.5,0-0.9-0.1-1.4C80.1,234.8,82.6,234.8,85.1,234.8z"/>
			<path class="st10" d="M313.8,236.2c-1.1,0-2,0-3,0c0-0.5,0-0.9,0-1.4c2.5,0,4.9,0,7.5,0c0.2,0.9,0.1,1.5-1.1,1.4
				c-0.6-0.1-1.2,0-1.9,0c0,4.1,0,8.1,0,12.1c-0.5,0-0.9,0-1.4,0C313.8,244.4,313.8,240.4,313.8,236.2z"/>
			<path class="st10" d="M234.6,236.6c-1.1-1-3.1,0.8-3.2-1.8c2.6,0,5.1,0,7.6,0c0.3,1,0.1,1.5-1.1,1.4c-0.6-0.1-1.2,0-1.9,0
				c0,4.1,0,8.1,0,12.1c-0.5,0-0.9,0-1.4,0C234.6,244.4,234.6,240.4,234.6,236.6z"/>
			<path class="st10" d="M92.2,234.8c0.4,0,0.8,0,1.3,0c0,4.5,0,9,0,13.6c-0.4,0-0.8,0-1.3,0C92.2,243.9,92.2,239.4,92.2,234.8z"/>
			<path class="st9" d="M70.7,248.4c-0.5,0-0.8,0-1.3,0c0-4.5,0-9,0-13.6c0.4,0,0.8,0,1.3,0C70.7,239.3,70.7,243.8,70.7,248.4z"/>
			<path class="st9" d="M207.8,248.4c0-4.5,0-9,0-13.5c0.4,0,0.9-0.1,1.3-0.1c0,4.6,0,9,0,13.6C208.7,248.4,208.3,248.4,207.8,248.4
				z"/>
		</g>
		<g>
			<path class="st4" d="M286.5,199.4c1.7,3.8,3.4,7.4,5.1,11.1c-1.9,0-3.9,0-5.9,0c-0.2,0-0.5-0.5-0.6-0.8c-1.4-3.1-2.7-6.3-4-9.4
				c-0.3-0.6-0.6-0.9-1.3-0.9c-1.9,0.1-3.8,0-5.9,0c0.2,3.7-0.4,7.4,0.5,11c-2.1,0-4.3,0-6.6,0c1-3.1,0.5-6.2,0.5-9.2
				c0.1-3.1,0-6.2,0-9.4c0-1.8-0.2-3.5-0.3-5.4c0.2,0,0.5,0,0.9,0c5.8,0,11.6,0,17.4,0c3.5,0,4.8,1.3,4.7,4.8c0,1.7,0,3.3-0.2,5
				c-0.3,2.3-1.2,3-3.5,3.2C287.2,199.3,287,199.3,286.5,199.4z M274,196.9c0.8,0,1.4,0,2,0c2.6,0,5.2,0,7.8,0
				c1.5,0,1.9-0.4,1.9-1.9c0-1.3,0-2.6,0-3.8c0-1.8-0.3-2.1-2-2.1c-2.3,0-4.6,0-7,0c-0.9,0-1.8,0-2.7,0
				C274,191.7,274,194.2,274,196.9z"/>
			<path class="st3" d="M207.3,189.1c0,2.5,0,5,0,7.6c4.3,0,8.5,0,12.8,0c0,0.8,0,1.8,0,2.7c-4.3,0-8.5,0-12.8,0c0,2.8,0,5.5,0,8.3
				c4.6,0,9.2,0,13.9,0c-0.1,0.9-0.2,1.7-0.3,2.6c-6.5,0-13.1,0-19.4,0c0.1-1.9,0.2-3.8,0.2-5.7c0-4,0-8.1,0-12.1
				c0-2-0.2-4.1-0.3-6.1c6.2,0,12.7,0,19.1,0c0.2,0.9,0.3,1.8,0.5,2.7C216.5,189.1,211.9,189.1,207.3,189.1z"/>
			<path class="st3" d="M240.6,207.8c4.6,0,9.2,0,13.9,0c-0.1,0.9-0.2,1.7-0.3,2.6c-6.6,0-13.1,0-19.6,0c0.9-4,0.5-8,0.5-12
				c0-4,0.5-8-0.4-12c6.4,0,12.8,0,19.4,0c0.1,0.9,0.3,1.8,0.4,2.7c-4.6,0-9.1,0-13.8,0c0,2.5,0,5,0,7.6c4.3,0,8.5,0,12.9,0
				c0,0.9,0,1.8,0,2.7c-4.3,0-8.5,0-12.9,0C240.6,202.2,240.6,205,240.6,207.8z"/>
			<path class="st4" d="M184.1,206.4c0-5.8,0-11.7,0-17.5c0-0.8-0.3-1.5-0.5-2.3c1.2,0,2.4,0,3.7,0c-0.7,3.7-0.3,7.4-0.3,11.1
				c-0.1,3.8,0,7.5,0,11.3c0,0.4,0,0.9,0,1.4c-2.2,0-4.4,0-6.6,0c-0.3,0-0.7-0.5-0.9-0.8c-3.9-6.1-7.9-12.2-11.8-18.3
				c-0.2-0.4-0.5-0.7-0.9-1.1c-0.1,6.7-0.3,13.3,0,20.1c-0.9,0-2.1,0-3,0c0.4-6.1,0.1-12.2,0.2-18.4c0-1.8-0.2-3.6-0.3-5.5
				c2.2,0,4.6,0,7,0c0.4,0,0.8,0.6,1.1,0.9c3.8,5.9,7.7,11.9,11.5,17.8C183.3,205.6,183.7,206,184.1,206.4
				C184,206.5,184,206.5,184.1,206.4C184,206.5,184.1,206.5,184.1,206.4C184.1,206.5,184.1,206.5,184.1,206.4z"/>
			<path class="st3" d="M137.7,210.5c-2.6,0-5.1,0-7.7,0c-2.7,0-4.1-1.2-4.1-3.8c-0.1-5.7,0-11.3,0.1-17c0-1.5,1.4-2.9,2.7-3.1
				c0.6-0.1,1.3-0.2,1.9-0.2c4.6,0,9.2,0,13.8,0c0.8,0,1.7,0.1,2.5,0.2c1.2,0.2,2.3,1.4,2.4,2.8c0.1,1.2,0.2,2.4,0.2,3.5
				c0,3.9,0,7.8,0,11.6c0,1.1-0.1,2.1-0.2,3.2c-0.2,1.4-1.4,2.5-3,2.6c-2.6,0.1-5.2,0.1-7.8,0.1
				C138.2,210.5,137.9,210.5,137.7,210.5z M131.3,198.4c0,2.5,0,5,0,7.6c0,1.6,0.4,1.9,1.9,1.9c2.8,0,5.6,0,8.4,0
				c2,0,2.3-0.3,2.3-2.2c0-4.9,0-9.8,0-14.7c0-1.6-0.4-1.9-1.9-1.9c-2.9,0-5.8,0-8.8,0c-1.6,0-1.9,0.3-1.9,1.9
				C131.3,193.4,131.3,195.9,131.3,198.4z"/>
			<path class="st3" d="M105.5,186.4c2,0,4.1,0,6.1,0c-0.1,1.7-0.3,3.4-0.3,5.1c0,5.3,0,10.6,0,15.9c0,1,0.2,1.9,0.3,2.9
				c-2,0-4.1,0-6.1,0c0.1-2,0.2-4,0.2-6.1c0-3.9,0-7.8,0-11.6C105.8,190.6,105.6,188.5,105.5,186.4z"/>
			<path class="st3" d="M68.4,186.4c6.3,0,12.6,0,18.9,0c2.6,0,4,1.2,4.1,3.8c0.2,2.4,0.2,4.9,0,7.3c-0.2,3-1.4,3.9-4.3,3.9
				c-3.9,0.1-7.8,0-11.6,0c-0.4,0-0.8,0-1.3,0c0.2,3-0.4,6,0.6,9c-2.2,0-4.3,0-6.4,0c0.6-6.6,0.2-13.1,0.3-19.7
				c0-1.4-0.3-2.7-0.5-4.1C68.2,186.5,68.3,186.5,68.4,186.4z M74.3,198.8c3.5,0,7,0,10.4,0c1,0,1.3-0.7,1.3-1.6c0-1.5,0-3,0-4.5
				c0-4,0.1-3.7-3.6-3.7c-2.7,0-5.4,0-8.1,0C74.3,192.3,74.3,195.5,74.3,198.8z"/>
		</g>
		<path class="st11" d="M349.1,205c-5.6,0-11.2,0-16.7,0c-5.5,0-10.9,0-16.5,0c-3.2-7.4-7.9-14-13.5-19.9
			c-7.5-7.9-16.3-13.9-26.4-18c-5.2-2.1-10.5-3.9-16-4.7c-3.9-0.6-7.8-1.4-11.7-1.6c-4.8-0.3-9.7-0.4-14.6-0.2
			c-3.8,0.1-7.6,0.6-11.4,1.1c-10.8,1.5-21,5.1-31.2,8.9c-4.1,1.6-8.4,2.6-12.8,2.9c-2.5,0.2-5,0.4-7.5,0.2c-4-0.4-7.8-1.5-11.6-2.9
			c-4.4-1.7-9-3.1-13.6-4.5c-3.5-1.1-6.9-2.2-10.5-3c-3.5-0.8-7-1.3-10.6-1.8c-2.8-0.4-5.7-0.6-8.6-0.7c-4.1-0.2-8.1-0.4-12.2-0.2
			c-10,0.5-19.8,2.3-29.2,6c-9.1,3.6-17.2,8.6-24.4,15.3c-6.9,6.5-12.6,13.9-16.5,22.6c-0.1,0.3-0.6,0.7-0.9,0.7
			c-10.8,0-21.6,0-32.6,0c0.5-1.5,0.9-2.7,1.3-3.8c3.9-9.9,9.6-18.5,16.5-26.4c4.5-5.2,9.4-9.9,15.1-13.8
			c7.8-5.3,16.4-9.1,25.5-11.3c5.1-1.3,10.2-2.1,15.4-2.9c2.8-0.4,5.7-0.6,8.5-0.7c5.5-0.2,10.9-0.3,16.4-0.2c2.8,0,5.7,0.4,8.5,0.7
			c2,0.2,4,0.2,5.9,0.5c3.9,0.5,7.9,1,11.8,1.7c5.4,1,10.8,2.1,16.1,3.4c6.1,1.5,12.2,3.3,18.3,5c3.2,0.9,6.2,2.3,9.4,2.9
			c5.9,1.2,11.8,0.6,17.4-1.6c6.6-2.6,13.3-4.5,20.2-6.1c7-1.6,14.1-2.9,21.1-4.2c3.5-0.6,7.1-0.9,10.7-1.3
			c7.1-0.9,14.3-1.2,21.5-1.1c3.2,0.1,6.3,0.4,9.5,0.6c2.1,0.1,4.2,0.2,6.4,0.5c2.8,0.4,5.5,0.9,8.2,1.4c5.6,1,11.1,2.5,16.5,4.6
			c11.9,4.6,22,11.7,30.4,21.4c6.7,7.7,12.4,15.9,16.4,25.3c0.6,1.5,1.2,3.1,1.8,4.7C349,204.3,349,204.5,349.1,205z"/>
		<path class="st12" d="M296.5,0.5c-0.6,4.9-1,9.8-1.7,14.7c-0.8,5.2-1.5,10.5-2.7,15.6c-3.4,15.1-8.6,29.5-17.2,42.5
			c-3.8,5.7-8.3,10.6-13.2,15.2c-7.4,6.8-15.1,13.3-23.4,19c-10.8,7.4-22.2,13.9-34.7,17.7c-11.9,3.7-21,10.6-27.6,21.3
			c-0.1-0.7-0.6-14.7-0.3-21.2c1.1-19.6,4.7-38.8,12.9-56.8c4.9-10.7,11.2-20.4,19.6-28.7C218.8,29.2,231.5,22,245.9,18
			c4.7-1.3,9.5-2.1,14.3-2.9c9.8-1.7,19.5-3.5,28.4-8.2c3-1.6,5.8-3.5,7.5-6.6C296.2,0.4,296.4,0.4,296.5,0.5z"/>
	</g>
</g>
<g id="Layer_2">
	<g>
		<g>
			<path class="st13" d="M14,281.1c0-89.6,0-179.2,0-268.9c107.7,0,215.4,0,323.1,0c0,94.4,0,188.8,0,283.2
				c-107.7,0-215.4,0-323.1,0c0-3.5,0-7,0-10.6c0.7,0.9,1.6,1.2,2.7,1.1c2.8-0.1,5.7,0,8.5,0c2.2,0,4.3,0,6.5,0c0-2.7,0-5.3,0-8
				c-0.8,0.3-1.5,0.5-2.3,0.7c0,1.8,0,3.4,0,5c-4.4,0-8.8,0-13.2,0c0-1.1,0-2.1,0-3C15.4,280.8,14.7,281,14,281.1z M129.1,231.9
				c0.1,0,0.1-0.1,0.2-0.1c2.7,3,5.4,6.1,8.3,9.4c0-4.5,0-8.6,0-12.9c-0.4,0-0.8,0-1.3,0.1c0,3.1,0,6.1,0,9.4
				c-2.9-3.3-5.6-6.4-8.3-9.5c-0.1,0.1-0.2,0.1-0.2,0.2c0,4.1,0,8.3,0,12.5c0.4,0,0.8,0,1.3,0C129.1,237.8,129.1,234.9,129.1,231.9z
				 M24.6,237.4c-2.7-3.1-5.3-6.1-8-9.2c-0.1,0-0.2,0.1-0.2,0.1c0,4.2,0,8.3,0,12.5c0.4,0,0.8,0,1.4,0c0-3.1,0-6.1,0-9.3
				c2.9,3.3,5.5,6.3,8.4,9.6c0-4.5,0-8.6,0-12.8c-0.4,0-0.8,0-1.3,0c0,3.1,0,6.1,0,9.2C24.8,237.5,24.7,237.5,24.6,237.4z M76.7,184
				c0.2,1.3,0.5,2.5,0.5,3.8c-0.1,6.1,0.3,12.1-0.2,18.1c1.9,0,3.8,0,5.9,0c-0.9-2.7-0.3-5.5-0.5-8.3c0.5,0,0.9,0,1.2,0
				c3.6,0,7.1,0.1,10.7,0c2.6-0.1,3.7-0.9,3.9-3.6c0.2-2.2,0.1-4.5,0-6.7c-0.1-2.4-1.4-3.5-3.8-3.5c-5.8,0-11.6,0-17.4,0
				C76.9,183.9,76.8,183.9,76.7,184z M183.4,202.3c-0.3-0.4-0.7-0.8-0.9-1.2c-3.5-5.5-7-10.9-10.6-16.4c-0.2-0.4-0.6-0.9-1-0.9
				c-2.2-0.1-4.4,0-6.4,0c0.1,1.8,0.3,3.4,0.3,5.1c0,5.6,0.2,11.3-0.1,16.9c0.9,0,2,0,2.8,0c-0.3-6.2-0.1-12.3,0-18.5
				c0.3,0.3,0.6,0.7,0.8,1c3.6,5.6,7.2,11.2,10.8,16.9c0.2,0.3,0.5,0.7,0.8,0.7c2,0.1,4,0,6.1,0c0-0.5,0-0.9,0-1.3
				c0-3.5-0.1-6.9,0-10.4c0.1-3.4-0.3-6.8,0.3-10.2c-1.1,0-2.2,0-3.4,0c0.2,0.7,0.5,1.4,0.5,2.1
				C183.4,191.5,183.4,196.9,183.4,202.3L183.4,202.3z M286.9,12.7c-0.1,0-0.3-0.1-0.4-0.1c-1.6,2.8-4.2,4.6-6.9,6.1
				c-8.2,4.3-17.1,5.9-26.1,7.5c-4.4,0.8-8.8,1.5-13.1,2.7c-13.3,3.6-25,10.2-34.8,20c-7.7,7.7-13.6,16.6-18,26.5
				c-7.5,16.6-10.8,34.2-11.9,52.3c-0.3,5.9-0.1,11.9,0,17.9c0,0.5,0.2,1,0.3,1.6c6.1-9.8,14.5-16.2,25.4-19.6
				c11.6-3.6,22-9.5,32-16.3c7.7-5.2,14.8-11.2,21.6-17.5c4.6-4.2,8.7-8.8,12.2-14c8-11.9,12.7-25.2,15.8-39.1
				c1-4.7,1.8-9.6,2.4-14.4C285.9,21.7,286.3,17.2,286.9,12.7z M335.3,200.9c-0.1-0.4-0.1-0.6-0.1-0.7c-0.5-1.4-1-2.9-1.6-4.3
				c-3.7-8.7-8.9-16.2-15.1-23.3c-7.7-8.9-17.1-15.4-28-19.7c-4.9-1.9-10-3.4-15.2-4.2c-2.5-0.4-5-0.9-7.6-1.3
				c-1.9-0.3-3.9-0.3-5.8-0.5c-2.9-0.2-5.8-0.5-8.7-0.5c-6.6-0.1-13.2,0.1-19.8,1c-3.3,0.4-6.6,0.6-9.8,1.2
				c-6.5,1.2-13,2.4-19.5,3.9c-6.3,1.4-12.5,3.2-18.6,5.6c-5.2,2-10.6,2.5-16,1.5c-3-0.6-5.8-1.8-8.7-2.7
				c-5.6-1.6-11.2-3.2-16.8-4.6c-4.9-1.2-9.8-2.2-14.8-3.1c-3.6-0.7-7.2-1.1-10.9-1.6c-1.8-0.2-3.6-0.3-5.5-0.4
				c-2.6-0.2-5.2-0.6-7.8-0.6c-5,0-10.1,0.1-15.1,0.2c-2.6,0.1-5.2,0.2-7.8,0.6c-4.7,0.8-9.5,1.5-14.2,2.7
				c-8.4,2.1-16.3,5.5-23.5,10.4c-5.2,3.6-9.7,7.9-13.9,12.7c-6.4,7.3-11.7,15.3-15.2,24.3c-0.4,1-0.7,2.1-1.2,3.5
				c10.2,0,20.1,0,30,0c0.3,0,0.7-0.3,0.8-0.6c3.6-8,8.8-14.8,15.2-20.8c6.6-6.1,14.1-10.8,22.4-14.1c8.6-3.4,17.7-5.1,26.9-5.6
				c3.7-0.2,7.5,0,11.2,0.2c2.6,0.1,5.3,0.3,7.9,0.7c3.3,0.4,6.5,0.9,9.7,1.6c3.3,0.7,6.5,1.8,9.6,2.8c4.2,1.3,8.4,2.6,12.5,4.1
				c3.5,1.3,7,2.3,10.7,2.7c2.3,0.2,4.6,0,6.9-0.2c4.1-0.3,8-1.2,11.8-2.7c9.4-3.5,18.8-6.8,28.7-8.2c3.5-0.5,7-0.9,10.5-1.1
				c4.5-0.1,8.9-0.1,13.4,0.2c3.6,0.2,7.2,1,10.8,1.5c5.1,0.8,10,2.4,14.7,4.3c9.3,3.8,17.4,9.3,24.3,16.5
				c5.2,5.5,9.5,11.6,12.4,18.3c5.1,0,10.1,0,15.2,0C325,200.9,330.1,200.9,335.3,200.9z M277.6,195.8c0.5,0,0.7-0.1,0.9-0.1
				c2.1-0.2,2.9-0.8,3.2-2.9c0.2-1.5,0.2-3,0.2-4.6c0-3.2-1.1-4.4-4.4-4.4c-5.3,0-10.7,0-16,0c-0.3,0-0.7,0-0.9,0
				c0.1,1.7,0.2,3.3,0.3,5c0,2.9,0.1,5.7,0,8.6c-0.1,2.8,0.4,5.7-0.5,8.5c2.1,0,4.1,0,6,0c-0.9-3.4-0.3-6.7-0.5-10.2
				c1.9,0,3.7,0,5.4,0c0.7,0,1,0.2,1.2,0.8c1.2,2.9,2.4,5.8,3.7,8.7c0.1,0.3,0.3,0.7,0.5,0.7c1.8,0.1,3.7,0,5.4,0
				C280.8,202.5,279.2,199.2,277.6,195.8z M182.8,283.7c0-2,0-3.8,0-5.8c-0.8,0.3-1.5,0.6-2.2,0.8c0,1.7,0,3.3,0,5c-3.1,0-6-0.1-9,0
				c-1.3,0-2.1-0.5-2.9-1.4c1-0.8,1.9-1.5,2.8-2.2c1-0.8,1.1-2.3,0.3-3.3c-2.3-2.8-8.2-2.9-10.5,0.5c-0.5,0.7-0.4,2,0.3,2.5
				c1.1,0.8,2.1,1.6,3.4,2.5c-0.8,0.5-1.4,1.1-2,1.2c-2,0.1-3.9,0.1-5.9,0.1c0-2.4,0-4.6,0-6.9c0-1.7-0.8-3-2.3-3.5
				c-0.6-0.2-1.5-0.6-2-0.3c-0.6,0.3-0.9,1.1-1.5,1.9c0.8,0,1.2,0,1.7,0c0.9,0.1,1.6,0.5,1.7,1.5c0.1,2.4,0,4.9,0,7.4
				c-2.3,0-4.7,0-7.2,0c-0.6,0-1,0.1-1.3,0.8c-0.2,0.5-0.4,0.9-0.7,1.4c6,0,11.8,0,17.6,0c0.8,0,1.6-0.5,2.3-0.9
				c0.5-0.3,0.9-0.7,1.3-1.1c0.3,0.3,0.6,0.4,0.8,0.7c1,1.1,2.3,1.5,3.8,1.4c7.5-0.1,15,0,22.5,0c0.4,0,0.8,0,1.2,0
				c0-6.2,0-12.3,0-18.5c-0.8,0.3-1.5,0.5-2.2,0.7c0,5.2,0,10.4,0,15.5c-1.3,0-2.5,0-3.9,0c0-5.4,0-10.8,0-16.2
				c-2.2,0.4-2.2,0.4-2.2,2.4c0,4.1,0,8.2,0,12.4c0,0.5,0,0.9,0,1.4C185.4,283.7,184.2,283.7,182.8,283.7z M140.7,205.9
				c0.2,0,0.4,0,0.7,0c2.4,0,4.8,0,7.2-0.1c1.5-0.1,2.6-1.1,2.8-2.4c0.1-1,0.2-1.9,0.2-2.9c0-3.6,0-7.1,0-10.7
				c0-1.1-0.1-2.2-0.2-3.2c-0.1-1.3-1.1-2.4-2.2-2.5c-0.7-0.1-1.5-0.2-2.3-0.2c-4.2,0-8.5,0-12.7,0c-0.6,0-1.2,0.1-1.7,0.2
				c-1.2,0.1-2.5,1.4-2.5,2.8c0,5.2-0.1,10.4,0,15.7c0,2.4,1.3,3.5,3.8,3.5C136,206,138.3,205.9,140.7,205.9z M53.2,284.5
				c0.8,1.5,2,1.5,3.4,1.5c10.6,0,21.1,0,31.7,0c0.4,0,0.8,0,1.2,0c0-6.2,0-12.3,0-18.5c-0.8,0.3-1.4,0.5-2.2,0.7
				c0,5.2,0,10.4,0,15.4c-2.5,0.7-4.5,0.1-5.8-2.3c-0.1-0.2-0.3-0.3-0.4-0.5c-1.9-2.1-4-4-6.7-5c-2.7-1-4-0.5-4.9,1.8
				c2.3-0.2,4.5,0,6.4,1.4c1.8,1.3,3.4,2.9,4.7,4.7c-5.5,0-10.8,0-16.2,0c0.2-2.3-1-3.7-2.8-4.6c-1.2-0.6-2.6-0.9-3.9-1.3
				c-1.4-0.5-2.1,0.2-2.8,1.2c-0.7,1.1-1.6,2-2.3,3.1c-1.2,1.8-2.8,1.8-4.6,1.5c0-1.9,0-3.7,0-5.6c-0.4,0.1-0.8,0.3-1.1,0.3
				c-0.9,0.1-1.3,0.5-1.2,1.5c0.1,1.3,0,2.6,0,3.9c-2.9,0-5.6,0-8.5,0c0-5.4,0-10.8,0-16.3c-0.6,0.2-1.2,0.3-1.6,0.5
				c-0.2,0.1-0.5,0.5-0.5,0.8c0,5.1,0,10.2,0,15.3c0,1.2,0.8,1.9,1.9,1.9c4.2,0,8.5,0,12.7,0C50.9,285.9,52.2,285.7,53.2,284.5z
				 M204.8,186.3c4.3,0,8.5,0,12.7,0c-0.1-0.8-0.3-1.6-0.4-2.5c-6,0-11.9,0-17.6,0c0.1,1.9,0.2,3.8,0.3,5.7c0,3.7,0,7.4,0,11.1
				c0,1.7-0.1,3.5-0.2,5.3c5.8,0,11.8,0,17.8,0c0.1-0.8,0.2-1.6,0.3-2.4c-4.4,0-8.6,0-12.8,0c0-2.6,0-5.1,0-7.6c4,0,7.9,0,11.8,0
				c0-0.9,0-1.7,0-2.5c-4,0-7.9,0-11.8,0C204.8,191,204.8,188.6,204.8,186.3z M235.5,203.5c0-2.6,0-5.1,0-7.6c4,0,7.9,0,11.8,0
				c0-0.9,0-1.7,0-2.5c-4,0-7.9,0-11.8,0c0-2.4,0-4.8,0-7c4.3,0,8.5,0,12.7,0c-0.1-0.8-0.3-1.7-0.4-2.5c-6,0-11.9,0-17.8,0
				c0.9,3.7,0.4,7.4,0.4,11c0,3.7,0.4,7.4-0.4,11.1c6,0,12,0,18.1,0c0.1-0.8,0.2-1.6,0.3-2.4C243.9,203.5,239.7,203.5,235.5,203.5z
				 M313.5,284.6c0.7,1.3,1.7,1.4,3,1.4c4.4-0.1,8.8,0,13.2,0c0.3,0,0.7,0,1.1-0.1c0-6.2,0-12.3,0-18.5c-0.8,0.2-1.5,0.5-2.3,0.7
				c0,5.2,0,10.4,0,15.6c-1.4,0-2.6,0-3.9,0c0.1-1.9-0.8-3.4-2.3-4.3c-1.4-0.7-3-1.1-4.4-1.6c-1.3-0.5-2.1,0.1-2.7,1.2
				c-0.7,1-1.6,1.9-2.3,3c-1.1,1.8-2.7,2.1-4.7,1.7c0-2,0-3.9,0-5.9c-2.2,0.4-2.2,0.4-2.2,2.3c0,1.7,0,3.3,0,5c0,1.6,0,3.2,0,4.7
				c0,1-0.3,2-1.4,2.4c-0.5,0.2-1,0.2-1.5,0.3c0.8,1.9,0.8,1.9,2.1,1.5c2.3-0.7,3-1.7,3-4.1c0-1.3,0-2.5,0-3.8
				C312.4,285.9,312.1,285.6,313.5,284.6z M300.9,286c-0.2-1-0.1-2-0.5-2.6c-2.8-3.3-5.6-6.5-8.5-9.7c-0.6-0.7-0.4-0.9,0.2-1.1
				c2-0.7,3.9-1.4,5.9-2c2-0.6,2-0.6,1.8-2.6c0,0,0-0.1-0.1-0.2c-0.3,0.1-0.5,0.1-0.8,0.2c-2.6,0.8-5.2,1.7-7.8,2.5
				c-1.1,0.3-1.5,0.8-1.5,2c0,1.3,0.3,2.2,1.2,3.2c1.8,1.9,3.5,3.9,5.2,5.8c0.6,0.7,1.2,1.4,1.9,2.2c-4.1,0-7.9,0-11.9,0
				c0-2,0-4,0-6.1c-0.8,0.2-1.5,0.5-2.2,0.7c0,3.7,0,7.3,0,10.9c0,2.2-0.4,2.6-2.4,3.2c-0.2,0.1-0.4,0.1-0.9,0.1
				c0.6,0.7,0.9,1.5,1.4,1.6c1.9,0.4,3.9-1.5,3.9-3.4c0-1.6,0-3.1,0-4.7C290.9,286,295.8,286,300.9,286z M111.1,183.8
				c0.1,1.9,0.2,3.9,0.3,5.8c0,3.6,0,7.1,0,10.7c0,1.8-0.1,3.7-0.2,5.6c1.8,0,3.7,0,5.6,0c-0.1-1-0.3-1.8-0.3-2.7
				c0-4.9,0-9.8,0-14.7c0-1.5,0.2-3.1,0.3-4.6C114.9,183.8,112.9,183.8,111.1,183.8z M107,292.3c0.7,2.1,0.7,2.1,2.7,2.1
				c0.9,0,1.8,0.1,2.7,0c2.1-0.2,3.2-0.8,3.8-2.4c0.3-0.9,0.4-1.8,0.4-2.8c0-4.6,0-9.3,0-13.9c0-0.4,0-0.8,0-1.2c-1.7,0-3.3,0-4.9,0
				c-0.4,0-0.7,0-1.1,0c-1.8,0.2-3.5,1.6-3.6,3.3c-0.1,2.9,0,5.7,0,8.7c0.7,0,1.4,0.1,2.1,0c1.8-0.2,3.8,0.8,5.2-1.6
				c0,2.1,0,3.8,0,5.6c0,1.8-0.5,2.3-2.3,2.3C110.4,292.3,108.7,292.3,107,292.3z M133.8,283.8c0-4,0-7.9,0-11.9
				c-0.8,0.3-1.5,0.5-2.2,0.7c0,0.4,0,0.8,0,1.1c-1.2,0.1-2.3,0.2-3.4,0.3c-1.4,0.2-3.1,1.6-3.1,3c-0.1,2.2,0,4.5,0,6.8
				c2.2-0.4,4.7,0.9,6.6-1.7c0,1.6,0,2.7,0,3.8c4.4,0,8.7,0,12.9,0c0-2.6,0-5.2,0-7.8c-0.3,0.1-0.6,0.1-0.8,0.2
				c-1.1,0.2-1.5,0.7-1.3,1.9c0.1,1.2,0,2.4,0,3.6C139.6,283.8,136.8,283.8,133.8,283.8z M206.3,281.8c-0.7,0.3-1.7,0.3-2,0.9
				c-0.4,0.7-0.6,1.7-0.4,2.5c0.9,5.2,5.8,8.3,11,6.4c3.8-1.4,5.5-5.7,4.9-10.2c-2,0-4,0-6,0c0-0.7,0-1.4,0-2c0-0.4,0-0.8,0-1.2
				c0-1.6,1-2,2.7-2.1c1.1-0.1,2.2,0,3.3,0c-0.2-0.8-0.4-1.4-0.6-2c-1.3,0-2.6,0-3.9,0c-1.5,0-3.3,1.2-3.5,2.6
				c-0.2,2.3-0.1,4.6-0.1,6.9c1.8,0,3.7,0,5.7,0c0.2,2.6-0.7,4.6-2.9,5.8c-2,1-4.2,1.1-6.1-0.4C206.3,287.2,205.6,284.9,206.3,281.8
				z M257,277.7c-0.3,0.1-0.5,0.1-0.8,0.2c-1.2,0.1-1.5,0.8-1.5,2c0.1,3.1,0,6.2,0,9.3c0,2.5-0.2,2.7-2.5,3.3c-0.1,0-0.3,0-0.7,0.1
				c0.5,0.7,0.9,1.5,1.4,1.6c1.2,0.3,3.3-1,3.7-2.2c0.2-0.6,0.3-1.3,0.3-2c0-1.3,0-2.6,0-4c2.1,0,4.1,0,6.1,0c0-6.2,0-12.3,0-18.4
				c-0.3,0.1-0.6,0.1-0.8,0.2c-1,0.2-1.4,0.7-1.4,1.8c0.1,3.6,0,7.3,0,10.9c0,1.1,0,2.2,0,3.3c-1.4,0-2.6,0-3.9,0
				C257,281.7,257,279.7,257,277.7z M249.7,278.1c-1.9,0.2-2.2,0.5-2.2,2.2c0,1.1,0,2.3,0,3.4c-2.9,0-5.7,0-8.6,0
				c0-5.4,0-10.8,0-16.3c-0.5,0.2-0.9,0.4-1.4,0.4c-0.8,0-0.9,0.4-0.9,1.1c0,5.1,0,10.2,0,15.2c0,0.4,0.2,0.7,0.4,1.1
				c0.4,0.6,0.9,0.8,1.7,0.8c3.6,0,7.3,0,10.9,0C249.7,283.3,249.7,280.7,249.7,278.1z M113.7,228.1c-3.6-0.5-6.6,3.1-6.6,6.4
				c0,3.7,2.9,6.6,6.7,6.6c3.8,0,6.6-2.8,6.6-6.6C120.4,230.7,117.7,228.1,113.7,228.1z M292,237.3c-0.1,0-0.2,0.1-0.2,0.1
				c-2.7-3.1-5.4-6.1-8-9.2c-0.1,0-0.2,0.1-0.2,0.1c0,4.2,0,8.3,0,12.5c0.5,0,0.9,0,1.4,0c0-3.1,0-6.1,0-9.3
				c2.8,3.2,5.5,6.3,8.4,9.6c0-4.5,0-8.6,0-12.8c-0.4,0-0.8,0-1.3,0C292,231.4,292,234.4,292,237.3z M233.6,285.9c0-3,0-5.9,0-8.8
				c0-2.3-0.9-3.3-2.9-3.9c-0.5-0.1-1.1-0.2-1.7-0.2c-0.3,0.6-0.7,1.1-1.1,1.8c0.4,0,0.6,0.1,0.9,0.1c1.7,0,2.4,0.5,2.5,2.2
				c0.1,2.2,0,4.4,0,6.7c-2.1,0-4.3,0-6.4,0c-2.1,0-2.1,0-2.8,2.1C226,285.9,229.7,285.9,233.6,285.9z M167.9,237.4
				c-0.3-0.2-0.5-0.4-0.7-0.6c-0.8-0.8-1.6-1.6-2.3-2.5c2-2.1,2.5-3.6,1.5-4.6c-1-1.1-3.1-1.2-4.2-0.3c-1.3,1-1.2,1.7,0.6,4.6
				c-0.8,0.8-1.6,1.6-2.3,2.5c-0.7,1-0.8,2.1-0.2,3.2c0.6,1.1,1.6,1.4,2.8,1.5c1.9,0.1,3.3-0.9,4.9-2c0.4,0.5,0.8,1.2,1.3,1.5
				c0.5,0.3,1.2,0.3,1.8,0.4c0-0.1,0.1-0.2,0.1-0.4c-0.8-0.7-1.6-1.4-2.4-2.1c0.6-0.5,1.1-0.9,1.6-1.4c-0.3-0.3-0.6-0.6-0.9-0.9
				C168.9,236.6,168.4,236.9,167.9,237.4z M187.7,228.3c0,4.4,0,8.5,0,12.6c1.7,0,3.3,0.1,4.9,0c3-0.2,4.7-1.6,5.3-4.2
				c0.2-0.8,0.1-1.7,0.1-2.5c0-2.8-1.7-5.1-4.4-5.5C191.7,228.3,189.7,228.4,187.7,228.3z M70.6,240.8c-1.5-1.9-2.9-3.8-4.4-5.7
				c0.6,0,1-0.1,1.4-0.1c1.9-0.3,2.6-1.3,2.6-3.9c0-1.3-1-2.5-2.5-2.6c-1.7-0.2-3.5,0-5.2,0c0,4.2,0,8.3,0,12.4c0.4,0,0.8,0,1.3,0
				c0-2,0-3.9,0-6.1c0.5,0.4,0.8,0.5,1,0.8c1.2,1.5,2.4,2.9,3.4,4.5C68.9,240.9,69.6,241.1,70.6,240.8z M331.3,235.1
				c0.6-0.1,1-0.1,1.5-0.1c1.9-0.3,2.7-1.5,2.6-3.9c0-1.4-1.2-2.6-2.7-2.7c-1.6-0.1-3.3,0-4.9,0c0,4.2,0,8.4,0,12.5
				c0.4,0,0.8,0,1.3-0.1c0-2,0-3.9,0-6.2c0.5,0.5,0.8,0.7,1.1,1c1.1,1.4,2.3,2.9,3.4,4.4c0.6,0.8,1.3,1,2.3,0.7
				C334.2,238.9,332.8,237.1,331.3,235.1z M267.1,268.1c0,6,0,11.9,0,17.8c0.7,0,1.4,0,2.1,0c0-6.2,0-12.2,0-18.5
				C268.5,267.7,267.8,267.9,267.1,268.1z M261.9,230.7c-1.4-2.4-5-3.2-7.9-2.3c-2.9,0.9-4.5,3.5-4.5,6.3c0,3,2.3,5.7,5.2,6.5
				c2.5,0.6,6-0.6,7.2-2.6c-0.3-0.2-0.6-0.5-0.9-0.7c-3,3-6.3,2.6-8.5,0.4c-1.9-1.9-1.9-5.2-0.1-7.2c2.2-2.4,5.6-2.3,8.6,0.4
				C261.3,231.2,261.6,230.9,261.9,230.7z M95.6,267.5c-0.3,0.1-0.6,0.2-0.8,0.2c-1.3,0.1-1.4,0.8-1.4,1.9c0.1,5.1,0,10.2,0,15.3
				c0,0.3,0,0.7,0,1.1c0.8,0,1.5,0,2.2,0C95.6,279.8,95.6,273.7,95.6,267.5z M336.9,285.9c0-6.2,0-12.3,0-18.5
				c-0.3,0.1-0.6,0.2-0.8,0.2c-1.3,0-1.4,0.8-1.4,1.9c0,5.1,0,10.2,0,15.3c0,0.3,0,0.7,0,1.1C335.5,285.9,336.2,285.9,336.9,285.9z
				 M276.4,228.4c-2.4,0-4.8,0-7.1,0c0,4.2,0,8.3,0,12.4c2.4,0,4.8,0,7.1,0c0-0.5,0-0.8,0-1.3c-2,0-3.9,0-5.8,0c0-1.6,0-3.1,0-4.8
				c2,0,3.9,0,5.8,0c0-0.5,0-0.8,0-1.3c-2,0-3.9,0-5.8,0c0-1.3,0-2.5,0-3.8c2,0,3.9,0,5.8,0C276.4,229.2,276.4,228.8,276.4,228.4z
				 M313.5,228.4c0,4.2,0,8.3,0,12.5c2.4,0,4.7,0,7.1,0c0-0.4,0-0.8,0-1.3c-2,0-3.8,0-5.8,0c0-1.7,0-3.2,0-4.9c2,0,3.9,0,5.8,0
				c0-0.5,0-0.8,0-1.3c-2,0-3.9,0-5.8,0c0-1.3,0-2.5,0-3.8c2,0,3.9,0,5.8,0c0-0.5,0-0.8,0-1.2C318.2,228.4,315.9,228.4,313.5,228.4z
				 M41.1,228.4c0,2.4,0,4.8,0,7.2c0,0.7,0,1.4-0.1,2.1c-0.3,1.5-1.4,2.3-2.9,2.2c-1.5-0.1-2.6-1-2.6-2.6c-0.1-1.5,0-3.1,0-4.6
				c0-1.4,0-2.8,0-4.3c-0.5,0-0.9,0-1.3,0c0,3.2-0.1,6.3,0,9.4c0.1,1.8,1.7,3.2,3.6,3.4c2.2,0.2,3.9-0.9,4.4-2.8
				c0.1-0.5,0.1-0.9,0.1-1.4c0-2.8,0-5.7,0-8.6C41.9,228.4,41.6,228.4,41.1,228.4z M214.2,228.4c0,4.2,0,8.3,0,12.5
				c2.4,0,4.7,0,7.1,0c0-0.5,0-0.8-0.1-1.3c-2,0-4,0-5.9,0c0-1.6,0-3.2,0-4.8c2,0,3.9,0,5.9,0c0-0.5,0-0.9,0-1.3c-2,0-3.9,0-5.9,0
				c0-1.3,0-2.5,0-3.8c2,0,4,0,6,0c0-0.5,0-0.8,0-1.2C218.9,228.4,216.6,228.4,214.2,228.4z M48.9,228.4c-0.2,1,0.1,1.4,1,1.3
				c0.6-0.1,1.2,0,1.8,0c0,3.8,0,7.5,0,11.2c0.5,0,0.9,0,1.4,0c0-3.7,0-7.4,0-11.2c0.6,0,1.1,0,1.5,0c1.2,0,1.3-0.1,1-1.3
				C53.5,228.4,51.2,228.4,48.9,228.4z M92.3,228.4c-2.3,0-4.5,0-6.8,0c0,0.5,0,0.8,0.1,1.3c0.9,0,1.8,0,2.8,0c0,3.8,0,7.4,0,11.1
				c0.5,0,0.9,0,1.4,0c0-3.7,0-7.4,0-11.1C92.4,229.5,92.4,229.5,92.3,228.4z M302.8,229.7c0,3.8,0,7.5,0,11.2c0.5,0,0.8,0,1.3,0
				c0-3.7,0-7.4,0-11.2c0.7,0,1.2,0,1.7,0c1.1,0.1,1.2-0.5,1-1.3c-2.3,0-4.6,0-6.9,0c0,0.5,0,0.8,0,1.3
				C300.9,229.7,301.7,229.7,302.8,229.7z M229.9,230c0,3.5,0,7.2,0,10.9c0.5,0,0.8,0,1.3,0c0-3.7,0-7.4,0-11.2c0.7,0,1.2,0,1.7,0
				c1.1,0.1,1.3-0.4,1-1.3c-2.3,0-4.6,0-7,0C227.1,230.8,228.9,229.1,229.9,230z M98.8,228.4c0,4.2,0,8.4,0,12.5c0.4,0,0.8,0,1.2,0
				c0-4.2,0-8.4,0-12.5C99.6,228.4,99.2,228.4,98.8,228.4z M79,240.9c0-4.2,0-8.4,0-12.5c-0.4,0-0.8,0-1.2,0c0,4.2,0,8.4,0,12.5
				C78.3,240.9,78.6,240.9,79,240.9z M205.2,240.8c0.5,0,0.9,0,1.2,0c0-4.2,0-8.3,0-12.5c-0.5,0-0.8,0-1.2,0.1
				C205.2,232.6,205.2,236.7,205.2,240.8z M149.3,270.9c0.9,0,1.8,0,2.8,0c0-0.7,0-1.4,0-2.1c-0.9,0-1.8,0-2.8,0
				C149.3,269.5,149.3,270.2,149.3,270.9z M127.8,268.6c-1,0-2,0-3,0c0,0.7,0,1.3,0,1.9c1,0,2,0,3,0
				C127.8,269.8,127.8,269.3,127.8,268.6z M26.3,276.8c-1.1,0-2,0-3,0c0,0.7,0,1.3,0,1.9c1,0,2,0,3,0
				C26.3,278,26.3,277.4,26.3,276.8z M178,273.9c-1,0-1.9,0-2.8,0c0,0.7,0,1.3,0,1.9c1,0,1.8,0,2.8,0C178,275.1,178,274.5,178,273.9
				z M182.1,275.8c0-0.7,0-1.3,0-1.9c-1,0-1.8,0-2.8,0c0,0.7,0,1.3,0,1.9C180.3,275.8,181.2,275.8,182.1,275.8z M168,272.3
				c0-0.7,0-1.3,0-1.9c-1,0-1.9,0-2.7,0c0,0.7,0,1.3,0,1.9C166.2,272.3,167.1,272.3,168,272.3z M129.2,270.5c1,0,1.9,0,2.8,0
				c0-0.6,0-1.3,0-1.9c-1,0-1.9,0-2.8,0C129.2,269.3,129.2,269.8,129.2,270.5z M22.1,278.7c0-0.7,0-1.3,0-1.9c-1,0-1.9,0-2.7,0
				c0,0.7,0,1.3,0,1.9C20.3,278.7,21.2,278.7,22.1,278.7z M283.1,273.4c0,0.7,0,1.3,0,1.9c1,0,1.9,0,2.8,0c0-0.7,0-1.2,0-1.9
				C285,273.4,284.1,273.4,283.1,273.4z M40.3,290.3c0.9,0,1.8,0,2.8,0c0-0.6,0-1.3,0-1.9c-0.9,0-1.8,0-2.8,0
				C40.3,289.1,40.3,289.7,40.3,290.3z M47.1,288.5c-1,0-1.9,0-2.8,0c0,0.7,0,1.3,0,1.8c1,0,1.9,0,2.8,0
				C47.1,289.7,47.1,289.1,47.1,288.5z M139.8,288.5c-1,0-1.9,0-2.8,0c0,0.7,0,1.3,0,1.8c1,0,1.9,0,2.8,0
				C139.8,289.7,139.8,289.1,139.8,288.5z M144,288.5c-1,0-1.9,0-2.8,0c0,0.7,0,1.3,0,1.8c1,0,1.9,0,2.8,0
				C144,289.7,144,289.1,144,288.5z M244.9,288.5c-1,0-1.9,0-2.8,0c0,0.7,0,1.3,0,1.8c1,0,1.9,0,2.8,0
				C244.9,289.7,244.9,289.1,244.9,288.5z M246.3,288.4c0,0.7,0,1.3,0,1.9c0.9,0,1.8,0,2.8,0c0-0.7,0-1.3,0-1.9
				C248.1,288.4,247.2,288.4,246.3,288.4z M208.3,295.2c1,0,1.9,0,2.8,0c0-0.7,0-1.3,0-1.8c-1,0-1.9,0-2.8,0
				C208.3,294,208.3,294.6,208.3,295.2z M215.3,293.3c-0.9,0-1.8,0-2.8,0c0,0.6,0,1.2,0,1.9c0.9,0,1.8,0,2.8,0
				C215.3,294.6,215.3,294,215.3,293.3z"/>
			<path class="st14" d="M336.7,200.9c0.1,0,0.1,0,0.2,0c-0.1-0.4-0.1-0.6-0.1-0.7c-0.5-1.4-1-2.9-1.6-4.3
				c-3.7-8.7-9-16.2-15.2-23.3c-7.8-8.9-17.1-15.4-28.1-19.7c-4.9-1.9-10-3.3-15.2-4.2c-2.5-0.4-5.1-0.9-7.6-1.3
				c-1.9-0.3-3.9-0.3-5.9-0.5c-2.9-0.2-5.8-0.5-8.8-0.5c-6.7-0.1-13.3,0.1-19.9,1c-3.3,0.4-6.6,0.6-9.9,1.2
				c-6.5,1.2-13.1,2.4-19.6,3.9c-6.3,1.4-12.6,3.2-18.7,5.6c-5.2,2-10.6,2.5-16.1,1.5c-3-0.6-5.8-1.8-8.7-2.7
				c-5.6-1.6-11.2-3.2-16.9-4.6c-4.9-1.2-9.9-2.2-14.9-3.1c-3.6-0.7-7.3-1.1-10.9-1.6c-1.8-0.2-3.7-0.3-5.5-0.4
				c-2.6-0.2-5.2-0.6-7.8-0.6c-5,0-10.1,0.1-15.1,0.2c-2.6,0.1-5.3,0.2-7.9,0.6c-4.8,0.8-9.6,1.5-14.2,2.7
				c-8.5,2.1-16.4,5.5-23.6,10.4c-5.3,3.6-9.8,7.9-14,12.7c-6.4,7.3-11.7,15.3-15.3,24.3c0,0-0.3,0.7-0.6,1.6
				c-0.2,0.7-0.5,1.3-0.6,1.7c0,0,0.1,0,0.1,0c-0.1,0-0.1,0.1-0.1,0.1c-0.1,40.2-0.1,63.8-0.2,77.3c0,9.3,7.6,16.9,16.9,16.9H320
				c9.3,0,16.9-7.6,16.9-16.9v-77.2C336.9,201,336.8,200.9,336.7,200.9z"/>
			<path class="st14" d="M286.9,12.7c-0.5,4.5-0.9,9-1.6,13.5c-0.7,4.8-1.4,9.6-2.4,14.4c-3.1,13.9-7.9,27.1-15.8,39.1
				c-3.5,5.2-7.6,9.8-12.2,14c-6.8,6.3-13.9,12.2-21.6,17.5c-10,6.8-20.4,12.8-32,16.3c-10.9,3.4-19.3,9.7-25.4,19.6
				c-0.1-0.6-0.6-13.6-0.2-19.5c1-18.1,4.3-35.7,11.9-52.3c4.5-9.9,10.3-18.8,18-26.5c9.8-9.7,21.5-16.3,34.8-20
				c4.3-1.2,8.7-1.9,13.1-2.7c9-1.6,17.9-3.3,26.1-7.5c2.8-1.5,5.3-3.2,6.9-6.1C286.6,12.6,286.7,12.7,286.9,12.7z"/>
		</g>
		<g>
			<path class="st2" d="M14,281.1c0-89.6,0-179.2,0-268.9c107.7,0,215.4,0,323.1,0c0,94.4,0,188.8,0,283.2c-107.7,0-215.4,0-323.1,0
				c0-3.5,0-7,0-10.6c0.7,0.9,1.6,1.2,2.7,1.1c2.8-0.1,5.7,0,8.5,0c2.2,0,4.3,0,6.5,0c0-2.7,0-5.3,0-8c-0.8,0.3-1.5,0.5-2.3,0.7
				c0,1.8,0,3.4,0,5c-4.4,0-8.8,0-13.2,0c0-1.1,0-2.1,0-3C15.4,280.8,14.7,281,14,281.1z M129.1,231.9c0.1,0,0.1-0.1,0.2-0.1
				c2.7,3,5.4,6.1,8.3,9.4c0-4.5,0-8.6,0-12.9c-0.4,0-0.8,0-1.3,0.1c0,3.1,0,6.1,0,9.4c-2.9-3.3-5.6-6.4-8.3-9.5
				c-0.1,0.1-0.2,0.1-0.2,0.2c0,4.1,0,8.3,0,12.5c0.4,0,0.8,0,1.3,0C129.1,237.8,129.1,234.9,129.1,231.9z M24.6,237.4
				c-2.7-3.1-5.3-6.1-8-9.2c-0.1,0-0.2,0.1-0.2,0.1c0,4.2,0,8.3,0,12.5c0.4,0,0.8,0,1.4,0c0-3.1,0-6.1,0-9.3
				c2.9,3.3,5.5,6.3,8.4,9.6c0-4.5,0-8.6,0-12.8c-0.4,0-0.8,0-1.3,0c0,3.1,0,6.1,0,9.2C24.8,237.5,24.7,237.5,24.6,237.4z M76.7,184
				c0.2,1.3,0.5,2.5,0.5,3.8c-0.1,6.1,0.3,12.1-0.2,18.1c1.9,0,3.8,0,5.9,0c-0.9-2.7-0.3-5.5-0.5-8.3c0.5,0,0.9,0,1.2,0
				c3.6,0,7.1,0.1,10.7,0c2.6-0.1,3.7-0.9,3.9-3.6c0.2-2.2,0.1-4.5,0-6.7c-0.1-2.4-1.4-3.5-3.8-3.5c-5.8,0-11.6,0-17.4,0
				C76.9,183.9,76.8,183.9,76.7,184z M183.4,202.3c-0.3-0.4-0.7-0.8-0.9-1.2c-3.5-5.5-7-10.9-10.6-16.4c-0.2-0.4-0.6-0.9-1-0.9
				c-2.2-0.1-4.4,0-6.4,0c0.1,1.8,0.3,3.4,0.3,5.1c0,5.6,0.2,11.3-0.1,16.9c0.9,0,2,0,2.8,0c-0.3-6.2-0.1-12.3,0-18.5
				c0.3,0.3,0.6,0.7,0.8,1c3.6,5.6,7.2,11.2,10.8,16.9c0.2,0.3,0.5,0.7,0.8,0.7c2,0.1,4,0,6.1,0c0-0.5,0-0.9,0-1.3
				c0-3.5-0.1-6.9,0-10.4c0.1-3.4-0.3-6.8,0.3-10.2c-1.1,0-2.2,0-3.4,0c0.2,0.7,0.5,1.4,0.5,2.1
				C183.4,191.5,183.4,196.9,183.4,202.3L183.4,202.3z M286.9,12.7c-0.1,0-0.3-0.1-0.4-0.1c-1.6,2.8-4.2,4.6-6.9,6.1
				c-8.2,4.3-17.1,5.9-26.1,7.5c-4.4,0.8-8.8,1.5-13.1,2.7c-13.3,3.6-25,10.2-34.8,20c-7.7,7.7-13.6,16.6-18,26.5
				c-7.5,16.6-10.8,34.2-11.9,52.3c-0.3,5.9-0.1,11.9,0,17.9c0,0.5,0.2,1,0.3,1.6c6.1-9.8,14.5-16.2,25.4-19.6
				c11.6-3.6,22-9.5,32-16.3c7.7-5.2,14.8-11.2,21.6-17.5c4.6-4.2,8.7-8.8,12.2-14c8-11.9,12.7-25.2,15.8-39.1
				c1-4.7,1.8-9.6,2.4-14.4C285.9,21.7,286.3,17.2,286.9,12.7z M335.3,200.9c-0.1-0.4-0.1-0.6-0.1-0.7c-0.5-1.4-1-2.9-1.6-4.3
				c-3.7-8.7-8.9-16.2-15.1-23.3c-7.7-8.9-17.1-15.4-28-19.7c-4.9-1.9-10-3.4-15.2-4.2c-2.5-0.4-5-0.9-7.6-1.3
				c-1.9-0.3-3.9-0.3-5.8-0.5c-2.9-0.2-5.8-0.5-8.7-0.5c-6.6-0.1-13.2,0.1-19.8,1c-3.3,0.4-6.6,0.6-9.8,1.2
				c-6.5,1.2-13,2.4-19.5,3.9c-6.3,1.4-12.5,3.2-18.6,5.6c-5.2,2-10.6,2.5-16,1.5c-3-0.6-5.8-1.8-8.7-2.7
				c-5.6-1.6-11.2-3.2-16.8-4.6c-4.9-1.2-9.8-2.2-14.8-3.1c-3.6-0.7-7.2-1.1-10.9-1.6c-1.8-0.2-3.6-0.3-5.5-0.4
				c-2.6-0.2-5.2-0.6-7.8-0.6c-5,0-10.1,0.1-15.1,0.2c-2.6,0.1-5.2,0.2-7.8,0.6c-4.7,0.8-9.5,1.5-14.2,2.7
				c-8.4,2.1-16.3,5.5-23.5,10.4c-5.2,3.6-9.7,7.9-13.9,12.7c-6.4,7.3-11.7,15.3-15.2,24.3c-0.4,1-0.7,2.1-1.2,3.5
				c10.2,0,20.1,0,30,0c0.3,0,0.7-0.3,0.8-0.6c3.6-8,8.8-14.8,15.2-20.8c6.6-6.1,14.1-10.8,22.4-14.1c8.6-3.4,17.7-5.1,26.9-5.6
				c3.7-0.2,7.5,0,11.2,0.2c2.6,0.1,5.3,0.3,7.9,0.7c3.3,0.4,6.5,0.9,9.7,1.6c3.3,0.7,6.5,1.8,9.6,2.8c4.2,1.3,8.4,2.6,12.5,4.1
				c3.5,1.3,7,2.3,10.7,2.7c2.3,0.2,4.6,0,6.9-0.2c4.1-0.3,8-1.2,11.8-2.7c9.4-3.5,18.8-6.8,28.7-8.2c3.5-0.5,7-0.9,10.5-1.1
				c4.5-0.1,8.9-0.1,13.4,0.2c3.6,0.2,7.2,1,10.8,1.5c5.1,0.8,10,2.4,14.7,4.3c9.3,3.8,17.4,9.3,24.3,16.5
				c5.2,5.5,9.5,11.6,12.4,18.3c5.1,0,10.1,0,15.2,0C325,200.9,330.1,200.9,335.3,200.9z M277.6,195.8c0.5,0,0.7-0.1,0.9-0.1
				c2.1-0.2,2.9-0.8,3.2-2.9c0.2-1.5,0.2-3,0.2-4.6c0-3.2-1.1-4.4-4.4-4.4c-5.3,0-10.7,0-16,0c-0.3,0-0.7,0-0.9,0
				c0.1,1.7,0.2,3.3,0.3,5c0,2.9,0.1,5.7,0,8.6c-0.1,2.8,0.4,5.7-0.5,8.5c2.1,0,4.1,0,6,0c-0.9-3.4-0.3-6.7-0.5-10.2
				c1.9,0,3.7,0,5.4,0c0.7,0,1,0.2,1.2,0.8c1.2,2.9,2.4,5.8,3.7,8.7c0.1,0.3,0.3,0.7,0.5,0.7c1.8,0.1,3.7,0,5.4,0
				C280.8,202.5,279.2,199.2,277.6,195.8z M182.8,283.7c0-2,0-3.8,0-5.8c-0.8,0.3-1.5,0.6-2.2,0.8c0,1.7,0,3.3,0,5c-3.1,0-6-0.1-9,0
				c-1.3,0-2.1-0.5-2.9-1.4c1-0.8,1.9-1.5,2.8-2.2c1-0.8,1.1-2.3,0.3-3.3c-2.3-2.8-8.2-2.9-10.5,0.5c-0.5,0.7-0.4,2,0.3,2.5
				c1.1,0.8,2.1,1.6,3.4,2.5c-0.8,0.5-1.4,1.1-2,1.2c-2,0.1-3.9,0.1-5.9,0.1c0-2.4,0-4.6,0-6.9c0-1.7-0.8-3-2.3-3.5
				c-0.6-0.2-1.5-0.6-2-0.3c-0.6,0.3-0.9,1.1-1.5,1.9c0.8,0,1.2,0,1.7,0c0.9,0.1,1.6,0.5,1.7,1.5c0.1,2.4,0,4.9,0,7.4
				c-2.3,0-4.7,0-7.2,0c-0.6,0-1,0.1-1.3,0.8c-0.2,0.5-0.4,0.9-0.7,1.4c6,0,11.8,0,17.6,0c0.8,0,1.6-0.5,2.3-0.9
				c0.5-0.3,0.9-0.7,1.3-1.1c0.3,0.3,0.6,0.4,0.8,0.7c1,1.1,2.3,1.5,3.8,1.4c7.5-0.1,15,0,22.5,0c0.4,0,0.8,0,1.2,0
				c0-6.2,0-12.3,0-18.5c-0.8,0.3-1.5,0.5-2.2,0.7c0,5.2,0,10.4,0,15.5c-1.3,0-2.5,0-3.9,0c0-5.4,0-10.8,0-16.2
				c-2.2,0.4-2.2,0.4-2.2,2.4c0,4.1,0,8.2,0,12.4c0,0.5,0,0.9,0,1.4C185.4,283.7,184.2,283.7,182.8,283.7z M140.7,205.9
				c0.2,0,0.4,0,0.7,0c2.4,0,4.8,0,7.2-0.1c1.5-0.1,2.6-1.1,2.8-2.4c0.1-1,0.2-1.9,0.2-2.9c0-3.6,0-7.1,0-10.7
				c0-1.1-0.1-2.2-0.2-3.2c-0.1-1.3-1.1-2.4-2.2-2.5c-0.7-0.1-1.5-0.2-2.3-0.2c-4.2,0-8.5,0-12.7,0c-0.6,0-1.2,0.1-1.7,0.2
				c-1.2,0.1-2.5,1.4-2.5,2.8c0,5.2-0.1,10.4,0,15.7c0,2.4,1.3,3.5,3.8,3.5C136,206,138.3,205.9,140.7,205.9z M53.2,284.5
				c0.8,1.5,2,1.5,3.4,1.5c10.6,0,21.1,0,31.7,0c0.4,0,0.8,0,1.2,0c0-6.2,0-12.3,0-18.5c-0.8,0.3-1.4,0.5-2.2,0.7
				c0,5.2,0,10.4,0,15.4c-2.5,0.7-4.5,0.1-5.8-2.3c-0.1-0.2-0.3-0.3-0.4-0.5c-1.9-2.1-4-4-6.7-5c-2.7-1-4-0.5-4.9,1.8
				c2.3-0.2,4.5,0,6.4,1.4c1.8,1.3,3.4,2.9,4.7,4.7c-5.5,0-10.8,0-16.2,0c0.2-2.3-1-3.7-2.8-4.6c-1.2-0.6-2.6-0.9-3.9-1.3
				c-1.4-0.5-2.1,0.2-2.8,1.2c-0.7,1.1-1.6,2-2.3,3.1c-1.2,1.8-2.8,1.8-4.6,1.5c0-1.9,0-3.7,0-5.6c-0.4,0.1-0.8,0.3-1.1,0.3
				c-0.9,0.1-1.3,0.5-1.2,1.5c0.1,1.3,0,2.6,0,3.9c-2.9,0-5.6,0-8.5,0c0-5.4,0-10.8,0-16.3c-0.6,0.2-1.2,0.3-1.6,0.5
				c-0.2,0.1-0.5,0.5-0.5,0.8c0,5.1,0,10.2,0,15.3c0,1.2,0.8,1.9,1.9,1.9c4.2,0,8.5,0,12.7,0C50.9,285.9,52.2,285.7,53.2,284.5z
				 M204.8,186.3c4.3,0,8.5,0,12.7,0c-0.1-0.8-0.3-1.6-0.4-2.5c-6,0-11.9,0-17.6,0c0.1,1.9,0.2,3.8,0.3,5.7c0,3.7,0,7.4,0,11.1
				c0,1.7-0.1,3.5-0.2,5.3c5.8,0,11.8,0,17.8,0c0.1-0.8,0.2-1.6,0.3-2.4c-4.4,0-8.6,0-12.8,0c0-2.6,0-5.1,0-7.6c4,0,7.9,0,11.8,0
				c0-0.9,0-1.7,0-2.5c-4,0-7.9,0-11.8,0C204.8,191,204.8,188.6,204.8,186.3z M235.5,203.5c0-2.6,0-5.1,0-7.6c4,0,7.9,0,11.8,0
				c0-0.9,0-1.7,0-2.5c-4,0-7.9,0-11.8,0c0-2.4,0-4.8,0-7c4.3,0,8.5,0,12.7,0c-0.1-0.8-0.3-1.7-0.4-2.5c-6,0-11.9,0-17.8,0
				c0.9,3.7,0.4,7.4,0.4,11c0,3.7,0.4,7.4-0.4,11.1c6,0,12,0,18.1,0c0.1-0.8,0.2-1.6,0.3-2.4C243.9,203.5,239.7,203.5,235.5,203.5z
				 M313.5,284.6c0.7,1.3,1.7,1.4,3,1.4c4.4-0.1,8.8,0,13.2,0c0.3,0,0.7,0,1.1-0.1c0-6.2,0-12.3,0-18.5c-0.8,0.2-1.5,0.5-2.3,0.7
				c0,5.2,0,10.4,0,15.6c-1.4,0-2.6,0-3.9,0c0.1-1.9-0.8-3.4-2.3-4.3c-1.4-0.7-3-1.1-4.4-1.6c-1.3-0.5-2.1,0.1-2.7,1.2
				c-0.7,1-1.6,1.9-2.3,3c-1.1,1.8-2.7,2.1-4.7,1.7c0-2,0-3.9,0-5.9c-2.2,0.4-2.2,0.4-2.2,2.3c0,1.7,0,3.3,0,5c0,1.6,0,3.2,0,4.7
				c0,1-0.3,2-1.4,2.4c-0.5,0.2-1,0.2-1.5,0.3c0.8,1.9,0.8,1.9,2.1,1.5c2.3-0.7,3-1.7,3-4.1c0-1.3,0-2.5,0-3.8
				C312.4,285.9,312.1,285.6,313.5,284.6z M300.9,286c-0.2-1-0.1-2-0.5-2.6c-2.8-3.3-5.6-6.5-8.5-9.7c-0.6-0.7-0.4-0.9,0.2-1.1
				c2-0.7,3.9-1.4,5.9-2c2-0.6,2-0.6,1.8-2.6c0,0,0-0.1-0.1-0.2c-0.3,0.1-0.5,0.1-0.8,0.2c-2.6,0.8-5.2,1.7-7.8,2.5
				c-1.1,0.3-1.5,0.8-1.5,2c0,1.3,0.3,2.2,1.2,3.2c1.8,1.9,3.5,3.9,5.2,5.8c0.6,0.7,1.2,1.4,1.9,2.2c-4.1,0-7.9,0-11.9,0
				c0-2,0-4,0-6.1c-0.8,0.2-1.5,0.5-2.2,0.7c0,3.7,0,7.3,0,10.9c0,2.2-0.4,2.6-2.4,3.2c-0.2,0.1-0.4,0.1-0.9,0.1
				c0.6,0.7,0.9,1.5,1.4,1.6c1.9,0.4,3.9-1.5,3.9-3.4c0-1.6,0-3.1,0-4.7C290.9,286,295.8,286,300.9,286z M111.1,183.8
				c0.1,1.9,0.2,3.9,0.3,5.8c0,3.6,0,7.1,0,10.7c0,1.8-0.1,3.7-0.2,5.6c1.8,0,3.7,0,5.6,0c-0.1-1-0.3-1.8-0.3-2.7
				c0-4.9,0-9.8,0-14.7c0-1.5,0.2-3.1,0.3-4.6C114.9,183.8,112.9,183.8,111.1,183.8z M107,292.3c0.7,2.1,0.7,2.1,2.7,2.1
				c0.9,0,1.8,0.1,2.7,0c2.1-0.2,3.2-0.8,3.8-2.4c0.3-0.9,0.4-1.8,0.4-2.8c0-4.6,0-9.3,0-13.9c0-0.4,0-0.8,0-1.2c-1.7,0-3.3,0-4.9,0
				c-0.4,0-0.7,0-1.1,0c-1.8,0.2-3.5,1.6-3.6,3.3c-0.1,2.9,0,5.7,0,8.7c0.7,0,1.4,0.1,2.1,0c1.8-0.2,3.8,0.8,5.2-1.6
				c0,2.1,0,3.8,0,5.6c0,1.8-0.5,2.3-2.3,2.3C110.4,292.3,108.7,292.3,107,292.3z M133.8,283.8c0-4,0-7.9,0-11.9
				c-0.8,0.3-1.5,0.5-2.2,0.7c0,0.4,0,0.8,0,1.1c-1.2,0.1-2.3,0.2-3.4,0.3c-1.4,0.2-3.1,1.6-3.1,3c-0.1,2.2,0,4.5,0,6.8
				c2.2-0.4,4.7,0.9,6.6-1.7c0,1.6,0,2.7,0,3.8c4.4,0,8.7,0,12.9,0c0-2.6,0-5.2,0-7.8c-0.3,0.1-0.6,0.1-0.8,0.2
				c-1.1,0.2-1.5,0.7-1.3,1.9c0.1,1.2,0,2.4,0,3.6C139.6,283.8,136.8,283.8,133.8,283.8z M206.3,281.8c-0.7,0.3-1.7,0.3-2,0.9
				c-0.4,0.7-0.6,1.7-0.4,2.5c0.9,5.2,5.8,8.3,11,6.4c3.8-1.4,5.5-5.7,4.9-10.2c-2,0-4,0-6,0c0-0.7,0-1.4,0-2c0-0.4,0-0.8,0-1.2
				c0-1.6,1-2,2.7-2.1c1.1-0.1,2.2,0,3.3,0c-0.2-0.8-0.4-1.4-0.6-2c-1.3,0-2.6,0-3.9,0c-1.5,0-3.3,1.2-3.5,2.6
				c-0.2,2.3-0.1,4.6-0.1,6.9c1.8,0,3.7,0,5.7,0c0.2,2.6-0.7,4.6-2.9,5.8c-2,1-4.2,1.1-6.1-0.4C206.3,287.2,205.6,284.9,206.3,281.8
				z M257,277.7c-0.3,0.1-0.5,0.1-0.8,0.2c-1.2,0.1-1.5,0.8-1.5,2c0.1,3.1,0,6.2,0,9.3c0,2.5-0.2,2.7-2.5,3.3c-0.1,0-0.3,0-0.7,0.1
				c0.5,0.7,0.9,1.5,1.4,1.6c1.2,0.3,3.3-1,3.7-2.2c0.2-0.6,0.3-1.3,0.3-2c0-1.3,0-2.6,0-4c2.1,0,4.1,0,6.1,0c0-6.2,0-12.3,0-18.4
				c-0.3,0.1-0.6,0.1-0.8,0.2c-1,0.2-1.4,0.7-1.4,1.8c0.1,3.6,0,7.3,0,10.9c0,1.1,0,2.2,0,3.3c-1.4,0-2.6,0-3.9,0
				C257,281.7,257,279.7,257,277.7z M249.7,278.1c-1.9,0.2-2.2,0.5-2.2,2.2c0,1.1,0,2.3,0,3.4c-2.9,0-5.7,0-8.6,0
				c0-5.4,0-10.8,0-16.3c-0.5,0.2-0.9,0.4-1.4,0.4c-0.8,0-0.9,0.4-0.9,1.1c0,5.1,0,10.2,0,15.2c0,0.4,0.2,0.7,0.4,1.1
				c0.4,0.6,0.9,0.8,1.7,0.8c3.6,0,7.3,0,10.9,0C249.7,283.3,249.7,280.7,249.7,278.1z M113.7,228.1c-3.6-0.5-6.6,3.1-6.6,6.4
				c0,3.7,2.9,6.6,6.7,6.6c3.8,0,6.6-2.8,6.6-6.6C120.4,230.7,117.7,228.1,113.7,228.1z M292,237.3c-0.1,0-0.2,0.1-0.2,0.1
				c-2.7-3.1-5.4-6.1-8-9.2c-0.1,0-0.2,0.1-0.2,0.1c0,4.2,0,8.3,0,12.5c0.5,0,0.9,0,1.4,0c0-3.1,0-6.1,0-9.3
				c2.8,3.2,5.5,6.3,8.4,9.6c0-4.5,0-8.6,0-12.8c-0.4,0-0.8,0-1.3,0C292,231.4,292,234.4,292,237.3z M233.6,285.9c0-3,0-5.9,0-8.8
				c0-2.3-0.9-3.3-2.9-3.9c-0.5-0.1-1.1-0.2-1.7-0.2c-0.3,0.6-0.7,1.1-1.1,1.8c0.4,0,0.6,0.1,0.9,0.1c1.7,0,2.4,0.5,2.5,2.2
				c0.1,2.2,0,4.4,0,6.7c-2.1,0-4.3,0-6.4,0c-2.1,0-2.1,0-2.8,2.1C226,285.9,229.7,285.9,233.6,285.9z M167.9,237.4
				c-0.3-0.2-0.5-0.4-0.7-0.6c-0.8-0.8-1.6-1.6-2.3-2.5c2-2.1,2.5-3.6,1.5-4.6c-1-1.1-3.1-1.2-4.2-0.3c-1.3,1-1.2,1.7,0.6,4.6
				c-0.8,0.8-1.6,1.6-2.3,2.5c-0.7,1-0.8,2.1-0.2,3.2c0.6,1.1,1.6,1.4,2.8,1.5c1.9,0.1,3.3-0.9,4.9-2c0.4,0.5,0.8,1.2,1.3,1.5
				c0.5,0.3,1.2,0.3,1.8,0.4c0-0.1,0.1-0.2,0.1-0.4c-0.8-0.7-1.6-1.4-2.4-2.1c0.6-0.5,1.1-0.9,1.6-1.4c-0.3-0.3-0.6-0.6-0.9-0.9
				C168.9,236.6,168.4,236.9,167.9,237.4z M187.7,228.3c0,4.4,0,8.5,0,12.6c1.7,0,3.3,0.1,4.9,0c3-0.2,4.7-1.6,5.3-4.2
				c0.2-0.8,0.1-1.7,0.1-2.5c0-2.8-1.7-5.1-4.4-5.5C191.7,228.3,189.7,228.4,187.7,228.3z M70.6,240.8c-1.5-1.9-2.9-3.8-4.4-5.7
				c0.6,0,1-0.1,1.4-0.1c1.9-0.3,2.6-1.3,2.6-3.9c0-1.3-1-2.5-2.5-2.6c-1.7-0.2-3.5,0-5.2,0c0,4.2,0,8.3,0,12.4c0.4,0,0.8,0,1.3,0
				c0-2,0-3.9,0-6.1c0.5,0.4,0.8,0.5,1,0.8c1.2,1.5,2.4,2.9,3.4,4.5C68.9,240.9,69.6,241.1,70.6,240.8z M331.3,235.1
				c0.6-0.1,1-0.1,1.5-0.1c1.9-0.3,2.7-1.5,2.6-3.9c0-1.4-1.2-2.6-2.7-2.7c-1.6-0.1-3.3,0-4.9,0c0,4.2,0,8.4,0,12.5
				c0.4,0,0.8,0,1.3-0.1c0-2,0-3.9,0-6.2c0.5,0.5,0.8,0.7,1.1,1c1.1,1.4,2.3,2.9,3.4,4.4c0.6,0.8,1.3,1,2.3,0.7
				C334.2,238.9,332.8,237.1,331.3,235.1z M267.1,268.1c0,6,0,11.9,0,17.8c0.7,0,1.4,0,2.1,0c0-6.2,0-12.2,0-18.5
				C268.5,267.7,267.8,267.9,267.1,268.1z M261.9,230.7c-1.4-2.4-5-3.2-7.9-2.3c-2.9,0.9-4.5,3.5-4.5,6.3c0,3,2.3,5.7,5.2,6.5
				c2.5,0.6,6-0.6,7.2-2.6c-0.3-0.2-0.6-0.5-0.9-0.7c-3,3-6.3,2.6-8.5,0.4c-1.9-1.9-1.9-5.2-0.1-7.2c2.2-2.4,5.6-2.3,8.6,0.4
				C261.3,231.2,261.6,230.9,261.9,230.7z M95.6,267.5c-0.3,0.1-0.6,0.2-0.8,0.2c-1.3,0.1-1.4,0.8-1.4,1.9c0.1,5.1,0,10.2,0,15.3
				c0,0.3,0,0.7,0,1.1c0.8,0,1.5,0,2.2,0C95.6,279.8,95.6,273.7,95.6,267.5z M336.9,285.9c0-6.2,0-12.3,0-18.5
				c-0.3,0.1-0.6,0.2-0.8,0.2c-1.3,0-1.4,0.8-1.4,1.9c0,5.1,0,10.2,0,15.3c0,0.3,0,0.7,0,1.1C335.5,285.9,336.2,285.9,336.9,285.9z
				 M276.4,228.4c-2.4,0-4.8,0-7.1,0c0,4.2,0,8.3,0,12.4c2.4,0,4.8,0,7.1,0c0-0.5,0-0.8,0-1.3c-2,0-3.9,0-5.8,0c0-1.6,0-3.1,0-4.8
				c2,0,3.9,0,5.8,0c0-0.5,0-0.8,0-1.3c-2,0-3.9,0-5.8,0c0-1.3,0-2.5,0-3.8c2,0,3.9,0,5.8,0C276.4,229.2,276.4,228.8,276.4,228.4z
				 M313.5,228.4c0,4.2,0,8.3,0,12.5c2.4,0,4.7,0,7.1,0c0-0.4,0-0.8,0-1.3c-2,0-3.8,0-5.8,0c0-1.7,0-3.2,0-4.9c2,0,3.9,0,5.8,0
				c0-0.5,0-0.8,0-1.3c-2,0-3.9,0-5.8,0c0-1.3,0-2.5,0-3.8c2,0,3.9,0,5.8,0c0-0.5,0-0.8,0-1.2C318.2,228.4,315.9,228.4,313.5,228.4z
				 M41.1,228.4c0,2.4,0,4.8,0,7.2c0,0.7,0,1.4-0.1,2.1c-0.3,1.5-1.4,2.3-2.9,2.2c-1.5-0.1-2.6-1-2.6-2.6c-0.1-1.5,0-3.1,0-4.6
				c0-1.4,0-2.8,0-4.3c-0.5,0-0.9,0-1.3,0c0,3.2-0.1,6.3,0,9.4c0.1,1.8,1.7,3.2,3.6,3.4c2.2,0.2,3.9-0.9,4.4-2.8
				c0.1-0.5,0.1-0.9,0.1-1.4c0-2.8,0-5.7,0-8.6C41.9,228.4,41.6,228.4,41.1,228.4z M214.2,228.4c0,4.2,0,8.3,0,12.5
				c2.4,0,4.7,0,7.1,0c0-0.5,0-0.8-0.1-1.3c-2,0-4,0-5.9,0c0-1.6,0-3.2,0-4.8c2,0,3.9,0,5.9,0c0-0.5,0-0.9,0-1.3c-2,0-3.9,0-5.9,0
				c0-1.3,0-2.5,0-3.8c2,0,4,0,6,0c0-0.5,0-0.8,0-1.2C218.9,228.4,216.6,228.4,214.2,228.4z M48.9,228.4c-0.2,1,0.1,1.4,1,1.3
				c0.6-0.1,1.2,0,1.8,0c0,3.8,0,7.5,0,11.2c0.5,0,0.9,0,1.4,0c0-3.7,0-7.4,0-11.2c0.6,0,1.1,0,1.5,0c1.2,0,1.3-0.1,1-1.3
				C53.5,228.4,51.2,228.4,48.9,228.4z M92.3,228.4c-2.3,0-4.5,0-6.8,0c0,0.5,0,0.8,0.1,1.3c0.9,0,1.8,0,2.8,0c0,3.8,0,7.4,0,11.1
				c0.5,0,0.9,0,1.4,0c0-3.7,0-7.4,0-11.1C92.4,229.5,92.4,229.5,92.3,228.4z M302.8,229.7c0,3.8,0,7.5,0,11.2c0.5,0,0.8,0,1.3,0
				c0-3.7,0-7.4,0-11.2c0.7,0,1.2,0,1.7,0c1.1,0.1,1.2-0.5,1-1.3c-2.3,0-4.6,0-6.9,0c0,0.5,0,0.8,0,1.3
				C300.9,229.7,301.7,229.7,302.8,229.7z M229.9,230c0,3.5,0,7.2,0,10.9c0.5,0,0.8,0,1.3,0c0-3.7,0-7.4,0-11.2c0.7,0,1.2,0,1.7,0
				c1.1,0.1,1.3-0.4,1-1.3c-2.3,0-4.6,0-7,0C227.1,230.8,228.9,229.1,229.9,230z M98.8,228.4c0,4.2,0,8.4,0,12.5c0.4,0,0.8,0,1.2,0
				c0-4.2,0-8.4,0-12.5C99.6,228.4,99.2,228.4,98.8,228.4z M79,240.9c0-4.2,0-8.4,0-12.5c-0.4,0-0.8,0-1.2,0c0,4.2,0,8.4,0,12.5
				C78.3,240.9,78.6,240.9,79,240.9z M205.2,240.8c0.5,0,0.9,0,1.2,0c0-4.2,0-8.3,0-12.5c-0.5,0-0.8,0-1.2,0.1
				C205.2,232.6,205.2,236.7,205.2,240.8z M149.3,270.9c0.9,0,1.8,0,2.8,0c0-0.7,0-1.4,0-2.1c-0.9,0-1.8,0-2.8,0
				C149.3,269.5,149.3,270.2,149.3,270.9z M127.8,268.6c-1,0-2,0-3,0c0,0.7,0,1.3,0,1.9c1,0,2,0,3,0
				C127.8,269.8,127.8,269.3,127.8,268.6z M26.3,276.8c-1.1,0-2,0-3,0c0,0.7,0,1.3,0,1.9c1,0,2,0,3,0
				C26.3,278,26.3,277.4,26.3,276.8z M178,273.9c-1,0-1.9,0-2.8,0c0,0.7,0,1.3,0,1.9c1,0,1.8,0,2.8,0C178,275.1,178,274.5,178,273.9
				z M182.1,275.8c0-0.7,0-1.3,0-1.9c-1,0-1.8,0-2.8,0c0,0.7,0,1.3,0,1.9C180.3,275.8,181.2,275.8,182.1,275.8z M168,272.3
				c0-0.7,0-1.3,0-1.9c-1,0-1.9,0-2.7,0c0,0.7,0,1.3,0,1.9C166.2,272.3,167.1,272.3,168,272.3z M129.2,270.5c1,0,1.9,0,2.8,0
				c0-0.6,0-1.3,0-1.9c-1,0-1.9,0-2.8,0C129.2,269.3,129.2,269.8,129.2,270.5z M22.1,278.7c0-0.7,0-1.3,0-1.9c-1,0-1.9,0-2.7,0
				c0,0.7,0,1.3,0,1.9C20.3,278.7,21.2,278.7,22.1,278.7z M283.1,273.4c0,0.7,0,1.3,0,1.9c1,0,1.9,0,2.8,0c0-0.7,0-1.2,0-1.9
				C285,273.4,284.1,273.4,283.1,273.4z M40.3,290.3c0.9,0,1.8,0,2.8,0c0-0.6,0-1.3,0-1.9c-0.9,0-1.8,0-2.8,0
				C40.3,289.1,40.3,289.7,40.3,290.3z M47.1,288.5c-1,0-1.9,0-2.8,0c0,0.7,0,1.3,0,1.8c1,0,1.9,0,2.8,0
				C47.1,289.7,47.1,289.1,47.1,288.5z M139.8,288.5c-1,0-1.9,0-2.8,0c0,0.7,0,1.3,0,1.8c1,0,1.9,0,2.8,0
				C139.8,289.7,139.8,289.1,139.8,288.5z M144,288.5c-1,0-1.9,0-2.8,0c0,0.7,0,1.3,0,1.8c1,0,1.9,0,2.8,0
				C144,289.7,144,289.1,144,288.5z M244.9,288.5c-1,0-1.9,0-2.8,0c0,0.7,0,1.3,0,1.8c1,0,1.9,0,2.8,0
				C244.9,289.7,244.9,289.1,244.9,288.5z M246.3,288.4c0,0.7,0,1.3,0,1.9c0.9,0,1.8,0,2.8,0c0-0.7,0-1.3,0-1.9
				C248.1,288.4,247.2,288.4,246.3,288.4z M208.3,295.2c1,0,1.9,0,2.8,0c0-0.7,0-1.3,0-1.8c-1,0-1.9,0-2.8,0
				C208.3,294,208.3,294.6,208.3,295.2z M215.3,293.3c-0.9,0-1.8,0-2.8,0c0,0.6,0,1.2,0,1.9c0.9,0,1.8,0,2.8,0
				C215.3,294.6,215.3,294,215.3,293.3z"/>
			<g>
				<path class="st3" d="M14,281.1c0.7-0.1,1.4-0.3,2.2-0.4c0,1,0,2,0,3c4.5,0,8.8,0,13.2,0c0-1.6,0-3.2,0-5
					c0.8-0.2,1.5-0.5,2.3-0.7c0,2.7,0,5.3,0,8c-2.2,0-4.3,0-6.5,0c-2.8,0-5.7-0.1-8.5,0c-1.1,0-2-0.2-2.7-1.1
					C14,283.6,14,282.4,14,281.1z"/>
				<path class="st4" d="M182.8,283.7c1.4,0,2.6,0,4,0c0-0.5,0-1,0-1.4c0-4.1,0-8.2,0-12.4c0-2,0-2,2.2-2.4c0,5.4,0,10.8,0,16.2
					c1.3,0,2.6,0,3.9,0c0-5.2,0-10.3,0-15.5c0.7-0.2,1.4-0.5,2.2-0.7c0,6.2,0,12.3,0,18.5c-0.4,0-0.8,0-1.2,0c-7.5,0-15,0-22.5,0
					c-1.5,0-2.8-0.3-3.8-1.4c-0.2-0.2-0.4-0.4-0.8-0.7c-0.4,0.4-0.8,0.8-1.3,1.1c-0.7,0.4-1.5,0.9-2.3,0.9c-5.8,0.1-11.6,0-17.6,0
					c0.3-0.5,0.6-1,0.7-1.4c0.2-0.6,0.6-0.8,1.3-0.8c2.4,0,4.8,0,7.2,0c0-2.5,0-5,0-7.4c0-0.9-0.8-1.3-1.7-1.5c-0.4-0.1-0.9,0-1.7,0
					c0.6-0.8,0.9-1.6,1.5-1.9c0.5-0.2,1.3,0.1,2,0.3c1.5,0.5,2.3,1.8,2.3,3.5c0,2.2,0,4.5,0,6.9c2,0,4,0.1,5.9-0.1
					c0.6,0,1.2-0.7,2-1.2c-1.2-0.9-2.3-1.7-3.4-2.5c-0.7-0.5-0.8-1.8-0.3-2.5c2.3-3.4,8.2-3.3,10.5-0.5c0.8,1,0.7,2.6-0.3,3.3
					c-0.9,0.7-1.9,1.4-2.8,2.2c0.8,0.9,1.7,1.4,2.9,1.4c3-0.1,6,0,9,0c0-1.7,0-3.3,0-5c0.7-0.3,1.4-0.5,2.2-0.8
					C182.8,279.9,182.8,281.8,182.8,283.7z M163.4,278.6c1,0.7,1.9,1.4,2.9,2.1c0.2,0.1,0.6,0.1,0.8,0c1-0.7,2-1.4,3-2.2
					C168.7,276.5,164.6,276.4,163.4,278.6z"/>
				<path class="st4" d="M53.2,284.5c-1.1,1.2-2.4,1.4-3.7,1.5c-4.2,0.1-8.5,0-12.7,0c-1.2,0-1.9-0.7-1.9-1.9c0-5.1,0-10.2,0-15.3
					c0-0.3,0.3-0.6,0.5-0.8c0.5-0.2,1-0.3,1.6-0.5c0,5.5,0,10.9,0,16.3c2.8,0,5.6,0,8.5,0c0-1.3,0.1-2.6,0-3.9
					c-0.1-1,0.2-1.4,1.2-1.5c0.3,0,0.7-0.2,1.1-0.3c0,1.9,0,3.7,0,5.6c1.9,0.3,3.5,0.2,4.6-1.5c0.7-1.1,1.6-2,2.3-3.1
					c0.7-1,1.4-1.8,2.8-1.2c1.3,0.5,2.7,0.7,3.9,1.3c1.8,0.9,3,2.4,2.8,4.6c5.4,0,10.7,0,16.2,0c-1.3-1.9-2.9-3.4-4.7-4.7
					c-1.9-1.4-4.1-1.6-6.4-1.4c0.9-2.4,2.2-2.8,4.9-1.8c2.7,1,4.8,2.9,6.7,5c0.1,0.2,0.3,0.3,0.4,0.5c1.2,2.4,3.2,2.9,5.8,2.3
					c0-5,0-10.2,0-15.4c0.8-0.3,1.4-0.5,2.2-0.7c0,6.2,0,12.3,0,18.5c-0.4,0-0.8,0-1.2,0c-10.6,0-21.1,0-31.7,0
					C55.2,286,54,286,53.2,284.5z M53.8,283.8c2.9,0,5.7,0,8.5,0c-0.2-0.5-0.3-1.1-0.6-1.5c-1-1.7-2.8-2.1-4.5-2.5
					c-0.2,0-0.5,0.2-0.7,0.4C55.7,281.3,54.8,282.5,53.8,283.8z"/>
				<path class="st5" d="M313.5,284.6c-1.4,1-1.2,1.3-5.5,1.4c0,1.3,0,2.5,0,3.8c0.1,2.5-0.6,3.5-3,4.1c-1.4,0.4-1.4,0.4-2.1-1.5
					c0.5-0.1,1-0.2,1.5-0.3c1.2-0.4,1.4-1.3,1.4-2.4c0-1.6,0-3.2,0-4.7c0-1.7,0-3.3,0-5c0-2,0-2,2.2-2.3c0,2,0,3.9,0,5.9
					c2,0.4,3.6,0.1,4.7-1.7c0.7-1,1.6-2,2.3-3c0.7-1,1.4-1.7,2.7-1.2c1.5,0.6,3.1,0.9,4.4,1.6c1.6,0.9,2.4,2.4,2.3,4.3
					c1.3,0,2.6,0,3.9,0c0-5.2,0-10.3,0-15.6c0.8-0.2,1.5-0.5,2.3-0.7c0,6.2,0,12.3,0,18.5c-0.4,0-0.7,0.1-1.1,0.1
					c-4.4,0-8.8,0-13.2,0C315.3,286,314.2,285.9,313.5,284.6z M314,283.8c2.9,0,5.7,0,8.5,0c-0.2-0.6-0.3-1.1-0.6-1.6
					c-1-1.6-2.7-2.1-4.5-2.4c-0.2,0-0.5,0.2-0.6,0.3C315.9,281.3,315,282.4,314,283.8z"/>
				<path class="st5" d="M300.9,286c-5.1,0-10,0-15,0c0,1.6,0,3.2,0,4.7c0,1.9-2,3.8-3.9,3.4c-0.5-0.1-0.9-1-1.4-1.6
					c0.5-0.1,0.7-0.1,0.9-0.1c2-0.5,2.4-1,2.4-3.2c0-3.6,0-7.2,0-10.9c0.7-0.2,1.4-0.4,2.2-0.7c0,2.1,0,4.1,0,6.1
					c3.9,0,7.8,0,11.9,0c-0.7-0.8-1.3-1.5-1.9-2.2c-1.7-2-3.4-4-5.2-5.8c-0.9-0.9-1.2-1.9-1.2-3.2c0-1.2,0.3-1.7,1.5-2
					c2.6-0.7,5.2-1.6,7.8-2.5c0.3-0.1,0.6-0.1,0.8-0.2c0.1,0.1,0.1,0.1,0.1,0.2c0.2,2,0.2,2-1.8,2.6c-2,0.6-4,1.3-5.9,2
					c-0.6,0.2-0.8,0.4-0.2,1.1c2.9,3.2,5.8,6.4,8.5,9.7C300.8,283.9,300.7,285,300.9,286z"/>
				<path class="st4" d="M107,292.3c1.7,0,3.3,0,5,0c1.8,0,2.3-0.6,2.3-2.3c0-1.7,0-3.4,0-5.6c-1.4,2.4-3.4,1.5-5.2,1.6
					c-0.7,0.1-1.4,0-2.1,0c0-2.9-0.1-5.8,0-8.7c0.1-1.6,1.8-3.1,3.6-3.3c0.4,0,0.7,0,1.1,0c1.6,0,3.2,0,4.9,0c0,0.5,0,0.8,0,1.2
					c0,4.6,0,9.3,0,13.9c0,0.9-0.1,1.9-0.4,2.8c-0.6,1.6-1.7,2.3-3.8,2.4c-0.9,0.1-1.8,0-2.7,0C107.7,294.4,107.7,294.4,107,292.3z
					 M114.2,283.7c0-2.5,0-5,0-7.5c-1.2,0-2.4,0-3.6,0c-0.8,0-1.4,0.5-1.5,1.3c-0.1,2,0,4.1,0,6.1
					C110.8,283.7,112.5,283.7,114.2,283.7z"/>
				<path class="st4" d="M133.8,283.8c3,0,5.7,0,8.6,0c0-1.2,0.1-2.5,0-3.6c-0.1-1.1,0.2-1.7,1.3-1.9c0.2,0,0.5-0.1,0.8-0.2
					c0,2.6,0,5.1,0,7.8c-4.2,0-8.5,0-12.9,0c0-1.1,0-2.2,0-3.8c-1.9,2.7-4.4,1.3-6.6,1.7c0-2.4-0.1-4.6,0-6.8c0.1-1.4,1.7-2.8,3.1-3
					c1.1-0.1,2.2-0.2,3.4-0.3c0-0.3,0-0.7,0-1.1c0.7-0.2,1.4-0.5,2.2-0.7C133.8,275.8,133.8,279.7,133.8,283.8z M131.7,276.2
					c-1.2,0-2.2-0.1-3.3,0c-0.4,0.1-1.1,0.6-1.1,1c-0.2,1.2-0.2,2.5-0.2,3.8c0,0.2,0.5,0.6,0.7,0.7c1,0.1,2,0,3,0c0.7,0,1-0.3,1-1
					C131.7,279.4,131.7,277.9,131.7,276.2z"/>
				<path class="st6" d="M206.3,281.8c-0.7,3.1,0,5.4,2.2,7.1c1.9,1.5,4,1.4,6.1,0.4c2.3-1.2,3.2-3.2,2.9-5.8c-1.9,0-3.8,0-5.7,0
					c0-2.4-0.1-4.7,0.1-6.9c0.1-1.4,2-2.5,3.5-2.6c1.3,0,2.6,0,3.9,0c0.2,0.6,0.4,1.2,0.6,2c-1.2,0-2.3-0.1-3.3,0
					c-1.7,0.1-2.7,0.5-2.7,2.1c0,0.4,0,0.8,0,1.2c0,0.6,0,1.2,0,2c2,0,4,0,6,0c0.6,4.5-1.1,8.8-4.9,10.2c-5.2,1.9-10.1-1.2-11-6.4
					c-0.1-0.8,0-1.8,0.4-2.5C204.6,282.2,205.6,282.1,206.3,281.8z"/>
				<path class="st4" d="M257,277.7c0,2.1,0,4,0,6c1.3,0,2.6,0,3.9,0c0-1.1,0-2.2,0-3.3c0-3.6,0.1-7.3,0-10.9c0-1.1,0.4-1.6,1.4-1.8
					c0.2,0,0.5-0.1,0.8-0.2c0,6.1,0,12.2,0,18.4c-2,0-3.9,0-6.1,0c0,1.4,0,2.7,0,4c0,0.7-0.1,1.4-0.3,2c-0.4,1.2-2.5,2.5-3.7,2.2
					c-0.5-0.1-0.8-1-1.4-1.6c0.4-0.1,0.6-0.1,0.7-0.1c2.3-0.6,2.5-0.9,2.5-3.3c0-3.1,0.1-6.2,0-9.3c0-1.2,0.2-1.9,1.5-2
					C256.5,277.8,256.7,277.7,257,277.7z"/>
				<path class="st3" d="M249.7,278.1c0,2.6,0,5.2,0,7.9c-3.7,0-7.3,0-10.9,0c-0.7,0-1.3-0.2-1.7-0.8c-0.2-0.3-0.4-0.7-0.4-1.1
					c0-5.1,0-10.2,0-15.2c0-0.6,0.1-1.1,0.9-1.1c0.4,0,0.8-0.2,1.4-0.4c0,5.4,0,10.8,0,16.3c2.9,0,5.7,0,8.6,0c0-1.2,0-2.3,0-3.4
					C247.5,278.6,247.8,278.3,249.7,278.1z"/>
				<path class="st4" d="M233.6,285.9c-3.9,0-7.6,0-11.4,0c0.7-2.1,0.7-2.1,2.8-2.1c2.1,0,4.2,0,6.4,0c0-2.3,0.1-4.5,0-6.7
					c-0.1-1.7-0.8-2.2-2.5-2.2c-0.3,0-0.5-0.1-0.9-0.1c0.4-0.7,0.8-1.3,1.1-1.8c0.6,0.1,1.2,0.1,1.7,0.2c2,0.5,2.8,1.6,2.9,3.9
					C233.6,280,233.6,282.9,233.6,285.9z"/>
				<path class="st3" d="M267.1,268.1c0.7-0.2,1.4-0.4,2.1-0.7c0,6.2,0,12.3,0,18.5c-0.7,0-1.4,0-2.1,0
					C267.1,280,267.1,274.1,267.1,268.1z"/>
				<path class="st3" d="M95.6,267.5c0,6.2,0,12.3,0,18.4c-0.7,0-1.4,0-2.2,0c0-0.3,0-0.7,0-1.1c0-5.1,0-10.2,0-15.3
					c0-1.1,0.1-1.8,1.4-1.9C95.1,267.7,95.3,267.6,95.6,267.5z"/>
				<path class="st3" d="M336.9,285.9c-0.7,0-1.4,0-2.2,0c0-0.4,0-0.7,0-1.1c0-5.1,0-10.2,0-15.3c0-1.1,0.1-1.9,1.4-1.9
					c0.2,0,0.5-0.1,0.8-0.2C336.9,273.6,336.9,279.7,336.9,285.9z"/>
				<path class="st3" d="M149.3,270.9c0-0.8,0-1.4,0-2.1c0.9,0,1.8,0,2.8,0c0,0.7,0,1.4,0,2.1C151.2,270.9,150.3,270.9,149.3,270.9z
					"/>
				<path class="st3" d="M127.8,268.6c0,0.7,0,1.3,0,1.9c-1,0-2,0-3,0c0-0.6,0-1.2,0-1.9C125.8,268.6,126.8,268.6,127.8,268.6z"/>
				<path class="st3" d="M26.3,276.8c0,0.6,0,1.2,0,1.9c-1,0-2,0-3,0c0-0.6,0-1.2,0-1.9C24.3,276.8,25.2,276.8,26.3,276.8z"/>
				<path class="st3" d="M178,273.9c0,0.6,0,1.2,0,1.9c-0.9,0-1.8,0-2.8,0c0-0.6,0-1.2,0-1.9C176.1,273.9,177,273.9,178,273.9z"/>
				<path class="st3" d="M182.1,275.8c-0.9,0-1.8,0-2.8,0c0-0.6,0-1.2,0-1.9c0.9,0,1.8,0,2.8,0C182.1,274.5,182.1,275.1,182.1,275.8
					z"/>
				<path class="st3" d="M168,272.3c-0.9,0-1.8,0-2.7,0c0-0.6,0-1.2,0-1.9c0.9,0,1.8,0,2.7,0C168,271,168,271.6,168,272.3z"/>
				<path class="st3" d="M129.2,270.5c0-0.7,0-1.2,0-1.9c0.9,0,1.8,0,2.8,0c0,0.6,0,1.2,0,1.9C131.1,270.5,130.2,270.5,129.2,270.5z
					"/>
				<path class="st3" d="M22.1,278.7c-0.9,0-1.8,0-2.7,0c0-0.6,0-1.2,0-1.9c0.9,0,1.8,0,2.7,0C22.1,277.3,22.1,277.9,22.1,278.7z"/>
				<path class="st3" d="M283.1,273.4c1,0,1.8,0,2.8,0c0,0.6,0,1.2,0,1.9c-0.9,0-1.8,0-2.8,0C283.1,274.7,283.1,274.1,283.1,273.4z"
					/>
				<path class="st3" d="M40.3,290.3c0-0.6,0-1.3,0-1.9c0.9,0,1.8,0,2.8,0c0,0.6,0,1.3,0,1.9C42.1,290.3,41.2,290.3,40.3,290.3z"/>
				<path class="st3" d="M47.1,288.5c0,0.6,0,1.2,0,1.8c-0.9,0-1.8,0-2.8,0c0-0.6,0-1.2,0-1.8C45.2,288.5,46.1,288.5,47.1,288.5z"/>
				<path class="st3" d="M139.8,288.5c0,0.6,0,1.2,0,1.8c-0.9,0-1.8,0-2.8,0c0-0.6,0-1.2,0-1.8C137.9,288.5,138.8,288.5,139.8,288.5
					z"/>
				<path class="st3" d="M144,288.5c0,0.6,0,1.2,0,1.8c-0.9,0-1.8,0-2.8,0c0-0.6,0-1.2,0-1.8C142.1,288.5,143,288.5,144,288.5z"/>
				<path class="st3" d="M244.9,288.5c0,0.6,0,1.2,0,1.8c-0.9,0-1.8,0-2.8,0c0-0.6,0-1.2,0-1.8C243,288.5,243.9,288.5,244.9,288.5z"
					/>
				<path class="st3" d="M246.3,288.4c1,0,1.8,0,2.8,0c0,0.6,0,1.2,0,1.9c-0.9,0-1.8,0-2.8,0C246.3,289.7,246.3,289.1,246.3,288.4z"
					/>
				<path class="st3" d="M208.3,295.2c0-0.6,0-1.2,0-1.8c0.9,0,1.8,0,2.8,0c0,0.6,0,1.2,0,1.8C210.2,295.2,209.2,295.2,208.3,295.2z
					"/>
				<path class="st3" d="M215.3,293.3c0,0.7,0,1.2,0,1.9c-0.9,0-1.8,0-2.8,0c0-0.6,0-1.2,0-1.9C213.4,293.3,214.4,293.3,215.3,293.3
					z"/>
			</g>
			<g>
				<path class="st7" d="M113.7,228.1c4,0,6.7,2.5,6.7,6.5c0,3.8-2.8,6.6-6.6,6.6c-3.8,0-6.6-2.9-6.7-6.6
					C107.1,231.3,110.1,227.6,113.7,228.1z M113.6,239.9c3.1,0.1,5.5-2,5.4-5.3c0-3.2-1.9-5.2-5.3-5.3c-2.8,0-4.9,2-5.2,5.2
					C108.3,237.1,110.9,240,113.6,239.9z"/>
				<path class="st8" d="M292,237.3c0-3,0-5.9,0-9c0.5,0,0.9,0,1.3,0c0,4.2,0,8.3,0,12.8c-2.9-3.3-5.6-6.4-8.4-9.6
					c0,3.2,0,6.2,0,9.3c-0.5,0-0.9,0-1.4,0c0-4.2,0-8.3,0-12.5c0.1,0,0.2-0.1,0.2-0.1c2.7,3.1,5.4,6.1,8,9.2
					C291.8,237.4,291.9,237.4,292,237.3z"/>
				<path class="st7" d="M167.9,237.4c0.6-0.4,1-0.8,1.5-1.2c0.3,0.3,0.6,0.6,0.9,0.9c-0.5,0.5-1,0.9-1.6,1.4
					c0.8,0.7,1.6,1.4,2.4,2.1c0,0.1-0.1,0.2-0.1,0.4c-0.6-0.1-1.3-0.1-1.8-0.4c-0.5-0.3-0.9-1-1.3-1.5c-1.6,1.2-3,2.1-4.9,2
					c-1.2-0.1-2.2-0.4-2.8-1.5c-0.6-1.1-0.5-2.2,0.2-3.2c0.7-0.9,1.5-1.7,2.3-2.5c-1.8-2.8-1.9-3.5-0.6-4.6c1.2-0.9,3.3-0.8,4.2,0.3
					c0.9,1.1,0.5,2.5-1.5,4.6c0.8,0.8,1.6,1.7,2.3,2.5C167.4,236.9,167.6,237.1,167.9,237.4z M163.6,234.9c-0.8,0.9-1.6,1.6-2.1,2.5
					c-0.2,0.4-0.1,1.3,0.2,1.7c0.4,0.5,1.3,1,1.8,0.8c1.2-0.3,2.2-1,3.4-1.6c-1.1-1.1-2-2.1-2.9-3.1
					C164,235.2,163.9,235.2,163.6,234.9z M164,233.3c0.6-0.7,1.1-1.2,1.4-1.8c0.4-0.7,0-1.3-0.8-1.4c-0.4,0-0.7,0-1.1,0
					c-1,0.1-1.2,0.7-0.7,1.5C163.1,232.2,163.5,232.7,164,233.3z"/>
				<path class="st8" d="M187.7,228.3c2,0.1,4,0,6,0.3c2.7,0.4,4.4,2.7,4.4,5.5c0,0.8,0.1,1.7-0.1,2.5c-0.6,2.6-2.4,4-5.3,4.2
					c-1.6,0.1-3.2,0-4.9,0C187.7,236.7,187.7,232.6,187.7,228.3z M188.8,239.7c1.5-0.1,2.9-0.1,4.2-0.3c2.5-0.4,3.6-2,3.7-4.5
					c0.1-2.9-1.7-4.6-3.4-4.9c-1.5-0.3-3-0.2-4.6-0.3C188.8,233,188.8,236.3,188.8,239.7z"/>
				<path class="st8" d="M24.8,237.5c0-3,0-6.1,0-9.2c0.5,0,0.9,0,1.3,0c0,4.2,0,8.3,0,12.8c-2.9-3.3-5.5-6.3-8.4-9.6
					c0,3.2,0,6.2,0,9.3c-0.5,0-0.9,0-1.4,0c0-4.2,0-8.3,0-12.5c0.1,0,0.2-0.1,0.2-0.1c2.7,3.1,5.3,6.1,8,9.2
					C24.7,237.5,24.8,237.5,24.8,237.5z"/>
				<path class="st8" d="M129.1,231.9c0,3,0,5.9,0,8.9c-0.5,0-0.9,0-1.3,0c0-4.2,0-8.3,0-12.5c0.1-0.1,0.2-0.1,0.2-0.2
					c2.7,3.1,5.4,6.2,8.3,9.5c0-3.2,0-6.2,0-9.4c0.5,0,0.9,0,1.3-0.1c0,4.2,0,8.4,0,12.9c-2.9-3.2-5.6-6.3-8.3-9.4
					c-0.1,0-0.1-0.1-0.2-0.1C129.1,231.8,129.1,231.9,129.1,231.9z"/>
				<path class="st8" d="M70.6,240.8c-1,0.3-1.7,0.1-2.3-0.7c-1.1-1.5-2.3-3-3.4-4.5c-0.2-0.3-0.6-0.4-1-0.8c0,2.2,0,4.1,0,6.1
					c-0.5,0-0.8,0-1.3,0c0-4.1,0-8.2,0-12.4c1.7,0,3.5-0.1,5.2,0c1.5,0.1,2.5,1.4,2.5,2.6c0,2.6-0.7,3.5-2.6,3.9
					c-0.4,0.1-0.8,0.1-1.4,0.1C67.7,237,69.1,238.9,70.6,240.8z M64,229.7c0,1.5,0,2.8,0,4.3c1.2-0.1,2.4-0.2,3.5-0.3
					c1.1-0.2,1.6-1,1.5-2.3c-0.1-1-0.7-1.6-1.8-1.7C66.1,229.6,65.1,229.7,64,229.7z"/>
				<path class="st8" d="M331.3,235.1c1.5,2,2.9,3.8,4.4,5.7c-1,0.2-1.7,0.1-2.3-0.7c-1-1.5-2.2-2.9-3.4-4.4c-0.2-0.3-0.5-0.5-1.1-1
					c0,2.3,0,4.2,0,6.2c-0.5,0-0.9,0-1.3,0.1c0-4.2,0-8.3,0-12.5c1.7,0,3.3-0.1,4.9,0c1.6,0.1,2.7,1.3,2.7,2.7
					c0,2.4-0.7,3.5-2.6,3.9C332.3,235,331.9,235,331.3,235.1z M328.8,229.7c0,1.2,0,2.3,0,3.3c0,0.3,0.4,0.8,0.6,0.8
					c1.2,0,2.3-0.1,3.5-0.3c0.9-0.2,1.4-1.2,1.3-2.2c-0.1-1-0.8-1.7-1.8-1.7C331.1,229.7,330,229.7,328.8,229.7z"/>
				<path class="st7" d="M261.9,230.7c-0.3,0.2-0.6,0.5-0.9,0.7c-3-2.6-6.4-2.8-8.6-0.4c-1.8,2-1.8,5.3,0.1,7.2
					c2.2,2.2,5.5,2.6,8.5-0.4c0.3,0.2,0.6,0.5,0.9,0.7c-1.2,2-4.6,3.2-7.2,2.6c-2.9-0.7-5.2-3.5-5.2-6.5c0-2.8,1.6-5.4,4.5-6.3
					C257,227.4,260.5,228.2,261.9,230.7z"/>
				<path class="st9" d="M276.4,228.4c0,0.4,0,0.8,0,1.2c-2,0-3.9,0-5.8,0c0,1.3,0,2.5,0,3.8c1.9,0,3.9,0,5.8,0c0,0.5,0,0.8,0,1.3
					c-1.9,0-3.8,0-5.8,0c0,1.7,0,3.2,0,4.8c1.9,0,3.8,0,5.8,0c0,0.5,0,0.9,0,1.3c-2.3,0-4.7,0-7.1,0c0-4.1,0-8.2,0-12.4
					C271.6,228.4,274,228.4,276.4,228.4z"/>
				<path class="st9" d="M313.5,228.4c2.4,0,4.7,0,7.1,0c0,0.4,0,0.8,0,1.2c-1.9,0-3.8,0-5.8,0c0,1.3,0,2.5,0,3.8c1.9,0,3.9,0,5.8,0
					c0,0.5,0,0.8,0,1.3c-1.9,0-3.8,0-5.8,0c0,1.6,0,3.2,0,4.9c1.9,0,3.8,0,5.8,0c0,0.5,0,0.9,0,1.3c-2.4,0-4.7,0-7.1,0
					C313.5,236.7,313.5,232.6,313.5,228.4z"/>
				<path class="st8" d="M41.1,228.4c0.5,0,0.9,0,1.2,0c0,2.9,0,5.7,0,8.6c0,0.5,0,1-0.1,1.4c-0.5,1.9-2.2,3-4.4,2.8
					c-1.9-0.1-3.5-1.5-3.6-3.4c-0.1-3.1,0-6.2,0-9.4c0.4,0,0.8,0,1.3,0c0,1.4,0,2.9,0,4.3c0,1.5,0,3.1,0,4.6
					c0.1,1.5,1.1,2.5,2.6,2.6c1.5,0.1,2.7-0.7,2.9-2.2c0.1-0.7,0.1-1.4,0.1-2.1C41.1,233.2,41.1,230.8,41.1,228.4z"/>
				<path class="st9" d="M214.2,228.4c2.4,0,4.7,0,7.1,0c0,0.4,0,0.7,0,1.2c-2,0-4,0-6,0c0,1.3,0,2.5,0,3.8c2,0,3.9,0,5.9,0
					c0,0.5,0,0.8,0,1.3c-2,0-3.9,0-5.9,0c0,1.6,0,3.2,0,4.8c1.9,0,3.9,0,5.9,0c0,0.5,0,0.9,0.1,1.3c-2.4,0-4.7,0-7.1,0
					C214.2,236.7,214.2,232.6,214.2,228.4z"/>
				<path class="st9" d="M48.9,228.4c2.3,0,4.6,0,6.8,0c0.3,1.2,0.2,1.3-1,1.3c-0.5,0-0.9,0-1.5,0c0,3.7,0,7.4,0,11.2
					c-0.5,0-0.9,0-1.4,0c0-3.7,0-7.4,0-11.2c-0.7,0-1.3-0.1-1.8,0C49,229.8,48.7,229.4,48.9,228.4z"/>
				<path class="st10" d="M92.3,228.4c0.1,1.1,0.1,1.1-2.6,1.4c0,3.7,0,7.4,0,11.1c-0.5,0-0.9,0-1.4,0c0-3.7,0-7.4,0-11.1
					c-0.9,0-1.8,0-2.8,0c0-0.5,0-0.9-0.1-1.3C87.7,228.4,90,228.4,92.3,228.4z"/>
				<path class="st10" d="M302.8,229.7c-1,0-1.9,0-2.8,0c0-0.5,0-0.8,0-1.3c2.3,0,4.5,0,6.9,0c0.2,0.8,0.1,1.4-1,1.3
					c-0.5,0-1.1,0-1.7,0c0,3.7,0,7.4,0,11.2c-0.5,0-0.9,0-1.3,0C302.8,237.2,302.8,233.5,302.8,229.7z"/>
				<path class="st10" d="M229.9,230c-1-0.9-2.9,0.8-3-1.6c2.4,0,4.6,0,7,0c0.2,0.9,0.1,1.4-1,1.3c-0.5-0.1-1.1,0-1.7,0
					c0,3.8,0,7.4,0,11.2c-0.5,0-0.8,0-1.3,0C229.9,237.2,229.9,233.5,229.9,230z"/>
				<path class="st10" d="M98.8,228.4c0.4,0,0.7,0,1.2,0c0,4.1,0,8.3,0,12.5c-0.4,0-0.7,0-1.2,0C98.8,236.7,98.8,232.6,98.8,228.4z"
					/>
				<path class="st9" d="M79,240.9c-0.4,0-0.8,0-1.2,0c0-4.2,0-8.3,0-12.5c0.4,0,0.8,0,1.2,0C79,232.5,79,236.7,79,240.9z"/>
				<path class="st9" d="M205.2,240.8c0-4.2,0-8.3,0-12.5c0.4,0,0.8,0,1.2-0.1c0,4.2,0,8.3,0,12.5
					C206.1,240.8,205.7,240.8,205.2,240.8z"/>
			</g>
			<g>
				<path class="st4" d="M277.6,195.8c1.6,3.5,3.1,6.8,4.7,10.2c-1.7,0-3.6,0-5.4,0c-0.2,0-0.4-0.5-0.5-0.7
					c-1.2-2.9-2.5-5.8-3.7-8.7c-0.2-0.6-0.5-0.8-1.2-0.8c-1.8,0.1-3.5,0-5.4,0c0.2,3.4-0.4,6.8,0.5,10.2c-2,0-3.9,0-6,0
					c0.9-2.8,0.4-5.7,0.5-8.5c0.1-2.9,0-5.7,0-8.6c0-1.6-0.2-3.2-0.3-5c0.2,0,0.5,0,0.9,0c5.3,0,10.7,0,16,0c3.2,0,4.4,1.2,4.4,4.4
					c0,1.5,0,3.1-0.2,4.6c-0.3,2.1-1.1,2.7-3.2,2.9C278.3,195.7,278.1,195.7,277.6,195.8z M266.1,193.4c0.7,0,1.3,0,1.8,0
					c2.4,0,4.8,0,7.2,0c1.4,0,1.7-0.4,1.7-1.8c0-1.2,0-2.4,0-3.5c0-1.7-0.2-1.9-1.9-1.9c-2.1,0-4.3,0-6.4,0c-0.8,0-1.7,0-2.5,0
					C266.1,188.7,266.1,191,266.1,193.4z"/>
				<path class="st3" d="M204.8,186.3c0,2.3,0,4.6,0,7c3.9,0,7.8,0,11.8,0c0,0.8,0,1.6,0,2.5c-3.9,0-7.9,0-11.8,0c0,2.5,0,5.1,0,7.6
					c4.2,0,8.4,0,12.8,0c-0.1,0.8-0.2,1.6-0.3,2.4c-6,0-12,0-17.8,0c0.1-1.8,0.2-3.5,0.2-5.3c0-3.7,0-7.4,0-11.1
					c0-1.9-0.2-3.8-0.3-5.7c5.7,0,11.7,0,17.6,0c0.1,0.8,0.3,1.7,0.4,2.5C213.2,186.3,209,186.3,204.8,186.3z"/>
				<path class="st3" d="M235.5,203.5c4.2,0,8.4,0,12.8,0c-0.1,0.8-0.2,1.6-0.3,2.4c-6.1,0-12.1,0-18.1,0c0.9-3.7,0.4-7.4,0.4-11.1
					c0-3.7,0.5-7.3-0.4-11c5.9,0,11.8,0,17.8,0c0.1,0.8,0.2,1.6,0.4,2.5c-4.2,0-8.4,0-12.7,0c0,2.3,0,4.6,0,7c3.9,0,7.9,0,11.8,0
					c0,0.8,0,1.6,0,2.5c-3.9,0-7.9,0-11.8,0C235.5,198.4,235.5,200.9,235.5,203.5z"/>
				<path class="st4" d="M183.4,202.3c0-5.4,0-10.7,0-16.1c0-0.7-0.3-1.4-0.5-2.1c1.1,0,2.2,0,3.4,0c-0.7,3.4-0.2,6.8-0.3,10.2
					c-0.1,3.5,0,6.9,0,10.4c0,0.4,0,0.8,0,1.3c-2.1,0-4.1,0-6.1,0c-0.3,0-0.6-0.4-0.8-0.7c-3.6-5.6-7.2-11.2-10.8-16.9
					c-0.2-0.3-0.4-0.7-0.8-1c0,6.1-0.2,12.3,0,18.5c-0.8,0-1.9,0-2.8,0c0.3-5.6,0.1-11.3,0.1-16.9c0-1.6-0.2-3.3-0.3-5.1
					c2,0,4.2,0,6.4,0c0.3,0,0.7,0.5,1,0.9c3.5,5.4,7,10.9,10.6,16.4C182.7,201.5,183.1,201.9,183.4,202.3
					C183.4,202.3,183.3,202.3,183.4,202.3C183.3,202.3,183.4,202.3,183.4,202.3C183.4,202.3,183.4,202.3,183.4,202.3z"/>
				<path class="st3" d="M140.7,205.9c-2.4,0-4.7,0-7.1,0c-2.5,0-3.8-1.1-3.8-3.5c-0.1-5.2,0-10.4,0-15.7c0-1.4,1.3-2.7,2.5-2.8
					c0.6-0.1,1.2-0.2,1.7-0.2c4.2,0,8.5,0,12.7,0c0.8,0,1.5,0.1,2.3,0.2c1.1,0.2,2.1,1.3,2.2,2.5c0.1,1.1,0.2,2.2,0.2,3.2
					c0,3.6,0,7.1,0,10.7c0,1-0.1,2-0.2,2.9c-0.2,1.3-1.3,2.3-2.8,2.4c-2.4,0.1-4.8,0.1-7.2,0.1C141.1,206,140.9,205.9,140.7,205.9z
					 M134.9,194.9c0,2.3,0,4.6,0,6.9c0,1.4,0.3,1.8,1.7,1.8c2.6,0,5.1,0,7.7,0c1.8,0,2.1-0.2,2.1-2.1c0-4.5,0-9,0-13.6
					c0-1.4-0.3-1.8-1.8-1.8c-2.7,0-5.4,0-8.1,0c-1.4,0-1.8,0.3-1.8,1.7C134.8,190.2,134.9,192.6,134.9,194.9z"/>
				<path class="st3" d="M111.1,183.8c1.8,0,3.8,0,5.6,0c-0.1,1.6-0.3,3.1-0.3,4.6c0,4.9,0,9.8,0,14.7c0,0.9,0.2,1.8,0.3,2.7
					c-1.8,0-3.8,0-5.6,0c0.1-1.9,0.2-3.7,0.2-5.6c0-3.6,0-7.1,0-10.7C111.3,187.7,111.2,185.8,111.1,183.8z"/>
				<path class="st3" d="M76.9,183.8c5.8,0,11.6,0,17.4,0c2.4,0,3.7,1.1,3.8,3.5c0.1,2.2,0.2,4.5,0,6.7c-0.2,2.7-1.3,3.5-3.9,3.6
					c-3.6,0.1-7.1,0-10.7,0c-0.4,0-0.7,0-1.2,0c0.2,2.8-0.4,5.5,0.5,8.3c-2,0-4,0-5.9,0c0.6-6,0.2-12.1,0.2-18.1
					c0-1.3-0.3-2.5-0.5-3.8C76.8,183.9,76.9,183.9,76.9,183.8z M82.4,195.2c3.2,0,6.4,0,9.6,0c0.9,0,1.2-0.7,1.2-1.4
					c0-1.4,0-2.8,0-4.2c0-3.6,0.1-3.4-3.3-3.4c-2.5,0-5,0-7.4,0C82.4,189.2,82.4,192.2,82.4,195.2z"/>
			</g>
			<path class="st11" d="M335.3,200.9c-5.2,0-10.3,0-15.3,0c-5,0-10.1,0-15.2,0c-2.9-6.8-7.2-12.9-12.4-18.3
				c-6.9-7.3-15-12.8-24.3-16.5c-4.8-1.9-9.6-3.5-14.7-4.3c-3.6-0.5-7.2-1.3-10.8-1.5c-4.5-0.3-8.9-0.4-13.4-0.2
				c-3.5,0.1-7,0.6-10.5,1.1c-9.9,1.4-19.4,4.7-28.7,8.2c-3.8,1.4-7.7,2.4-11.8,2.7c-2.3,0.2-4.6,0.4-6.9,0.2
				c-3.7-0.4-7.2-1.4-10.7-2.7c-4.1-1.5-8.3-2.8-12.5-4.1c-3.2-1-6.4-2-9.6-2.8c-3.2-0.7-6.5-1.2-9.7-1.6c-2.6-0.3-5.3-0.6-7.9-0.7
				c-3.7-0.2-7.5-0.4-11.2-0.2c-9.2,0.5-18.3,2.1-26.9,5.6c-8.3,3.3-15.9,7.9-22.4,14.1c-6.4,6-11.6,12.8-15.2,20.8
				c-0.1,0.3-0.6,0.6-0.8,0.6c-9.9,0-19.9,0-30,0c0.5-1.4,0.8-2.5,1.2-3.5c3.6-9.1,8.8-17,15.2-24.3c4.2-4.7,8.7-9.1,13.9-12.7
				c7.2-4.9,15.1-8.3,23.5-10.4c4.7-1.2,9.4-1.9,14.2-2.7c2.6-0.4,5.2-0.6,7.8-0.6c5-0.2,10.1-0.3,15.1-0.2c2.6,0,5.2,0.4,7.8,0.6
				c1.8,0.1,3.7,0.2,5.5,0.4c3.6,0.5,7.3,0.9,10.9,1.6c5,0.9,9.9,1.9,14.8,3.1c5.6,1.4,11.2,3,16.8,4.6c2.9,0.8,5.7,2.1,8.7,2.7
				c5.4,1.1,10.8,0.6,16-1.5c6.1-2.3,12.3-4.1,18.6-5.6c6.5-1.5,12.9-2.7,19.5-3.9c3.2-0.6,6.6-0.8,9.8-1.2c6.6-0.8,13.2-1.1,19.8-1
				c2.9,0.1,5.8,0.3,8.7,0.5c2,0.1,3.9,0.2,5.8,0.5c2.5,0.3,5,0.9,7.6,1.3c5.2,0.9,10.2,2.3,15.2,4.2c11,4.2,20.3,10.7,28,19.7
				c6.1,7.1,11.4,14.6,15.1,23.3c0.6,1.4,1.1,2.9,1.6,4.3C335.2,200.3,335.2,200.5,335.3,200.9z"/>
			<path class="st12" d="M286.9,12.7c-0.5,4.5-0.9,9-1.6,13.5c-0.7,4.8-1.4,9.6-2.4,14.4c-3.1,13.9-7.9,27.1-15.8,39.1
				c-3.5,5.2-7.6,9.8-12.2,14c-6.8,6.3-13.9,12.2-21.6,17.5c-10,6.8-20.4,12.8-32,16.3c-10.9,3.4-19.3,9.7-25.4,19.6
				c-0.1-0.6-0.6-13.6-0.2-19.5c1-18.1,4.3-35.7,11.9-52.3c4.5-9.9,10.3-18.8,18-26.5c9.8-9.7,21.5-16.3,34.8-20
				c4.3-1.2,8.7-1.9,13.1-2.7c9-1.6,17.9-3.3,26.1-7.5c2.8-1.5,5.3-3.2,6.9-6.1C286.6,12.6,286.7,12.7,286.9,12.7z"/>
		</g>
	</g>
</g>
</svg>
