<?xml version="1.0" encoding="utf-8"?>
<!-- Generator: Adobe Illustrator 27.2.0, SVG Export Plug-In . SVG Version: 6.00 Build 0)  -->
<svg version="1.1" id="Layer_2_xA0_Image_00000021096509604269948900000000615900650495162534_"
	 xmlns="http://www.w3.org/2000/svg" xmlns:xlink="http://www.w3.org/1999/xlink" x="0px" y="0px" viewBox="0 0 351.12 307.68"
	 style="enable-background:new 0 0 351.12 307.68;" xml:space="preserve">
<style type="text/css">
	.st0{display:none;fill:#FFFFFF;}
	.st1{fill:#020202;}
	.st2{fill:#030303;}
	.st3{fill:#040404;}
	.st4{fill:#050505;}
	.st5{fill:#58504F;}
	.st6{fill:#544D4C;}
	.st7{fill:#524A4A;}
	.st8{fill:#524B4A;}
	.st9{fill:#BC0D24;}
	.st10{fill:#A7BA1A;}
</style>
<g>
	<path class="st0" d="M0,292.13C0,194.76,0,97.39,0,0c117.03,0,234.06,0,351.12,0c0,102.54,0,205.09,0,307.68
		c-117.02,0-234.07,0-351.12,0c0-3.8,0-7.63,0-11.47c0.75,0.98,1.71,1.27,2.95,1.23c3.07-0.1,6.15-0.03,9.22-0.03
		c2.35,0,4.7,0,7.07,0c0-2.91,0-5.72,0-8.66c-0.89,0.28-1.68,0.53-2.52,0.79c0,1.91,0,3.69,0,5.43c-4.81,0-9.54,0-14.38,0
		c0-1.15,0-2.24,0-3.31C1.49,291.84,0.75,291.98,0,292.13z M125.04,238.67c0.08-0.03,0.15-0.07,0.23-0.1
		c2.93,3.31,5.87,6.62,9,10.16c0-4.89,0-9.39,0-13.97c-0.47,0.02-0.88,0.04-1.41,0.07c0,3.39,0,6.67,0,10.17
		c-3.11-3.57-6.07-6.96-9.02-10.34c-0.09,0.07-0.17,0.14-0.26,0.21c0,4.5,0,8.99,0,13.54c0.47,0,0.89,0,1.46,0
		C125.04,245.12,125.04,241.9,125.04,238.67z M11.5,244.66c-2.89-3.32-5.78-6.65-8.67-9.97c-0.08,0.04-0.17,0.09-0.25,0.13
		c0,4.51,0,9.03,0,13.56c0.46,0,0.88,0,1.47,0c0-3.33,0-6.59,0-10.08c3.1,3.54,6.01,6.86,9.13,10.42c0-4.9,0-9.39,0-13.92
		c-0.45,0-0.83,0-1.38,0c0,3.36,0,6.66,0,9.97C11.7,244.74,11.6,244.7,11.5,244.66z M68.18,186.61c0.18,1.36,0.52,2.72,0.5,4.08
		c-0.08,6.58,0.34,13.17-0.26,19.72c2.04,0,4.18,0,6.38,0c-1.03-2.96-0.37-5.94-0.59-8.98c0.54,0,0.93,0,1.32,0
		c3.87,0,7.75,0.07,11.62-0.02c2.87-0.07,4.04-0.94,4.29-3.92c0.2-2.42,0.13-4.87-0.02-7.3c-0.16-2.6-1.49-3.77-4.13-3.78
		c-6.31-0.03-12.62,0.01-18.93,0.01C68.31,186.48,68.25,186.55,68.18,186.61z M184.08,206.45c-0.34-0.42-0.73-0.82-1.02-1.27
		c-3.83-5.93-7.65-11.87-11.49-17.79c-0.25-0.39-0.69-0.93-1.05-0.95c-2.38-0.09-4.76-0.04-6.98-0.04c0.12,1.91,0.33,3.7,0.31,5.5
		c-0.04,6.13,0.22,12.28-0.16,18.39c0.97,0,2.18,0,3.04,0c-0.29-6.72-0.06-13.39-0.01-20.06c0.38,0.35,0.62,0.71,0.86,1.08
		c3.92,6.11,7.83,12.22,11.77,18.32c0.22,0.33,0.59,0.8,0.9,0.81c2.19,0.07,4.38,0.04,6.62,0.04c0-0.56,0-1,0-1.44
		c0-3.76-0.06-7.52,0.02-11.27c0.08-3.7-0.38-7.42,0.34-11.11c-1.22,0-2.44,0-3.66,0c0.19,0.8,0.52,1.55,0.52,2.3
		c0.03,5.83,0,11.67-0.01,17.51L184.08,206.45z M296.49,0.49c-0.14-0.04-0.28-0.09-0.42-0.13c-1.76,3.07-4.52,5.01-7.55,6.59
		c-8.9,4.62-18.61,6.44-28.36,8.16c-4.78,0.85-9.6,1.66-14.27,2.94c-14.44,3.96-27.13,11.12-37.78,21.71
		c-8.37,8.32-14.73,18.03-19.6,28.74c-8.19,18.04-11.76,37.16-12.88,56.79c-0.36,6.45-0.06,12.94-0.04,19.41
		c0,0.54,0.19,1.07,0.32,1.77c6.59-10.7,15.72-17.59,27.57-21.26c12.56-3.89,23.91-10.35,34.74-17.74
		c8.33-5.69,16.03-12.14,23.44-18.99c4.99-4.61,9.49-9.6,13.25-15.24c8.65-12.97,13.85-27.35,17.2-42.45
		c1.14-5.16,1.91-10.4,2.66-15.64C295.47,10.28,295.92,5.38,296.49,0.49z M349.1,204.96c-0.07-0.45-0.07-0.61-0.13-0.75
		c-0.58-1.57-1.1-3.17-1.75-4.71c-3.97-9.4-9.72-17.61-16.38-25.31c-8.4-9.71-18.53-16.76-30.43-21.38
		c-5.33-2.07-10.82-3.64-16.47-4.61c-2.74-0.47-5.46-1.02-8.21-1.4c-2.1-0.28-4.23-0.36-6.35-0.5c-3.16-0.21-6.32-0.53-9.49-0.58
		c-7.19-0.13-14.37,0.15-21.51,1.05c-3.56,0.45-7.16,0.69-10.68,1.33c-7.07,1.29-14.14,2.64-21.15,4.24
		c-6.85,1.57-13.62,3.5-20.19,6.05c-5.62,2.18-11.5,2.74-17.4,1.58c-3.21-0.64-6.26-2-9.42-2.9c-6.08-1.73-12.15-3.48-18.29-4.99
		c-5.32-1.31-10.7-2.4-16.09-3.4c-3.9-0.73-7.86-1.19-11.8-1.69c-1.97-0.25-3.96-0.3-5.94-0.46c-2.83-0.23-5.65-0.65-8.48-0.68
		c-5.46-0.05-10.92,0.06-16.37,0.23c-2.84,0.09-5.7,0.25-8.5,0.7c-5.15,0.84-10.33,1.67-15.39,2.94
		c-9.14,2.28-17.69,6.03-25.52,11.34c-5.7,3.86-10.57,8.59-15.1,13.75c-6.96,7.93-12.68,16.6-16.54,26.45
		c-0.44,1.13-0.8,2.3-1.31,3.8c11.06,0,21.85,0.01,32.63-0.03c0.31,0,0.77-0.35,0.91-0.66c3.92-8.68,9.59-16.08,16.51-22.56
		c7.13-6.67,15.31-11.69,24.37-15.28c9.39-3.72,19.2-5.53,29.24-6.04c4.04-0.21,8.11,0.04,12.17,0.21c2.87,0.12,5.75,0.35,8.59,0.72
		c3.54,0.46,7.09,0.96,10.57,1.75c3.54,0.81,7.01,1.94,10.48,3.03c4.54,1.43,9.1,2.8,13.55,4.48c3.78,1.42,7.63,2.5,11.62,2.89
		c2.47,0.24,5.01-0.01,7.51-0.18c4.41-0.3,8.68-1.34,12.81-2.89c10.16-3.8,20.38-7.39,31.19-8.86c3.78-0.51,7.58-1.03,11.38-1.15
		c4.85-0.15,9.72-0.09,14.56,0.24c3.92,0.27,7.81,1.04,11.71,1.63c5.55,0.84,10.84,2.59,16.02,4.69
		c10.09,4.1,18.92,10.09,26.43,17.97c5.66,5.93,10.3,12.56,13.5,19.93c5.54,0,11,0,16.47,0
		C337.94,204.96,343.45,204.96,349.1,204.96z M286.47,199.4c0.49-0.05,0.73-0.07,0.97-0.09c2.28-0.2,3.15-0.88,3.49-3.17
		c0.24-1.63,0.23-3.31,0.25-4.96c0.03-3.51-1.24-4.78-4.73-4.78c-5.79,0-11.59,0-17.38,0c-0.38,0-0.76,0.03-0.93,0.04
		c0.1,1.86,0.26,3.62,0.28,5.38c0.05,3.12,0.08,6.24-0.01,9.35c-0.08,3.07,0.46,6.17-0.55,9.23c2.28,0,4.45,0,6.57,0
		c-0.94-3.67-0.28-7.32-0.52-11.04c2.08,0,4,0.04,5.9-0.02c0.73-0.02,1.04,0.26,1.3,0.89c1.31,3.15,2.65,6.28,4.01,9.41
		c0.13,0.3,0.38,0.78,0.58,0.79c2,0.06,4,0.04,5.86,0.04C289.86,206.74,288.2,203.15,286.47,199.4z M183.42,294.97
		c0-2.14,0-4.15,0-6.29c-0.86,0.33-1.6,0.62-2.39,0.92c0,1.84,0,3.62,0,5.45c-3.32,0-6.55-0.06-9.78,0.03
		c-1.38,0.04-2.28-0.57-3.2-1.54c1.07-0.82,2.09-1.58,3.09-2.35c1.08-0.83,1.17-2.55,0.29-3.61c-2.52-3.05-8.93-3.12-11.42,0.56
		c-0.52,0.77-0.39,2.19,0.34,2.74c1.16,0.89,2.33,1.76,3.65,2.75c-0.83,0.52-1.47,1.24-2.15,1.29c-2.13,0.16-4.27,0.06-6.42,0.06
		c0-2.58,0.02-5.02-0.01-7.46c-0.02-1.89-0.89-3.22-2.54-3.8c-0.69-0.24-1.59-0.63-2.13-0.38c-0.63,0.3-0.98,1.21-1.61,2.08
		c0.87,0,1.35-0.05,1.82,0.01c0.94,0.12,1.79,0.55,1.82,1.58c0.08,2.64,0.03,5.29,0.03,8.03c-2.51,0-5.14,0.02-7.77-0.02
		c-0.69-0.01-1.13,0.15-1.38,0.83c-0.18,0.51-0.48,0.97-0.78,1.55c6.47,0,12.79,0.04,19.1-0.05c0.85-0.01,1.73-0.58,2.54-1.01
		c0.54-0.29,0.96-0.79,1.42-1.19c0.35,0.29,0.63,0.47,0.84,0.71c1.13,1.23,2.5,1.59,4.17,1.57c8.15-0.07,16.31-0.03,24.46-0.03
		c0.43,0,0.86,0,1.32,0c0-6.75,0-13.39,0-20.13c-0.85,0.29-1.6,0.54-2.39,0.81c0,5.69,0,11.27,0,16.87c-1.41,0-2.75,0-4.21,0
		c0-5.89,0-11.73,0-17.59c-2.38,0.45-2.38,0.45-2.38,2.62c0,4.48,0,8.95,0,13.43c0,0.51,0,1.01,0,1.55
		C186.29,294.97,184.95,294.97,183.42,294.97z M137.68,210.46c0.24,0,0.48,0,0.72,0c2.6-0.03,5.2,0.03,7.79-0.11
		c1.63-0.08,2.82-1.23,3-2.62c0.14-1.05,0.23-2.11,0.24-3.17c0.03-3.88,0.03-7.75,0-11.63c-0.01-1.18-0.09-2.36-0.21-3.53
		c-0.15-1.37-1.19-2.56-2.42-2.77c-0.81-0.14-1.65-0.22-2.47-0.23c-4.6-0.02-9.19-0.02-13.79,0c-0.63,0-1.27,0.1-1.9,0.18
		c-1.25,0.15-2.69,1.54-2.71,3.05c-0.04,5.67-0.15,11.34-0.05,17.01c0.04,2.66,1.46,3.8,4.13,3.82
		C132.56,210.48,135.12,210.46,137.68,210.46z M42.65,295.8c0.85,1.62,2.19,1.63,3.65,1.63c11.47-0.04,22.94-0.02,34.41-0.02
		c0.43,0,0.86,0,1.3,0c0-6.75,0-13.4,0-20.14c-0.83,0.28-1.57,0.54-2.38,0.81c0,5.65,0,11.27,0,16.75
		c-2.77,0.73-4.92,0.11-6.25-2.47c-0.11-0.21-0.3-0.37-0.46-0.55c-2.09-2.28-4.34-4.37-7.31-5.47c-2.96-1.09-4.37-0.58-5.36,1.98
		c2.49-0.2,4.86-0.04,6.94,1.5c1.96,1.44,3.65,3.1,5.11,5.16c-5.95,0-11.73,0-17.59,0c0.25-2.45-1.08-4.01-2.99-5.02
		c-1.32-0.69-2.86-0.93-4.28-1.45c-1.5-0.56-2.3,0.21-3.07,1.35c-0.78,1.16-1.77,2.17-2.53,3.34c-1.25,1.93-3.02,2.01-5.05,1.68
		c0-2.04,0-4.02,0-6.1c-0.47,0.14-0.84,0.32-1.22,0.36c-1.03,0.09-1.36,0.58-1.29,1.62c0.1,1.41,0.03,2.84,0.03,4.21
		c-3.13,0-6.11,0-9.2,0c0-5.91,0-11.75,0-17.7c-0.68,0.21-1.26,0.31-1.77,0.57c-0.27,0.14-0.56,0.54-0.56,0.83
		c-0.03,5.55-0.04,11.11-0.01,16.66c0.01,1.3,0.82,2.06,2.1,2.06c4.6,0.01,9.19,0.04,13.79-0.02
		C40.06,297.37,41.49,297.15,42.65,295.8z M207.28,189.14c4.63,0,9.22,0,13.8,0c-0.16-0.89-0.31-1.79-0.47-2.71
		c-6.49,0-12.91,0-19.15,0c0.1,2.07,0.27,4.11,0.29,6.15c0.05,4.04,0.04,8.07,0,12.11c-0.02,1.89-0.16,3.77-0.25,5.71
		c6.31,0,12.83,0,19.37,0c0.12-0.91,0.23-1.75,0.34-2.6c-4.74,0-9.33,0-13.91,0c0-2.81,0-5.55,0-8.3c4.31,0,8.56,0,12.83,0
		c0-0.96,0-1.89,0-2.72c-4.32,0-8.57,0-12.84,0C207.28,194.18,207.28,191.63,207.28,189.14z M240.64,207.8c0-2.78,0-5.55,0-8.3
		c4.32,0,8.57,0,12.85,0c0-0.96,0-1.87,0-2.72c-4.32,0-8.6,0-12.86,0c0-2.62,0-5.17,0-7.64c4.63,0,9.21,0,13.77,0
		c-0.14-0.91-0.28-1.82-0.41-2.68c-6.56,0-12.98,0-19.38,0c0.94,3.99,0.44,7.99,0.45,11.96c0.01,3.99,0.48,8-0.46,12.01
		c6.55,0,13.04,0,19.65,0c0.11-0.9,0.21-1.78,0.3-2.62C249.8,207.8,245.24,207.8,240.64,207.8z M325.46,295.9
		c0.74,1.39,1.89,1.56,3.26,1.54c4.8-0.07,9.59-0.03,14.39-0.03c0.38,0,0.76-0.04,1.16-0.06c0-6.72,0-13.33,0-20.07
		c-0.85,0.27-1.63,0.51-2.49,0.78c0,5.66,0,11.28,0,16.9c-1.48,0-2.86,0-4.29,0c0.09-2.1-0.83-3.73-2.54-4.66
		c-1.49-0.81-3.21-1.17-4.81-1.78c-1.44-0.55-2.24,0.16-2.98,1.28c-0.75,1.13-1.73,2.1-2.46,3.24c-1.24,1.94-2.98,2.25-5.14,1.83
		c0-2.16,0-4.29,0-6.44c-2.35,0.39-2.35,0.39-2.35,2.54c0,1.8,0,3.6,0,5.4c0,1.72,0.02,3.44-0.01,5.16
		c-0.02,1.13-0.29,2.17-1.55,2.56c-0.54,0.17-1.11,0.24-1.67,0.36c0.83,2.03,0.83,2.03,2.32,1.61c2.52-0.71,3.29-1.81,3.21-4.48
		c-0.04-1.38-0.01-2.76-0.01-4.13C324.22,297.31,323.97,296.96,325.46,295.9z M311.76,297.39c-0.2-1.07-0.08-2.22-0.59-2.84
		c-2.99-3.59-6.09-7.08-9.24-10.53c-0.67-0.73-0.39-0.99,0.24-1.21c2.13-0.75,4.27-1.47,6.43-2.14c2.16-0.67,2.17-0.63,1.97-2.78
		c0-0.04-0.03-0.07-0.09-0.19c-0.28,0.07-0.59,0.14-0.88,0.23c-2.82,0.9-5.63,1.87-8.48,2.67c-1.24,0.35-1.58,0.91-1.59,2.18
		c-0.01,1.41,0.36,2.44,1.34,3.47c1.96,2.04,3.78,4.22,5.66,6.35c0.67,0.76,1.33,1.52,2.09,2.4c-4.42,0-8.63,0-12.91,0
		c0-2.21,0-4.36,0-6.67c-0.87,0.27-1.63,0.5-2.4,0.74c0,4.04,0,7.95,0,11.86c0,2.34-0.4,2.87-2.56,3.44
		c-0.23,0.06-0.48,0.06-0.97,0.12c0.61,0.74,0.99,1.66,1.54,1.78c2.05,0.44,4.24-1.62,4.21-3.71c-0.02-1.7,0-3.4,0-5.15
		C300.93,297.39,306.2,297.39,311.76,297.39z M105.51,186.43c0.1,2.11,0.27,4.19,0.29,6.27c0.05,3.87,0.04,7.75,0,11.62
		c-0.02,2.01-0.15,4.02-0.23,6.05c1.91,0,4.06,0,6.05,0c-0.12-1.04-0.32-2-0.32-2.95c-0.03-5.31-0.04-10.62,0-15.93
		c0.01-1.68,0.19-3.36,0.3-5.05C109.63,186.43,107.48,186.43,105.51,186.43z M101.08,304.24c0.72,2.29,0.72,2.29,2.92,2.29
		c0.96,0,1.92,0.06,2.88-0.01c2.23-0.18,3.51-0.88,4.11-2.63c0.32-0.95,0.4-2.01,0.41-3.03c0.04-5.04,0.02-10.07,0.02-15.11
		c0-0.42,0-0.84,0-1.33c-1.88,0-3.59,0-5.31,0c-0.4,0-0.8,0.01-1.2,0.05c-1.97,0.2-3.85,1.77-3.91,3.54c-0.1,3.1-0.03,6.21-0.03,9.4
		c0.81,0,1.57,0.06,2.31-0.01c1.91-0.17,4.11,0.82,5.64-1.77c0,2.32,0.01,4.18,0,6.05c-0.01,1.95-0.51,2.5-2.47,2.55
		C104.71,304.27,102.95,304.24,101.08,304.24z M130.23,295.01c0-4.38,0-8.62,0-12.93c-0.87,0.28-1.62,0.52-2.42,0.79
		c0,0.46,0,0.88,0,1.24c-1.3,0.11-2.51,0.18-3.72,0.34c-1.57,0.2-3.33,1.75-3.4,3.22c-0.12,2.42-0.03,4.85-0.03,7.41
		c2.42-0.46,5.1,1.01,7.19-1.9c0,1.7,0,2.95,0,4.14c4.78,0,9.43,0,14.04,0c0-2.87,0-5.64,0-8.46c-0.34,0.07-0.61,0.13-0.88,0.17
		c-1.18,0.18-1.58,0.81-1.45,2.02c0.14,1.29,0.03,2.61,0.03,3.96C136.46,295.01,133.44,295.01,130.23,295.01z M208.93,292.89
		c-0.75,0.29-1.81,0.38-2.16,0.93c-0.46,0.73-0.61,1.85-0.45,2.73c1,5.68,6.33,9.02,11.93,6.94c4.17-1.55,5.96-6.19,5.35-11.11
		c-2.15,0-4.32,0-6.53,0c0-0.81,0-1.49,0-2.16c0-0.44-0.01-0.88,0-1.32c0.03-1.74,1.09-2.12,2.95-2.26
		c1.17-0.09,2.35-0.02,3.63-0.02c-0.26-0.83-0.47-1.48-0.69-2.16c-1.42,0-2.82-0.04-4.21,0.01c-1.62,0.05-3.62,1.33-3.75,2.8
		c-0.22,2.47-0.06,4.98-0.06,7.54c2,0,4.07,0,6.18,0c0.26,2.83-0.74,5.01-3.2,6.27c-2.21,1.13-4.57,1.2-6.61-0.43
		C208.91,298.73,208.15,296.22,208.93,292.89z M264.08,288.4c-0.37,0.08-0.59,0.15-0.83,0.17c-1.35,0.1-1.64,0.85-1.6,2.13
		c0.1,3.35,0.03,6.71,0.03,10.06c0,2.68-0.21,2.95-2.71,3.6c-0.16,0.04-0.32,0.05-0.75,0.12c0.59,0.73,0.95,1.61,1.51,1.77
		c1.32,0.38,3.57-1.04,4-2.37c0.22-0.7,0.32-1.46,0.34-2.2c0.05-1.42,0.02-2.84,0.02-4.32c2.31,0,4.45,0,6.6,0
		c0-6.71,0-13.34,0-20.02c-0.35,0.07-0.61,0.13-0.88,0.18c-1.1,0.22-1.52,0.76-1.49,1.99c0.11,3.95,0.04,7.9,0.04,11.86
		c0,1.19,0,2.37,0,3.57c-1.49,0-2.87,0-4.28,0C264.08,292.75,264.08,290.64,264.08,288.4z M256.12,288.82
		c-2.07,0.27-2.35,0.57-2.35,2.44c0,1.23,0,2.46,0,3.71c-3.14,0-6.19,0-9.34,0c0-5.92,0-11.77,0-17.68
		c-0.57,0.17-1.02,0.42-1.48,0.42c-0.86,0-0.94,0.46-0.94,1.15c0.02,5.51,0,11.03,0.03,16.54c0,0.39,0.2,0.81,0.42,1.15
		c0.41,0.63,1.01,0.88,1.81,0.88c3.94-0.04,7.88-0.02,11.85-0.02C256.12,294.47,256.12,291.65,256.12,288.82z M108.34,234.56
		c-3.95-0.55-7.18,3.41-7.14,7c0.04,4.07,3.11,7.16,7.23,7.16c4.14,0,7.19-3.03,7.19-7.15
		C115.61,237.33,112.73,234.56,108.34,234.56z M302.08,244.57c-0.09,0.04-0.18,0.07-0.27,0.11c-2.91-3.34-5.82-6.67-8.73-10.01
		c-0.09,0.05-0.18,0.1-0.27,0.15c0,4.52,0,9.03,0,13.54c0.5,0,0.95,0,1.5,0c0-3.34,0-6.58,0-10.07c3.09,3.53,6.01,6.87,9.16,10.46
		c0-4.87,0-9.39,0-13.93c-0.47,0-0.89,0-1.4,0C302.08,238.12,302.08,241.34,302.08,244.57z M238.62,297.37
		c0-3.28,0.05-6.43-0.02-9.58c-0.05-2.45-0.97-3.62-3.14-4.22c-0.59-0.16-1.21-0.18-1.86-0.27c-0.36,0.6-0.73,1.23-1.18,1.99
		c0.4,0.05,0.69,0.12,0.98,0.12c1.87,0.04,2.61,0.56,2.7,2.38c0.12,2.38,0.03,4.76,0.03,7.26c-2.32,0-4.62,0-6.92,0
		c-2.23,0-2.23,0-2.99,2.32C230.32,297.37,234.41,297.37,238.62,297.37z M167.19,244.6c-0.29-0.27-0.54-0.47-0.75-0.7
		c-0.85-0.89-1.7-1.79-2.54-2.69c2.17-2.26,2.7-3.88,1.67-5.03c-1.04-1.16-3.33-1.3-4.61-0.29c-1.44,1.14-1.34,1.87,0.66,4.97
		c-0.84,0.92-1.77,1.76-2.49,2.75c-0.78,1.07-0.86,2.32-0.19,3.51c0.65,1.15,1.71,1.56,3,1.62c2.04,0.11,3.57-0.95,5.27-2.22
		c0.47,0.56,0.85,1.26,1.43,1.6c0.55,0.33,1.32,0.28,2,0.39c0.05-0.13,0.11-0.27,0.16-0.4c-0.86-0.76-1.72-1.52-2.63-2.32
		c0.64-0.57,1.15-1.02,1.69-1.51c-0.36-0.34-0.67-0.63-1.01-0.95C168.3,243.76,167.8,244.14,167.19,244.6z M188.71,234.7
		c0,4.73,0,9.21,0,13.69c1.86,0,3.62,0.1,5.37-0.02c3.22-0.24,5.13-1.77,5.8-4.6c0.21-0.87,0.15-1.82,0.15-2.73
		c0.01-3-1.86-5.49-4.82-5.97C193.11,234.73,190.93,234.81,188.71,234.7z M61.52,248.32c-1.59-2.08-3.13-4.1-4.75-6.22
		c0.69-0.05,1.13-0.06,1.56-0.13c2.08-0.35,2.8-1.43,2.84-4.2c0.02-1.38-1.06-2.72-2.68-2.87c-1.88-0.17-3.79-0.04-5.68-0.04
		c0,4.57,0,9.03,0,13.52c0.47,0,0.88,0,1.38,0c0-2.13,0-4.19,0-6.59c0.53,0.4,0.9,0.59,1.13,0.88c1.27,1.59,2.57,3.17,3.72,4.84
		C59.69,248.42,60.39,248.63,61.52,248.32z M344.78,242.11c0.67-0.06,1.14-0.07,1.59-0.15c2.1-0.37,2.91-1.58,2.86-4.21
		c-0.03-1.47-1.26-2.79-2.96-2.9c-1.78-0.11-3.57-0.03-5.37-0.03c0,4.59,0,9.08,0,13.63c0.46-0.02,0.85-0.04,1.39-0.07
		c0-2.14,0-4.22,0-6.69c0.58,0.54,0.91,0.78,1.16,1.09c1.24,1.57,2.51,3.11,3.65,4.75c0.63,0.91,1.36,1.05,2.47,0.79
		C347.97,246.25,346.43,244.26,344.78,242.11z M275.06,278.02c0,6.51,0,12.92,0,19.31c0.81,0,1.54,0,2.31,0c0-6.69,0-13.31,0-20.05
		C276.53,277.55,275.77,277.79,275.06,278.02z M269.41,237.33c-1.55-2.65-5.39-3.51-8.53-2.54c-3.15,0.98-4.9,3.8-4.93,6.89
		c-0.04,3.21,2.48,6.21,5.65,7.01c2.77,0.7,6.48-0.61,7.78-2.78c-0.34-0.25-0.68-0.51-1.02-0.76c-3.26,3.22-6.8,2.79-9.22,0.4
		c-2.09-2.07-2.09-5.68-0.08-7.82c2.44-2.6,6.09-2.46,9.37,0.4C268.76,237.86,269.09,237.59,269.41,237.33z M88.71,277.32
		c-0.34,0.08-0.6,0.2-0.87,0.21c-1.36,0.06-1.54,0.84-1.52,2.04c0.06,5.54,0.03,11.09,0.03,16.63c0,0.38,0,0.77,0,1.15
		c0.86,0,1.6,0,2.37,0C88.71,290.67,88.71,284.06,88.71,277.32z M350.85,297.38c0-6.75,0-13.38,0-20.05
		c-0.33,0.08-0.6,0.19-0.87,0.2c-1.41,0.04-1.51,0.89-1.5,2.05c0.05,5.54,0.02,11.09,0.02,16.63c0,0.38,0,0.77,0,1.16
		C349.36,297.38,350.07,297.38,350.85,297.38z M285.13,234.85c-2.64,0-5.21,0-7.72,0c0,4.58,0,9.07,0,13.52c2.64,0,5.18,0,7.71,0
		c0-0.49,0-0.91,0-1.43c-2.13,0-4.19,0-6.29,0c0-1.77,0-3.42,0-5.22c2.14,0,4.23,0,6.32,0c0-0.53,0-0.91,0-1.41
		c-2.14,0-4.24,0-6.34,0c0-1.43,0-2.76,0-4.17c2.15,0,4.21,0,6.33,0C285.13,235.68,285.13,235.3,285.13,234.85z M325.4,234.8
		c0,4.6,0,9.06,0,13.59c2.6,0,5.13,0,7.7,0c0-0.48,0-0.89,0-1.42c-2.12,0-4.18,0-6.27,0c0-1.8,0-3.49,0-5.28c2.15,0,4.22,0,6.29,0
		c0-0.49,0-0.88,0-1.37c-2.14,0-4.24,0-6.35,0c0-1.44,0-2.76,0-4.18c2.15,0,4.22,0,6.32,0c0-0.5,0-0.92,0-1.34
		C330.51,234.8,328,234.8,325.4,234.8z M29.45,234.81c0,2.64,0.01,5.23-0.01,7.81c0,0.75-0.01,1.52-0.14,2.26
		c-0.3,1.63-1.49,2.51-3.17,2.42c-1.65-0.09-2.78-1.14-2.84-2.8c-0.07-1.67-0.04-3.35-0.04-5.03c0-1.55,0-3.09,0-4.65
		c-0.55,0-0.97,0-1.38,0c0,3.46-0.08,6.84,0.03,10.22c0.07,2.01,1.82,3.51,3.92,3.66c2.43,0.18,4.28-0.97,4.79-3.03
		c0.12-0.49,0.11-1.03,0.11-1.54c0.01-3.09,0-6.18,0-9.33C30.38,234.81,29.97,234.81,29.45,234.81z M217.55,234.82
		c0,4.59,0,9.05,0,13.56c2.59,0,5.12,0,7.73,0c-0.02-0.49-0.04-0.91-0.06-1.43c-2.21,0-4.3,0-6.41,0c0-1.77,0-3.43,0-5.21
		c2.15,0,4.25,0,6.4,0c0-0.52,0-0.93,0-1.43c-2.17,0-4.27,0-6.41,0c0-1.4,0-2.7,0-4.16c2.17,0,4.3,0,6.5,0c0-0.53,0-0.9,0-1.33
		C222.7,234.82,220.17,234.82,217.55,234.82z M37.97,234.81c-0.26,1.11,0.07,1.57,1.14,1.45c0.62-0.07,1.25-0.01,1.99-0.01
		c0,4.14,0,8.15,0,12.14c0.55,0,0.97,0,1.53,0c0-4.07,0-8.07,0-12.14c0.65,0,1.16,0,1.68,0c1.35-0.01,1.41-0.09,1.09-1.44
		C42.94,234.81,40.48,234.81,37.97,234.81z M85.06,234.83c-2.51,0-4.93,0-7.41,0c0.02,0.5,0.04,0.92,0.07,1.45c1.03,0,1.97,0,2.99,0
		c0,4.1,0,8.08,0,12.11c0.51,0,0.93,0,1.49,0c0-4.06,0-8.07,0-12.06C85.17,236.08,85.17,236.08,85.06,234.83z M313.76,236.24
		c0,4.15,0,8.13,0,12.14c0.49,0,0.9,0,1.43,0c0-4.07,0-8.08,0-12.14c0.71,0,1.31-0.04,1.9,0.01c1.21,0.11,1.3-0.51,1.06-1.42
		c-2.53,0-4.98,0-7.45,0c0,0.49,0,0.91,0,1.41C311.72,236.24,312.66,236.24,313.76,236.24z M234.64,236.58c0,3.82,0,7.83,0,11.81
		c0.5,0,0.89,0,1.39,0c0-4.06,0-8.06,0-12.15c0.71,0,1.3-0.05,1.88,0.01c1.16,0.11,1.37-0.44,1.1-1.42c-2.53,0-5.02,0-7.58,0
		C231.52,237.41,233.57,235.62,234.64,236.58z M92.19,234.81c0,4.57,0,9.09,0,13.59c0.47,0,0.86,0,1.27,0c0-4.57,0-9.09,0-13.59
		C92.98,234.81,92.6,234.81,92.19,234.81z M70.67,248.42c0-4.59,0-9.08,0-13.6c-0.48,0-0.89,0-1.3,0c0,4.58,0,9.09,0,13.6
		C69.83,248.42,70.19,248.42,70.67,248.42z M207.79,248.36c0.54,0,0.95,0,1.34,0c0-4.57,0-9.06,0-13.61
		c-0.49,0.03-0.91,0.05-1.34,0.07C207.79,239.39,207.79,243.84,207.79,248.36z M147.08,281.05c1.03,0,2.01,0,3.02,0
		c0-0.79,0-1.52,0-2.3c-1.03,0-2,0-3.02,0C147.08,279.51,147.08,280.22,147.08,281.05z M123.72,278.51c-1.12,0-2.18,0-3.27,0
		c0,0.71,0,1.37,0,2.05c1.11,0,2.17,0,3.27,0C123.72,279.89,123.72,279.26,123.72,278.51z M13.4,287.39c-1.17,0-2.22,0-3.28,0
		c0,0.71,0,1.37,0,2.02c1.13,0,2.21,0,3.28,0C13.4,288.71,13.4,288.09,13.4,287.39z M178.16,284.29c-1.05,0-2.05,0-3,0
		c0,0.73,0,1.39,0,2.03c1.04,0,2.01,0,3,0C178.16,285.61,178.16,284.96,178.16,284.29z M182.7,286.33c0-0.77,0-1.43,0-2.06
		c-1.04,0-2.01,0-2.99,0c0,0.71,0,1.36,0,2.06C180.73,286.33,181.7,286.33,182.7,286.33z M167.35,282.51c0-0.77,0-1.42,0-2.06
		c-1.05,0-2.03,0-2.98,0c0,0.73,0,1.38,0,2.06C165.39,282.51,166.33,282.51,167.35,282.51z M125.23,280.57c1.09,0,2.06,0,3.05,0
		c0-0.7,0-1.36,0-2.03c-1.04,0-2.04,0-3.05,0C125.23,279.24,125.23,279.86,125.23,280.57z M8.8,289.46c0-0.77,0-1.43,0-2.06
		c-1.05,0-2.03,0-2.97,0c0,0.73,0,1.39,0,2.06C6.85,289.46,7.8,289.46,8.8,289.46z M292.43,283.79c0,0.75,0,1.38,0,2.02
		c1.05,0,2.06,0,3.03,0c0-0.71,0-1.34,0-2.02C294.44,283.79,293.46,283.79,292.43,283.79z M28.59,302.16c1.02,0,2,0,3.02,0
		c0-0.7,0-1.36,0-2.06c-1.02,0-2,0-3.02,0C28.59,300.8,28.59,301.46,28.59,302.16z M35.95,300.12c-1.1,0-2.08,0-3.01,0
		c0,0.73,0,1.39,0,2.01c1.05,0,2.03,0,3.01,0C35.95,301.43,35.95,300.8,35.95,300.12z M136.68,300.13c-1.1,0-2.08,0-3,0
		c0,0.74,0,1.39,0,2c1.06,0,2.04,0,3,0C136.68,301.42,136.68,300.79,136.68,300.13z M141.24,300.13c-1.1,0-2.08,0-3,0
		c0,0.74,0,1.39,0,2c1.06,0,2.04,0,3,0C141.24,301.42,141.24,300.79,141.24,300.13z M250.85,300.13c-1.05,0-2.05,0-2.99,0
		c0,0.74,0,1.4,0,1.99c1.06,0,2.04,0,2.99,0C250.85,301.41,250.85,300.78,250.85,300.13z M252.38,300.09c0,0.73,0,1.38,0,2.06
		c1.03,0,2.01,0,3.01,0c0-0.71,0-1.37,0-2.06C254.39,300.09,253.44,300.09,252.38,300.09z M211.11,307.4c1.05,0,2.05,0,2.99,0
		c0-0.74,0-1.4,0-1.99c-1.06,0-2.04,0-2.99,0C211.11,306.12,211.11,306.75,211.11,307.4z M218.71,305.41c-0.98,0-1.98,0-3.03,0
		c0,0.67,0,1.33,0,2.02c1.03,0,2.01,0,3.03,0C218.71,306.75,218.71,306.12,218.71,305.41z"/>
	<g>
		<path class="st1" d="M0,292.13c0.75-0.15,1.49-0.3,2.35-0.47c0,1.07,0,2.16,0,3.31c4.84,0,9.57,0,14.38,0c0-1.74,0-3.52,0-5.43
			c0.83-0.26,1.63-0.51,2.52-0.79c0,2.94,0,5.75,0,8.66c-2.37,0-4.72,0-7.07,0c-3.07,0-6.15-0.06-9.22,0.03
			c-1.24,0.04-2.21-0.25-2.95-1.23C0,294.85,0,293.49,0,292.13z"/>
		<path class="st2" d="M183.42,294.97c1.52,0,2.87,0,4.34,0c0-0.54,0-1.05,0-1.55c0-4.48,0-8.95,0-13.43c0-2.17,0-2.17,2.38-2.62
			c0,5.86,0,11.7,0,17.59c1.46,0,2.8,0,4.21,0c0-5.61,0-11.19,0-16.87c0.78-0.27,1.54-0.52,2.39-0.81c0,6.74,0,13.39,0,20.13
			c-0.46,0-0.89,0-1.32,0c-8.15,0-16.31-0.04-24.46,0.03c-1.67,0.02-3.04-0.34-4.17-1.57c-0.21-0.23-0.48-0.41-0.84-0.71
			c-0.47,0.4-0.89,0.9-1.42,1.19c-0.8,0.43-1.68,1-2.54,1.01c-6.31,0.08-12.62,0.05-19.1,0.05c0.3-0.58,0.6-1.04,0.78-1.55
			c0.25-0.68,0.69-0.84,1.38-0.83c2.63,0.04,5.25,0.02,7.77,0.02c0-2.74,0.05-5.39-0.03-8.03c-0.03-1.03-0.88-1.46-1.82-1.58
			c-0.47-0.06-0.95-0.01-1.82-0.01c0.63-0.86,0.97-1.78,1.61-2.08c0.54-0.25,1.44,0.13,2.13,0.38c1.65,0.58,2.52,1.92,2.54,3.8
			c0.02,2.44,0.01,4.87,0.01,7.46c2.15,0,4.3,0.1,6.42-0.06c0.69-0.05,1.33-0.78,2.15-1.29c-1.31-0.99-2.49-1.86-3.65-2.75
			c-0.73-0.56-0.86-1.98-0.34-2.74c2.48-3.68,8.89-3.62,11.42-0.56c0.88,1.06,0.79,2.78-0.29,3.61c-1.01,0.77-2.02,1.54-3.09,2.35
			c0.92,0.96,1.82,1.57,3.2,1.54c3.23-0.09,6.47-0.03,9.78-0.03c0-1.82,0-3.6,0-5.45c0.79-0.31,1.52-0.59,2.39-0.92
			C183.42,290.82,183.42,292.83,183.42,294.97z M162.36,289.43c1.05,0.77,2.09,1.57,3.17,2.31c0.19,0.13,0.63,0.14,0.82,0.01
			c1.1-0.75,2.16-1.56,3.22-2.34C168.08,287.1,163.69,287.05,162.36,289.43z"/>
		<path class="st2" d="M42.65,295.8c-1.16,1.35-2.59,1.57-4.01,1.58c-4.6,0.06-9.19,0.03-13.79,0.02c-1.27,0-2.09-0.77-2.1-2.06
			c-0.02-5.55-0.02-11.11,0.01-16.66c0-0.29,0.3-0.69,0.56-0.83c0.51-0.26,1.09-0.37,1.77-0.57c0,5.94,0,11.79,0,17.7
			c3.09,0,6.07,0,9.2,0c0-1.37,0.08-2.79-0.03-4.21c-0.07-1.04,0.26-1.53,1.29-1.62c0.38-0.03,0.75-0.21,1.22-0.36
			c0,2.08,0,4.06,0,6.1c2.04,0.32,3.8,0.25,5.05-1.68c0.76-1.17,1.75-2.18,2.53-3.34c0.77-1.14,1.56-1.91,3.07-1.35
			c1.41,0.52,2.96,0.76,4.28,1.45c1.92,1,3.25,2.57,2.99,5.02c5.86,0,11.64,0,17.59,0c-1.46-2.06-3.16-3.72-5.11-5.16
			c-2.09-1.54-4.45-1.7-6.94-1.5c1-2.56,2.41-3.07,5.36-1.98c2.97,1.1,5.22,3.18,7.31,5.47c0.16,0.18,0.36,0.34,0.46,0.55
			c1.33,2.58,3.48,3.2,6.25,2.47c0-5.48,0-11.09,0-16.75c0.82-0.28,1.55-0.53,2.38-0.81c0,6.74,0,13.39,0,20.14
			c-0.44,0-0.87,0-1.3,0c-11.47,0-22.94-0.02-34.41,0.02C44.83,297.44,43.5,297.42,42.65,295.8z M43.28,295c3.18,0,6.14,0,9.22,0
			c-0.21-0.58-0.33-1.16-0.62-1.64c-1.11-1.83-3.02-2.25-4.91-2.67c-0.2-0.04-0.56,0.24-0.73,0.46
			C45.28,292.37,44.35,293.6,43.28,295z"/>
		<path class="st3" d="M325.46,295.9c-1.49,1.06-1.25,1.41-5.97,1.55c0,1.37-0.03,2.75,0.01,4.13c0.08,2.67-0.69,3.77-3.21,4.48
			c-1.49,0.42-1.49,0.42-2.32-1.61c0.56-0.12,1.13-0.19,1.67-0.36c1.25-0.39,1.53-1.43,1.55-2.56c0.03-1.72,0.01-3.44,0.01-5.16
			c0-1.8,0-3.6,0-5.4c0-2.15,0-2.15,2.35-2.54c0,2.15,0,4.28,0,6.44c2.17,0.41,3.91,0.11,5.14-1.83c0.73-1.14,1.71-2.12,2.46-3.24
			c0.75-1.12,1.54-1.83,2.98-1.28c1.6,0.61,3.32,0.97,4.81,1.78c1.72,0.93,2.64,2.56,2.54,4.66c1.43,0,2.81,0,4.29,0
			c0-5.62,0-11.24,0-16.9c0.86-0.27,1.63-0.51,2.49-0.78c0,6.74,0,13.36,0,20.07c-0.4,0.02-0.78,0.06-1.16,0.06
			c-4.8,0-9.59-0.04-14.39,0.03C327.35,297.46,326.2,297.29,325.46,295.9z M326.01,295.02c3.2,0,6.14,0,9.26,0
			c-0.24-0.63-0.37-1.23-0.68-1.7c-1.14-1.74-2.97-2.28-4.87-2.63c-0.2-0.04-0.51,0.18-0.66,0.37
			C328.07,292.3,327.12,293.57,326.01,295.02z"/>
		<path class="st3" d="M311.76,297.39c-5.56,0-10.83,0-16.25,0c0,1.75-0.02,3.45,0,5.15c0.03,2.09-2.16,4.15-4.21,3.71
			c-0.55-0.12-0.93-1.04-1.54-1.78c0.49-0.06,0.74-0.06,0.97-0.12c2.16-0.56,2.56-1.1,2.56-3.44c0-3.91,0-7.83,0-11.86
			c0.77-0.24,1.53-0.47,2.4-0.74c0,2.31,0,4.46,0,6.67c4.28,0,8.49,0,12.91,0c-0.77-0.88-1.43-1.65-2.09-2.4
			c-1.88-2.13-3.7-4.3-5.66-6.35c-0.98-1.02-1.35-2.05-1.34-3.47c0.01-1.26,0.35-1.83,1.59-2.18c2.85-0.8,5.66-1.77,8.48-2.67
			c0.29-0.09,0.6-0.16,0.88-0.23c0.06,0.12,0.09,0.15,0.09,0.19c0.2,2.15,0.19,2.12-1.97,2.78c-2.16,0.67-4.3,1.39-6.43,2.14
			c-0.63,0.22-0.91,0.48-0.24,1.21c3.15,3.45,6.25,6.94,9.24,10.53C311.68,295.17,311.56,296.32,311.76,297.39z"/>
		<path class="st2" d="M101.08,304.24c1.87,0,3.62,0.04,5.38-0.01c1.95-0.05,2.46-0.6,2.47-2.55c0.01-1.87,0-3.73,0-6.05
			c-1.53,2.58-3.73,1.59-5.64,1.77c-0.74,0.07-1.5,0.01-2.31,0.01c0-3.19-0.07-6.3,0.03-9.4c0.06-1.77,1.93-3.34,3.91-3.54
			c0.4-0.04,0.8-0.05,1.2-0.05c1.71-0.01,3.43,0,5.31,0c0,0.49,0,0.91,0,1.33c0,5.04,0.02,10.07-0.02,15.11
			c-0.01,1.01-0.09,2.08-0.41,3.03c-0.6,1.76-1.89,2.45-4.11,2.63c-0.95,0.08-1.92,0.01-2.88,0.01
			C101.8,306.52,101.8,306.52,101.08,304.24z M108.87,294.97c0-2.76,0-5.4,0-8.12c-1.33,0-2.6-0.03-3.87,0.01
			c-0.9,0.03-1.56,0.55-1.59,1.43c-0.08,2.21-0.02,4.43-0.02,6.68C105.24,294.97,107.02,294.97,108.87,294.97z"/>
		<path class="st2" d="M130.23,295.01c3.21,0,6.23,0,9.37,0c0-1.35,0.11-2.67-0.03-3.96c-0.13-1.21,0.26-1.84,1.45-2.02
			c0.27-0.04,0.54-0.1,0.88-0.17c0,2.82,0,5.59,0,8.46c-4.61,0-9.26,0-14.04,0c0-1.2,0-2.44,0-4.14c-2.09,2.91-4.78,1.44-7.19,1.9
			c0-2.56-0.09-4.99,0.03-7.41c0.07-1.47,1.83-3.02,3.4-3.22c1.21-0.16,2.42-0.22,3.72-0.34c0-0.36,0-0.78,0-1.24
			c0.81-0.26,1.55-0.5,2.42-0.79C130.23,286.39,130.23,290.63,130.23,295.01z M127.88,286.84c-1.25,0-2.41-0.11-3.54,0.05
			c-0.48,0.07-1.16,0.66-1.24,1.11c-0.23,1.35-0.26,2.73-0.26,4.11c0,0.25,0.49,0.69,0.79,0.71c1.07,0.09,2.15,0,3.23,0.04
			c0.78,0.03,1.06-0.28,1.04-1.05C127.85,290.22,127.88,288.62,127.88,286.84z"/>
		<path class="st4" d="M208.93,292.89c-0.78,3.33-0.02,5.84,2.37,7.75c2.04,1.64,4.4,1.56,6.61,0.43c2.46-1.25,3.47-3.43,3.2-6.27
			c-2.11,0-4.18,0-6.18,0c0-2.56-0.16-5.07,0.06-7.54c0.13-1.47,2.13-2.75,3.75-2.8c1.39-0.04,2.79-0.01,4.21-0.01
			c0.22,0.68,0.42,1.33,0.69,2.16c-1.28,0-2.46-0.07-3.63,0.02c-1.86,0.14-2.91,0.52-2.95,2.26c-0.01,0.44,0,0.88,0,1.32
			c0,0.68,0,1.35,0,2.16c2.21,0,4.38,0,6.53,0c0.61,4.92-1.18,9.55-5.35,11.11c-5.6,2.09-10.93-1.26-11.93-6.94
			c-0.15-0.88-0.01-2.01,0.45-2.73C207.12,293.27,208.19,293.18,208.93,292.89z"/>
		<path class="st2" d="M264.08,288.4c0,2.24,0,4.35,0,6.54c1.41,0,2.78,0,4.28,0c0-1.19,0-2.38,0-3.57c0-3.95,0.07-7.91-0.04-11.86
			c-0.03-1.23,0.39-1.77,1.49-1.99c0.27-0.05,0.53-0.11,0.88-0.18c0,6.68,0,13.31,0,20.02c-2.15,0-4.29,0-6.6,0
			c0,1.49,0.04,2.91-0.02,4.32c-0.03,0.74-0.12,1.5-0.34,2.2c-0.43,1.33-2.67,2.75-4,2.37c-0.56-0.16-0.92-1.04-1.51-1.77
			c0.43-0.07,0.6-0.08,0.75-0.12c2.5-0.65,2.71-0.93,2.71-3.6c0-3.35,0.07-6.71-0.03-10.06c-0.04-1.28,0.25-2.02,1.6-2.13
			C263.49,288.55,263.71,288.47,264.08,288.4z"/>
		<path class="st1" d="M256.12,288.82c0,2.83,0,5.65,0,8.58c-3.97,0-7.91-0.02-11.85,0.02c-0.8,0.01-1.4-0.24-1.81-0.88
			c-0.22-0.34-0.42-0.76-0.42-1.15c-0.03-5.51-0.01-11.03-0.03-16.54c0-0.69,0.08-1.15,0.94-1.15c0.45,0,0.91-0.25,1.48-0.42
			c0,5.91,0,11.76,0,17.68c3.15,0,6.2,0,9.34,0c0-1.25,0-2.48,0-3.71C253.77,289.4,254.05,289.1,256.12,288.82z"/>
		<path class="st2" d="M238.62,297.37c-4.21,0-8.3,0-12.4,0c0.75-2.32,0.75-2.32,2.99-2.32c2.3,0,4.6,0,6.92,0
			c0-2.5,0.09-4.89-0.03-7.26c-0.09-1.81-0.83-2.34-2.7-2.38c-0.29-0.01-0.59-0.07-0.98-0.12c0.45-0.76,0.82-1.38,1.18-1.99
			c0.65,0.09,1.28,0.11,1.86,0.27c2.17,0.59,3.09,1.77,3.14,4.22C238.67,290.94,238.62,294.09,238.62,297.37z"/>
		<path class="st1" d="M275.06,278.02c0.71-0.23,1.47-0.47,2.31-0.74c0,6.74,0,13.36,0,20.05c-0.76,0-1.5,0-2.31,0
			C275.06,290.94,275.06,284.53,275.06,278.02z"/>
		<path class="st1" d="M88.71,277.32c0,6.74,0,13.35,0,20.03c-0.77,0-1.5,0-2.37,0c0-0.38,0-0.76,0-1.15
			c0-5.54,0.04-11.09-0.03-16.63c-0.01-1.2,0.16-1.98,1.52-2.04C88.11,277.52,88.38,277.4,88.71,277.32z"/>
		<path class="st1" d="M350.85,297.38c-0.78,0-1.49,0-2.34,0c0-0.4,0-0.78,0-1.16c0-5.54,0.03-11.09-0.02-16.63
			c-0.01-1.16,0.08-2.02,1.5-2.05c0.27-0.01,0.54-0.12,0.87-0.2C350.85,284,350.85,290.64,350.85,297.38z"/>
		<path class="st1" d="M147.08,281.05c0-0.83,0-1.54,0-2.3c1.02,0,2,0,3.02,0c0,0.77,0,1.51,0,2.3
			C149.09,281.05,148.11,281.05,147.08,281.05z"/>
		<path class="st1" d="M123.72,278.51c0,0.74,0,1.37,0,2.05c-1.1,0-2.16,0-3.27,0c0-0.69,0-1.34,0-2.05
			C121.54,278.51,122.6,278.51,123.72,278.51z"/>
		<path class="st1" d="M13.4,287.39c0,0.69,0,1.32,0,2.02c-1.07,0-2.15,0-3.28,0c0-0.66,0-1.31,0-2.02
			C11.18,287.39,12.23,287.39,13.4,287.39z"/>
		<path class="st1" d="M178.16,284.29c0,0.67,0,1.32,0,2.03c-0.99,0-1.96,0-3,0c0-0.64,0-1.3,0-2.03
			C176.12,284.29,177.12,284.29,178.16,284.29z"/>
		<path class="st1" d="M182.7,286.33c-1,0-1.97,0-2.99,0c0-0.69,0-1.34,0-2.06c0.98,0,1.95,0,2.99,0
			C182.7,284.91,182.7,285.56,182.7,286.33z"/>
		<path class="st1" d="M167.35,282.51c-1.02,0-1.96,0-2.98,0c0-0.68,0-1.34,0-2.06c0.96,0,1.93,0,2.98,0
			C167.35,281.09,167.35,281.74,167.35,282.51z"/>
		<path class="st1" d="M125.23,280.57c0-0.71,0-1.33,0-2.03c1,0,2,0,3.05,0c0,0.68,0,1.33,0,2.03
			C127.29,280.57,126.32,280.57,125.23,280.57z"/>
		<path class="st1" d="M8.8,289.46c-1,0-1.95,0-2.97,0c0-0.67,0-1.32,0-2.06c0.94,0,1.92,0,2.97,0C8.8,288.03,8.8,288.69,8.8,289.46
			z"/>
		<path class="st1" d="M292.43,283.79c1.04,0,2.01,0,3.03,0c0,0.68,0,1.31,0,2.02c-0.98,0-1.98,0-3.03,0
			C292.43,285.17,292.43,284.54,292.43,283.79z"/>
		<path class="st1" d="M28.59,302.16c0-0.7,0-1.36,0-2.06c1.02,0,2,0,3.02,0c0,0.7,0,1.36,0,2.06
			C30.59,302.16,29.62,302.16,28.59,302.16z"/>
		<path class="st1" d="M35.95,300.12c0,0.68,0,1.31,0,2.01c-0.98,0-1.96,0-3.01,0c0-0.62,0-1.27,0-2.01
			C33.87,300.12,34.85,300.12,35.95,300.12z"/>
		<path class="st1" d="M136.68,300.13c0,0.67,0,1.29,0,2c-0.97,0-1.94,0-3,0c0-0.61,0-1.27,0-2
			C134.6,300.13,135.58,300.13,136.68,300.13z"/>
		<path class="st1" d="M141.24,300.13c0,0.67,0,1.29,0,2c-0.97,0-1.94,0-3,0c0-0.61,0-1.27,0-2
			C139.16,300.13,140.14,300.13,141.24,300.13z"/>
		<path class="st1" d="M250.85,300.13c0,0.65,0,1.28,0,1.99c-0.95,0-1.93,0-2.99,0c0-0.6,0-1.25,0-1.99
			C248.8,300.13,249.8,300.13,250.85,300.13z"/>
		<path class="st1" d="M252.38,300.09c1.06,0,2.01,0,3.01,0c0,0.69,0,1.35,0,2.06c-1,0-1.97,0-3.01,0
			C252.38,301.47,252.38,300.82,252.38,300.09z"/>
		<path class="st1" d="M211.11,307.4c0-0.65,0-1.28,0-1.99c0.95,0,1.93,0,2.99,0c0,0.6,0,1.25,0,1.99
			C213.17,307.4,212.16,307.4,211.11,307.4z"/>
		<path class="st1" d="M218.71,305.41c0,0.71,0,1.34,0,2.02c-1.02,0-2,0-3.03,0c0-0.69,0-1.35,0-2.02
			C216.72,305.41,217.73,305.41,218.71,305.41z"/>
	</g>
	<g>
		<path class="st5" d="M108.34,234.56c4.39,0,7.27,2.77,7.27,7.01c0,4.12-3.05,7.15-7.19,7.15c-4.12,0-7.19-3.1-7.23-7.16
			C101.16,237.97,104.39,234.02,108.34,234.56z M108.19,247.3c3.38,0.07,5.94-2.16,5.91-5.73c-0.02-3.49-2.1-5.68-5.8-5.73
			c-3.04-0.04-5.36,2.12-5.64,5.62C102.44,244.28,105.32,247.5,108.19,247.3z"/>
		<path class="st6" d="M302.08,244.57c0-3.22,0-6.45,0-9.74c0.51,0,0.93,0,1.4,0c0,4.54,0,9.06,0,13.93
			c-3.15-3.59-6.07-6.93-9.16-10.46c0,3.49,0,6.73,0,10.07c-0.55,0-1.01,0-1.5,0c0-4.51,0-9.03,0-13.54
			c0.09-0.05,0.18-0.1,0.27-0.15c2.91,3.34,5.82,6.67,8.73,10.01C301.89,244.64,301.99,244.6,302.08,244.57z"/>
		<path class="st5" d="M167.19,244.6c0.61-0.46,1.11-0.84,1.67-1.26c0.34,0.32,0.65,0.61,1.01,0.95c-0.55,0.49-1.05,0.93-1.69,1.51
			c0.9,0.8,1.77,1.56,2.63,2.32c-0.05,0.13-0.11,0.27-0.16,0.4c-0.67-0.12-1.45-0.07-2-0.39c-0.58-0.35-0.96-1.05-1.43-1.6
			c-1.7,1.27-3.23,2.32-5.27,2.22c-1.29-0.07-2.35-0.47-3-1.62c-0.67-1.19-0.59-2.44,0.19-3.51c0.72-0.99,1.64-1.83,2.49-2.75
			c-2-3.09-2.1-3.83-0.66-4.97c1.28-1.01,3.57-0.87,4.61,0.29c1.03,1.15,0.5,2.77-1.67,5.03c0.84,0.9,1.69,1.8,2.54,2.69
			C166.65,244.13,166.9,244.33,167.19,244.6z M162.53,241.94c-0.82,0.95-1.7,1.77-2.29,2.76c-0.26,0.43-0.13,1.43,0.22,1.8
			c0.48,0.51,1.43,1.05,2,0.9c1.25-0.33,2.4-1.09,3.68-1.72c-1.16-1.24-2.13-2.28-3.11-3.32
			C162.95,242.27,162.85,242.21,162.53,241.94z M162.98,240.22c0.62-0.77,1.15-1.31,1.53-1.95c0.43-0.73,0.02-1.43-0.82-1.53
			c-0.39-0.05-0.8-0.05-1.19,0c-1.04,0.14-1.35,0.77-0.81,1.66C162.03,238.97,162.46,239.49,162.98,240.22z"/>
		<path class="st6" d="M188.71,234.7c2.22,0.11,4.39,0.02,6.5,0.37c2.96,0.48,4.83,2.97,4.82,5.97c0,0.91,0.06,1.86-0.15,2.73
			c-0.67,2.83-2.58,4.36-5.8,4.6c-1.74,0.13-3.51,0.02-5.37,0.02C188.71,243.92,188.71,239.43,188.71,234.7z M190,247.14
			c1.62-0.11,3.13-0.1,4.6-0.34c2.72-0.45,3.9-2.12,4.02-4.93c0.14-3.11-1.8-5.02-3.65-5.35c-1.62-0.28-3.29-0.26-4.98-0.38
			C190,239.9,190,243.4,190,247.14z"/>
		<path class="st6" d="M11.8,244.77c0-3.31,0-6.61,0-9.97c0.55,0,0.94,0,1.38,0c0,4.53,0,9.03,0,13.92
			c-3.12-3.56-6.03-6.88-9.13-10.42c0,3.48,0,6.75,0,10.08c-0.59,0-1.01,0-1.47,0c0-4.54,0-9.05,0-13.56
			c0.08-0.04,0.17-0.09,0.25-0.13c2.89,3.32,5.78,6.65,8.67,9.97C11.6,244.7,11.7,244.74,11.8,244.77z"/>
		<path class="st6" d="M125.04,238.67c0,3.22,0,6.45,0,9.72c-0.57,0-0.99,0-1.46,0c0-4.55,0-9.05,0-13.54
			c0.09-0.07,0.17-0.14,0.26-0.21c2.95,3.39,5.9,6.77,9.02,10.34c0-3.5,0-6.78,0-10.17c0.53-0.02,0.94-0.04,1.41-0.07
			c0,4.59,0,9.09,0,13.97c-3.13-3.53-6.06-6.85-9-10.16c-0.08-0.03-0.15-0.06-0.23-0.1C125.04,238.54,125.04,238.61,125.04,238.67z"
			/>
		<path class="st6" d="M61.52,248.32c-1.13,0.31-1.83,0.1-2.46-0.8c-1.16-1.67-2.46-3.25-3.72-4.84c-0.23-0.29-0.61-0.48-1.13-0.88
			c0,2.4,0,4.46,0,6.59c-0.5,0-0.91,0-1.38,0c0-4.5,0-8.96,0-13.52c1.88,0,3.79-0.13,5.68,0.04c1.62,0.14,2.7,1.48,2.68,2.87
			c-0.04,2.78-0.76,3.85-2.84,4.2c-0.43,0.07-0.87,0.08-1.56,0.13C58.39,244.22,59.93,246.24,61.52,248.32z M54.29,236.23
			c0,1.63,0,3.08,0,4.68c1.33-0.12,2.58-0.18,3.81-0.37c1.21-0.2,1.71-1.05,1.62-2.47c-0.07-1.08-0.78-1.78-1.94-1.83
			C56.64,236.2,55.49,236.23,54.29,236.23z"/>
		<path class="st6" d="M344.78,242.11c1.65,2.15,3.19,4.14,4.8,6.22c-1.11,0.26-1.84,0.13-2.47-0.79c-1.14-1.64-2.41-3.18-3.65-4.75
			c-0.25-0.31-0.58-0.55-1.16-1.09c0,2.47,0,4.55,0,6.69c-0.54,0.03-0.93,0.05-1.39,0.07c0-4.55,0-9.04,0-13.63
			c1.8,0,3.59-0.09,5.37,0.03c1.7,0.11,2.93,1.43,2.96,2.9c0.05,2.64-0.77,3.85-2.86,4.21
			C345.92,242.04,345.45,242.05,344.78,242.11z M342.04,236.25c0,1.33-0.05,2.48,0.03,3.63c0.02,0.32,0.41,0.88,0.62,0.88
			c1.25-0.02,2.53-0.08,3.75-0.33c1.02-0.21,1.54-1.25,1.4-2.34c-0.13-1.07-0.9-1.8-2.01-1.83
			C344.61,236.22,343.38,236.25,342.04,236.25z"/>
		<path class="st5" d="M269.41,237.33c-0.32,0.26-0.65,0.53-0.97,0.8c-3.28-2.86-6.94-3-9.37-0.4c-2,2.14-2.01,5.74,0.08,7.82
			c2.42,2.39,5.96,2.82,9.22-0.4c0.33,0.25,0.68,0.5,1.02,0.76c-1.3,2.17-5.01,3.48-7.78,2.78c-3.18-0.8-5.69-3.79-5.65-7.01
			c0.04-3.09,1.79-5.91,4.93-6.89C264.02,233.81,267.86,234.68,269.41,237.33z"/>
		<path class="st7" d="M285.13,234.85c0,0.45,0,0.83,0,1.29c-2.12,0-4.19,0-6.33,0c0,1.41,0,2.73,0,4.17c2.1,0,4.2,0,6.34,0
			c0,0.49,0,0.88,0,1.41c-2.09,0-4.18,0-6.32,0c0,1.8,0,3.46,0,5.22c2.1,0,4.16,0,6.29,0c0,0.52,0,0.94,0,1.43
			c-2.52,0-5.06,0-7.71,0c0-4.45,0-8.94,0-13.52C279.92,234.85,282.49,234.85,285.13,234.85z"/>
		<path class="st7" d="M325.4,234.8c2.6,0,5.11,0,7.69,0c0,0.43,0,0.84,0,1.34c-2.1,0-4.17,0-6.32,0c0,1.41,0,2.74,0,4.18
			c2.11,0,4.21,0,6.35,0c0,0.49,0,0.88,0,1.37c-2.07,0-4.14,0-6.29,0c0,1.79,0,3.48,0,5.28c2.09,0,4.15,0,6.27,0
			c0,0.53,0,0.94,0,1.42c-2.57,0-5.1,0-7.7,0C325.4,243.87,325.4,239.41,325.4,234.8z"/>
		<path class="st6" d="M29.45,234.81c0.52,0,0.94,0,1.27,0c0,3.15,0,6.24,0,9.33c0,0.52,0.01,1.05-0.11,1.54
			c-0.51,2.06-2.36,3.21-4.79,3.03c-2.1-0.16-3.85-1.66-3.92-3.66c-0.11-3.38-0.03-6.77-0.03-10.22c0.42,0,0.83,0,1.38,0
			c0,1.56,0,3.11,0,4.65c0,1.68-0.03,3.35,0.04,5.03c0.07,1.66,1.19,2.71,2.84,2.8c1.68,0.09,2.88-0.79,3.17-2.42
			c0.13-0.74,0.14-1.5,0.14-2.26C29.46,240.04,29.45,237.46,29.45,234.81z"/>
		<path class="st7" d="M217.55,234.82c2.61,0,5.15,0,7.74,0c0,0.43,0,0.81,0,1.33c-2.2,0-4.33,0-6.5,0c0,1.46,0,2.76,0,4.16
			c2.14,0,4.24,0,6.41,0c0,0.5,0,0.91,0,1.43c-2.16,0-4.25,0-6.4,0c0,1.77,0,3.43,0,5.21c2.11,0,4.21,0,6.41,0
			c0.02,0.52,0.04,0.93,0.06,1.43c-2.61,0-5.14,0-7.73,0C217.55,243.86,217.55,239.4,217.55,234.82z"/>
		<path class="st7" d="M37.97,234.81c2.51,0,4.97,0,7.43,0c0.32,1.34,0.25,1.43-1.09,1.44c-0.51,0-1.03,0-1.68,0
			c0,4.07,0,8.07,0,12.14c-0.56,0-0.98,0-1.53,0c0-3.99,0-7.99,0-12.14c-0.75,0-1.38-0.06-1.99,0.01
			C38.05,236.37,37.71,235.92,37.97,234.81z"/>
		<path class="st8" d="M85.06,234.83c0.11,1.24,0.11,1.24-2.86,1.5c0,3.99,0,8,0,12.06c-0.56,0-0.98,0-1.49,0c0-4.02,0-8.01,0-12.11
			c-1.02,0-1.96,0-2.99,0c-0.02-0.53-0.04-0.95-0.07-1.45C80.14,234.83,82.56,234.83,85.06,234.83z"/>
		<path class="st8" d="M313.76,236.24c-1.1,0-2.05,0-3.05,0c0-0.5,0-0.91,0-1.41c2.47,0,4.92,0,7.45,0
			c0.24,0.91,0.15,1.53-1.06,1.42c-0.59-0.05-1.19-0.01-1.9-0.01c0,4.06,0,8.07,0,12.14c-0.53,0-0.94,0-1.43,0
			C313.76,244.37,313.76,240.39,313.76,236.24z"/>
		<path class="st8" d="M234.64,236.58c-1.07-0.96-3.12,0.83-3.21-1.75c2.56,0,5.05,0,7.58,0c0.27,0.98,0.06,1.53-1.1,1.42
			c-0.58-0.06-1.18-0.01-1.88-0.01c0,4.09,0,8.09,0,12.15c-0.5,0-0.89,0-1.39,0C234.64,244.41,234.64,240.41,234.64,236.58z"/>
		<path class="st8" d="M92.19,234.81c0.4,0,0.79,0,1.27,0c0,4.5,0,9.02,0,13.59c-0.41,0-0.79,0-1.27,0
			C92.19,243.9,92.19,239.38,92.19,234.81z"/>
		<path class="st7" d="M70.67,248.42c-0.48,0-0.84,0-1.3,0c0-4.51,0-9.02,0-13.6c0.41,0,0.82,0,1.3,0
			C70.67,239.35,70.67,243.83,70.67,248.42z"/>
		<path class="st7" d="M207.79,248.36c0-4.52,0-8.97,0-13.54c0.43-0.02,0.85-0.05,1.34-0.07c0,4.55,0,9.04,0,13.61
			C208.74,248.36,208.33,248.36,207.79,248.36z"/>
	</g>
	<g>
		<path class="st2" d="M286.47,199.4c1.73,3.75,3.39,7.35,5.11,11.06c-1.86,0-3.86,0.02-5.86-0.04c-0.2-0.01-0.45-0.49-0.58-0.79
			c-1.35-3.13-2.7-6.26-4.01-9.41c-0.26-0.64-0.57-0.91-1.3-0.89c-1.91,0.06-3.82,0.02-5.9,0.02c0.24,3.72-0.43,7.37,0.52,11.04
			c-2.12,0-4.29,0-6.57,0c1.01-3.05,0.46-6.16,0.55-9.23c0.08-3.11,0.05-6.23,0.01-9.35c-0.03-1.76-0.18-3.52-0.28-5.38
			c0.17-0.01,0.55-0.04,0.93-0.04c5.79,0,11.59,0,17.38,0c3.48,0,4.76,1.27,4.73,4.78c-0.02,1.66-0.01,3.33-0.25,4.96
			c-0.34,2.29-1.22,2.97-3.49,3.17C287.19,199.33,286.96,199.35,286.47,199.4z M273.99,196.87c0.75,0,1.38,0,2.01,0
			c2.6,0,5.19,0.02,7.79-0.01c1.55-0.02,1.88-0.4,1.88-1.93c0-1.28,0-2.56,0-3.83c0-1.81-0.27-2.1-2.02-2.1c-2.32,0-4.63,0-6.95,0
			c-0.9,0-1.8,0-2.71,0C273.99,191.68,273.99,194.18,273.99,196.87z"/>
		<path class="st1" d="M207.28,189.14c0,2.5,0,5.04,0,7.64c4.27,0,8.52,0,12.84,0c0,0.83,0,1.76,0,2.72c-4.27,0-8.53,0-12.83,0
			c0,2.75,0,5.5,0,8.3c4.58,0,9.17,0,13.91,0c-0.11,0.85-0.22,1.69-0.34,2.6c-6.54,0-13.06,0-19.37,0c0.09-1.93,0.23-3.82,0.25-5.71
			c0.04-4.04,0.04-8.07,0-12.11c-0.02-2.04-0.19-4.08-0.29-6.15c6.24,0,12.66,0,19.15,0c0.16,0.91,0.32,1.82,0.47,2.71
			C216.5,189.14,211.92,189.14,207.28,189.14z"/>
		<path class="st1" d="M240.64,207.8c4.6,0,9.16,0,13.91,0c-0.1,0.85-0.2,1.72-0.3,2.62c-6.61,0-13.1,0-19.65,0
			c0.94-4,0.47-8.02,0.46-12.01c-0.01-3.97,0.5-7.97-0.45-11.96c6.41,0,12.82,0,19.38,0c0.13,0.86,0.27,1.77,0.41,2.68
			c-4.57,0-9.14,0-13.77,0c0,2.48,0,5.02,0,7.64c4.26,0,8.54,0,12.86,0c0,0.85,0,1.75,0,2.72c-4.28,0-8.53,0-12.85,0
			C240.64,202.24,240.64,205.02,240.64,207.8z"/>
		<path class="st2" d="M184.05,206.45c0.01-5.84,0.04-11.67,0.01-17.51c0-0.75-0.33-1.5-0.52-2.3c1.22,0,2.44,0,3.66,0
			c-0.72,3.68-0.26,7.41-0.34,11.11c-0.08,3.76-0.02,7.51-0.02,11.27c0,0.44,0,0.87,0,1.44c-2.24,0-4.43,0.03-6.62-0.04
			c-0.31-0.01-0.68-0.47-0.9-0.81c-3.93-6.1-7.85-12.21-11.77-18.32c-0.23-0.36-0.47-0.73-0.86-1.08
			c-0.05,6.67-0.27,13.34,0.01,20.06c-0.86,0-2.07,0-3.04,0c0.38-6.11,0.12-12.25,0.16-18.39c0.01-1.79-0.2-3.59-0.31-5.5
			c2.22,0,4.6-0.04,6.98,0.04c0.37,0.01,0.8,0.56,1.05,0.95c3.84,5.92,7.66,11.86,11.49,17.79c0.29,0.46,0.68,0.85,1.02,1.27
			c-0.02,0.03-0.04,0.06-0.07,0.09c0.04,0,0.08-0.01,0.12-0.01C184.11,206.5,184.08,206.48,184.05,206.45z"/>
		<path class="st1" d="M137.68,210.46c-2.56,0-5.12,0.02-7.67,0c-2.68-0.02-4.09-1.16-4.13-3.82c-0.09-5.67,0.01-11.34,0.05-17.01
			c0.01-1.51,1.45-2.9,2.71-3.05c0.63-0.07,1.27-0.17,1.9-0.18c4.6-0.01,9.19-0.02,13.79,0c0.83,0,1.66,0.08,2.47,0.23
			c1.23,0.21,2.27,1.4,2.42,2.77c0.12,1.17,0.2,2.35,0.21,3.53c0.03,3.88,0.03,7.75,0,11.63c-0.01,1.06-0.1,2.12-0.24,3.17
			c-0.18,1.39-1.37,2.54-3,2.62c-2.59,0.13-5.19,0.08-7.79,0.11C138.16,210.47,137.92,210.46,137.68,210.46z M131.33,198.43
			c0,2.52-0.01,5.03,0,7.55c0.01,1.56,0.36,1.91,1.9,1.92c2.8,0.01,5.59,0,8.39,0c1.99,0,2.28-0.26,2.29-2.24
			c0.02-4.91,0.01-9.83,0-14.74c0-1.55-0.38-1.92-1.91-1.92c-2.92-0.01-5.83-0.01-8.75,0c-1.56,0-1.91,0.34-1.92,1.88
			C131.32,193.4,131.33,195.91,131.33,198.43z"/>
		<path class="st1" d="M105.51,186.43c1.97,0,4.12,0,6.09,0c-0.1,1.69-0.28,3.37-0.3,5.05c-0.04,5.31-0.03,10.62,0,15.93
			c0.01,0.96,0.2,1.91,0.32,2.95c-1.99,0-4.14,0-6.05,0c0.08-2.03,0.21-4.04,0.23-6.05c0.04-3.87,0.04-7.75,0-11.62
			C105.78,190.61,105.61,188.53,105.51,186.43z"/>
		<path class="st1" d="M68.37,186.42c6.31-0.01,12.62-0.04,18.93-0.01c2.64,0.01,3.98,1.19,4.13,3.78c0.15,2.43,0.22,4.88,0.02,7.3
			c-0.25,2.97-1.43,3.85-4.29,3.92c-3.87,0.09-7.75,0.02-11.62,0.02c-0.39,0-0.78,0-1.32,0c0.22,3.04-0.44,6.02,0.59,8.98
			c-2.2,0-4.34,0-6.38,0c0.6-6.56,0.18-13.15,0.26-19.72c0.02-1.36-0.33-2.72-0.5-4.08C68.25,186.55,68.31,186.48,68.37,186.42z
			 M74.29,198.78c3.51,0,6.97,0.02,10.43-0.01c0.96-0.01,1.26-0.72,1.26-1.56c0.01-1.51-0.01-3.03,0.01-4.54
			c0.04-3.96,0.09-3.68-3.61-3.67c-2.7,0.01-5.4,0-8.09,0C74.29,192.3,74.29,195.48,74.29,198.78z"/>
	</g>
	<path class="st9" d="M349.1,204.96c-5.65,0-11.16,0-16.67,0c-5.47,0-10.93,0-16.47,0c-3.2-7.37-7.85-14-13.5-19.93
		c-7.52-7.88-16.34-13.87-26.43-17.97c-5.18-2.1-10.47-3.85-16.02-4.69c-3.9-0.59-7.78-1.36-11.71-1.63
		c-4.84-0.33-9.71-0.39-14.56-0.24c-3.8,0.12-7.6,0.64-11.38,1.15c-10.81,1.47-21.03,5.06-31.19,8.86
		c-4.13,1.55-8.4,2.59-12.81,2.89c-2.5,0.17-5.03,0.42-7.51,0.18c-3.99-0.39-7.84-1.47-11.62-2.89c-4.45-1.67-9.01-3.05-13.55-4.48
		c-3.47-1.09-6.94-2.22-10.48-3.03c-3.48-0.79-7.03-1.29-10.57-1.75c-2.85-0.37-5.72-0.6-8.59-0.72c-4.05-0.17-8.12-0.42-12.17-0.21
		c-10.04,0.51-19.85,2.33-29.24,6.04c-9.06,3.59-17.24,8.6-24.37,15.28c-6.92,6.48-12.59,13.88-16.51,22.56
		c-0.14,0.3-0.6,0.66-0.91,0.66c-10.79,0.03-21.57,0.03-32.63,0.03c0.51-1.5,0.87-2.67,1.31-3.8c3.86-9.85,9.58-18.52,16.54-26.45
		c4.53-5.16,9.41-9.89,15.1-13.75c7.83-5.31,16.37-9.06,25.52-11.34c5.06-1.26,10.23-2.1,15.39-2.94c2.8-0.45,5.66-0.62,8.5-0.7
		c5.46-0.17,10.92-0.28,16.37-0.23c2.83,0.03,5.65,0.45,8.48,0.68c1.98,0.16,3.97,0.21,5.94,0.46c3.94,0.5,7.89,0.96,11.8,1.69
		c5.39,1,10.77,2.09,16.09,3.4c6.13,1.51,12.21,3.27,18.29,4.99c3.16,0.9,6.22,2.26,9.42,2.9c5.9,1.17,11.78,0.61,17.4-1.58
		c6.58-2.55,13.34-4.48,20.19-6.05c7.01-1.6,14.07-2.95,21.15-4.24c3.52-0.64,7.12-0.88,10.68-1.33c7.14-0.91,14.32-1.18,21.51-1.05
		c3.17,0.06,6.33,0.37,9.49,0.58c2.12,0.14,4.25,0.22,6.35,0.5c2.75,0.37,5.47,0.93,8.21,1.4c5.65,0.97,11.13,2.54,16.47,4.61
		c11.9,4.61,22.04,11.67,30.43,21.38c6.66,7.7,12.41,15.91,16.38,25.31c0.65,1.54,1.17,3.14,1.75,4.71
		C349.03,204.34,349.03,204.51,349.1,204.96z"/>
	<path class="st10" d="M296.49,0.49c-0.56,4.89-1.02,9.79-1.72,14.66c-0.75,5.23-1.52,10.48-2.66,15.64
		c-3.35,15.1-8.56,29.48-17.2,42.45c-3.76,5.65-8.26,10.63-13.25,15.24c-7.4,6.85-15.11,13.3-23.44,18.99
		c-10.83,7.39-22.18,13.86-34.74,17.74c-11.85,3.67-20.98,10.56-27.57,21.26c-0.13-0.7-0.64-14.73-0.27-21.18
		c1.11-19.63,4.68-38.75,12.88-56.79c4.87-10.71,11.23-20.42,19.6-28.74c10.65-10.59,23.34-17.75,37.78-21.71
		c4.68-1.28,9.49-2.1,14.27-2.94c9.75-1.73,19.45-3.54,28.36-8.16c3.03-1.58,5.79-3.51,7.55-6.59
		C296.21,0.41,296.35,0.45,296.49,0.49z"/>
</g>
</svg>
