<?xml version="1.0" encoding="utf-8"?>
<!-- Generator: Adobe Illustrator 27.2.0, SVG Export Plug-In . SVG Version: 6.00 Build 0)  -->
<svg version="1.1" id="Layer_1" xmlns="http://www.w3.org/2000/svg" xmlns:xlink="http://www.w3.org/1999/xlink" x="0px" y="0px"
	 viewBox="0 0 708.66 541.11" style="enable-background:new 0 0 708.66 541.11;" xml:space="preserve">
<g>
	<path d="M425.59,121.9c5.79,4.07,12.65,7.06,20.6,8.97c7.95,1.91,16.75,2.86,26.42,2.86c12.46,0,23.08-1.14,31.86-3.43
		c8.78-2.29,16.09-5.31,21.94-9.06c5.85-3.75,10.43-7.95,13.74-12.59c3.31-4.64,5.66-9.38,7.06-14.21c0.62-2.16,1.1-4.25,1.45-6.29
		c1.22,0.29,2.39,0.54,3.51,0.76c3.31,0.64,5.66,0.95,7.06,0.95h0.76h1.91h49.41c4.7-13.61,7.03-25.78,6.96-36.53
		c-0.07-10.75-1.5-20.44-4.29-29.09c-2.8-8.65-6.1-16.6-9.92-23.85l-27.47,28.04c4.45,5.6,8.14,11.13,11.07,16.6
		c2.92,5.47,4.89,10.43,5.91,14.88H561.9h-1.91h-3.43c-1.4,0-3.21-0.13-5.44-0.38c-2.23-0.25-4.96-0.79-8.2-1.62
		c-3.24-0.83-7.06-2.1-11.45-3.82c-4.39-1.72-9.44-3.97-15.17-6.77l-12.4,25.95c5.34,2.55,9.28,4.58,11.83,6.1
		c2.54,1.53,4.2,2.77,4.96,3.72c0.76,0.95,1.14,2,1.14,3.15c0,1.91-0.64,3.88-1.91,5.91c-1.27,2.03-3.56,3.94-6.87,5.72
		c-3.31,1.78-7.89,3.21-13.74,4.29c-5.85,1.08-13.35,1.62-22.51,1.62c-6.61,0-12.34-0.61-17.17-1.81
		c-4.83-1.21-8.84-3.02-12.02-5.44c-3.18-2.42-5.53-5.37-7.06-8.87c-1.53-3.5-2.29-7.47-2.29-11.92c0-3.69,0.41-7.44,1.24-11.26
		c0.83-3.82,2-7.95,3.53-12.4l-26.33-8.2c-3.18,6.61-5.5,13.48-6.96,20.6c-1.46,7.12-2.19,13.29-2.19,18.51
		c0,9.03,1.56,16.76,4.67,23.18C415.35,112.58,419.8,117.82,425.59,121.9z"/>
	<polygon points="572.2,120.75 592.42,141.16 611.5,120.75 591.47,100.53 	"/>
	<path d="M631.24,135.44c6.68,2.16,12.88,3.24,18.6,3.24c8.65,0,16.18-1.46,22.61-4.39c6.42-2.93,11.8-6.77,16.12-11.54
		c4.32-4.77,7.79-9.99,10.4-15.64c2.6-5.66,4.48-11.35,5.63-17.07c1.14-5.72,1.72-10.94,1.72-15.64c0-6.74-0.99-13.57-2.96-20.51
		c-1.97-6.93-5.06-14.34-9.25-22.22c-4.2-7.88-9.67-16.47-16.41-25.75l-24.42,29.95c6.49,7.76,11.64,14.02,15.45,18.79
		s6.52,8.78,8.11,12.02c1.59,3.24,2.38,6.52,2.38,9.82c0,6.74-1.43,12.53-4.29,17.36c-2.86,4.83-6.9,8.52-12.11,11.07
		c-5.22,2.54-11.45,3.82-18.7,3.82c-3.05,0-6.49-0.26-10.3-0.76c-3.81-0.51-7.88-1.59-12.21-3.24l-9.54,19.27
		C618.18,129.46,624.57,133.28,631.24,135.44z"/>
	<polygon points="82.48,413.97 101.56,393.56 81.53,373.34 65.06,390.8 47.76,373.34 28.88,393.56 48.91,413.97 65.2,396.36 	"/>
	<path d="M315.23,246.38c-2.42-6.17-5.09-11.92-8.01-17.27l-27.47,27.85c3.69,4.71,6.96,9.76,9.83,15.17
		c2.86,5.41,5.05,10.97,6.58,16.69h-23.46c-4.84,0-9.25-0.35-13.26-1.05c-2.92-0.51-5.38-1.1-7.39-1.78
		c1.68-4.28,3.22-9.05,4.62-14.34c1.65-6.23,3.43-13.8,5.34-22.7l-36.44,12.4c0.38,3.69,0.57,7.28,0.57,10.78
		c0,3.5-0.1,6.68-0.29,9.54c-0.19,2.86-0.48,5.25-0.86,7.15h-23.08c-1.85,0-3.66-0.06-5.41-0.18c0.05-0.13,0.11-0.26,0.17-0.39
		c1.97-4.83,3.78-10.36,5.44-16.6c1.65-6.23,3.37-13.8,5.15-22.7l-36.06,12.4c0.38,3.69,0.57,7.12,0.57,10.3
		c0,3.18-0.09,6.17-0.29,8.97c-0.19,2.8-0.48,5.53-0.86,8.2h-16.41h-1.91h-3.43c-1.4,0-3.21-0.13-5.44-0.38
		c-2.23-0.25-4.96-0.79-8.2-1.62c-3.24-0.83-7.06-2.1-11.45-3.82c-4.39-1.72-9.44-3.97-15.17-6.77l-12.4,25.95
		c5.34,2.55,9.28,4.58,11.83,6.1c2.54,1.53,4.2,2.77,4.96,3.72c0.76,0.95,1.14,2,1.14,3.15c0,1.91-0.64,3.88-1.91,5.91
		c-1.27,2.03-3.56,3.94-6.87,5.72c-3.31,1.78-7.89,3.21-13.74,4.29c-5.85,1.08-13.35,1.62-22.51,1.62c-6.61,0-12.34-0.61-17.17-1.81
		c-4.83-1.21-8.84-3.02-12.02-5.44c-3.18-2.42-5.53-5.37-7.06-8.87c-1.53-3.5-2.29-7.47-2.29-11.92c0-3.69,0.41-7.44,1.24-11.26
		c0.83-3.82,2-7.95,3.53-12.4l-26.33-8.2c-3.18,6.61-5.5,13.48-6.96,20.6c-1.46,7.12-2.19,13.29-2.19,18.51
		c0,9.03,1.56,16.76,4.67,23.18c3.11,6.42,7.57,11.67,13.35,15.74c5.79,4.07,12.65,7.06,20.6,8.97c7.95,1.91,16.76,2.86,26.42,2.86
		c12.46,0,23.08-1.14,31.86-3.43c8.78-2.29,16.09-5.31,21.94-9.06c5.85-3.75,10.43-7.95,13.74-12.59c3.31-4.64,5.66-9.38,7.06-14.21
		c0.62-2.16,1.1-4.25,1.45-6.29c1.22,0.29,2.39,0.54,3.51,0.76c3.31,0.64,5.66,0.95,7.06,0.95h0.76h1.91h25.18
		c0.93-1.39,1.81-2.74,2.67-4.06c1.62,0.51,3.33,1.01,5.15,1.48c6.61,1.72,14.69,2.58,24.23,2.58h22.51
		c2.42-3.74,4.6-7.22,6.56-10.43c0.96,0.57,1.95,1.16,2.97,1.75c4.07,2.35,9.12,4.39,15.17,6.1c6.04,1.72,13.45,2.58,22.22,2.58h33
		c3.69-10.43,5.98-19.97,6.87-28.62c0.89-8.65,0.79-16.56-0.29-23.75C319.39,259.22,317.64,252.55,315.23,246.38z"/>
	<path d="M441.28,311.3c3.64,1.85,7.94,3.48,12.92,4.9c6.04,1.72,13.45,2.58,22.22,2.58h1.91h15.26c8.65,0,17.14-0.54,25.47-1.62
		c7.37-0.96,14.03-2.24,19.96-3.85c1.08,0.43,2.15,0.82,3.22,1.17c4.45,1.46,9.12,2.51,14.02,3.15c4.89,0.64,10.21,0.99,15.93,1.05
		c5.72,0.07,12.14,0.1,19.27,0.1h4.77h1.91h47.31V177.6h-30.72v111.22h-16.6h-1.91h-18.31c-0.64,0-1.34,0.03-2.1,0.1
		c-0.76,0.07-1.53,0.22-2.29,0.48c2.16-2.8,4.1-5.82,5.82-9.06c1.72-3.24,3.08-6.61,4.1-10.11c1.02-3.5,1.53-7.09,1.53-10.78
		c0-6.99-2-12.72-6.01-17.17c-4.01-4.45-9.38-7.76-16.12-9.92c-6.74-2.16-14.25-3.24-22.51-3.24c-4.71,0-10.05,0.45-16.02,1.34
		c-5.98,0.89-11.86,2.07-17.65,3.53c-5.79,1.46-10.84,3.15-15.17,5.06v37.2l13.8,12.54c-1.37,0.03-2.85,0.05-4.46,0.05h-22.51h-1.91
		h-8.2c-3.18,0-6.23-0.16-9.16-0.48c-2.61-0.28-5.01-0.7-7.21-1.24c1.61-4.63,3.11-9.36,4.45-14.21c2.22-8.08,4.48-16.76,6.77-26.04
		l-35.87,12.59c0.12,2.55,0.06,5.69-0.19,9.44c-0.26,3.75-0.57,7.47-0.95,11.16c-0.38,3.69-0.83,6.61-1.34,8.78h-24.61h-1.91h-7.44
		c-3.05,0-5.5-0.25-7.34-0.76c-1.84-0.51-3.28-1.37-4.29-2.58c-1.02-1.21-1.72-2.8-2.1-4.77c-0.38-1.97-0.57-4.35-0.57-7.15V177.6
		h-30.71v107.02c0,6.1,0.73,11.32,2.19,15.64c1.46,4.33,3.69,7.85,6.68,10.59c2.99,2.74,6.77,4.74,11.35,6.01
		c4.58,1.27,10.05,1.91,16.41,1.91h15.83h1.91h36.82C438.48,316.27,439.92,313.78,441.28,311.3z M528.51,259.54
		c4.7-0.44,8.65-0.67,11.83-0.67c3.43,0,6.17,0.45,8.2,1.34c2.03,0.89,3.5,2,4.39,3.34c0.89,1.34,1.34,2.58,1.34,3.72
		c0,2.04-0.61,4.2-1.81,6.49c-1.21,2.29-2.86,4.58-4.96,6.87c-2.1,2.29-4.48,4.58-7.15,6.87c-1.02-1.02-2.07-2.16-3.15-3.43
		c-1.08-1.27-2.32-2.54-3.72-3.82l-17.55-18.51C519.61,260.72,523.81,259.99,528.51,259.54z"/>
	<polygon points="455.64,349.68 435.61,329.46 416.34,349.68 436.56,370.09 	"/>
	<rect x="671.78" y="177.6" width="30.71" height="141.17"/>
	<path d="M79.25,475.88l-10.21,10.31c2.12,3.5,3.86,6.89,5.2,10.17c1.34,3.28,2.11,6.7,2.3,10.26h-5.25h-10.5h-0.94H36.8
		c-3.12,0-5.9-0.31-8.34-0.94c-2.44-0.62-4.34-1.72-5.72-3.28c-1.38-1.56-2.06-3.75-2.06-6.56c0-1.75,0.25-3.69,0.75-5.81
		c0.5-2.12,1.41-4.72,2.72-7.78l-8.72-3.94c-2.31,4.06-3.94,7.79-4.87,11.2c-0.94,3.41-1.41,6.48-1.41,9.23
		c0,6,2.12,10.68,6.37,14.06c4.25,3.37,10.5,5.06,18.74,5.06h25.58h0.94h15.84h6.75c2.12-5.87,3.12-11.26,3-16.17
		c-0.13-4.9-0.89-9.48-2.3-13.73C82.67,483.73,81.07,479.7,79.25,475.88z"/>
	<polygon points="56.76,473.82 64.63,465.39 56.29,456.86 48.42,465.39 	"/>
	<polygon points="32.12,465.39 40.46,473.82 48.42,465.39 40.08,456.86 	"/>
	<polygon points="123.67,532.96 132.01,541.48 139.98,532.96 131.64,524.52 	"/>
	<polygon points="139.98,532.96 148.32,541.48 156.19,532.96 147.85,524.52 	"/>
	<path d="M301.17,506.62h-9.93h-0.94h-3.19c-2.5,0-4.58-0.16-6.23-0.47c-1.66-0.31-2.98-0.81-3.98-1.5
		c-0.55-0.38-1.06-0.83-1.51-1.32c0.1-0.04,0.2-0.09,0.3-0.13c2.56-1.09,4.69-1.73,6.37-1.92l0.09-9.84c-2.56,0-5.09-0.53-7.59-1.59
		c-2.5-1.06-5-2.36-7.5-3.89c-2.5-1.53-5.06-3.08-7.68-4.64c-2.62-1.56-5.33-2.87-8.11-3.94c-2.78-1.06-5.73-1.59-8.86-1.59
		c-2.56,0-5.08,0.49-7.54,1.45c-2.47,0.97-4.81,2.55-7.03,4.73c-2.22,2.19-4.23,5.15-6.04,8.9l7.68,3.94
		c1.81-3.06,3.69-5.09,5.62-6.09c1.94-1,3.84-1.5,5.72-1.5c1.87,0,3.78,0.3,5.72,0.89c1.94,0.59,3.92,1.36,5.95,2.3
		c2.03,0.94,4.14,1.94,6.33,3c2.19,1.06,4.44,2.06,6.75,3c-0.44,0.25-0.92,0.5-1.45,0.75c-0.53,0.25-1.05,0.52-1.55,0.8
		c-0.5,0.28-1.03,0.58-1.59,0.89c-2.06,1.12-4.2,2.17-6.42,3.14c-2.22,0.97-4.78,1.8-7.68,2.48c-2.91,0.69-6.4,1.22-10.5,1.59
		c-4.09,0.37-9.04,0.56-14.85,0.56h-1.59h-0.94h-0.47c-1.63,0-3-0.17-4.12-0.52c-1.12-0.34-2.17-1.17-3.14-2.48
		c-0.97-1.31-1.98-3.37-3.05-6.18c-1.81-4.69-3.61-8.37-5.39-11.06c-1.78-2.69-3.7-4.62-5.76-5.81c-2.06-1.19-4.37-1.78-6.93-1.78
		c-1.75,0-3.45,0.3-5.11,0.89c-1.66,0.59-3.31,1.53-4.97,2.81c-1.66,1.28-3.34,3.01-5.06,5.2c-1.72,2.19-3.51,4.84-5.39,7.97
		c-1.31,2.25-2.44,4.08-3.37,5.48c-0.94,1.41-1.78,2.52-2.53,3.33c-0.75,0.81-1.52,1.37-2.3,1.69c-0.78,0.31-1.67,0.47-2.67,0.47
		h-0.47h-3.37c-1.75,0-3.41-0.11-4.97-0.33c-1.56-0.22-3.03-0.55-4.4-0.98c-0.07-0.02-0.14-0.05-0.21-0.07
		c0.98-2.48,1.87-5.07,2.65-7.75c1.06-3.65,2.06-7.67,3-12.04l-13.4,4.69c-0.06,1.69-0.27,3.62-0.61,5.81
		c-0.34,2.19-0.73,4.26-1.17,6.23c-0.44,1.97-0.84,3.45-1.22,4.45h-11.06h-0.94h-3.56c-1.69,0-3.05-0.16-4.08-0.47
		c-1.03-0.31-1.81-0.78-2.34-1.41c-0.53-0.62-0.91-1.45-1.12-2.48c-0.22-1.03-0.33-2.26-0.33-3.7v-50.04H99.59v53.51
		c0,2.37,0.28,4.55,0.84,6.51c0.56,1.97,1.48,3.64,2.76,5.01c1.28,1.38,3,2.44,5.15,3.19c2.16,0.75,4.83,1.12,8.01,1.12h6.18h0.94
		h15.18c0.81-1.22,1.57-2.43,2.28-3.64c0.02,0.01,0.04,0.02,0.06,0.03c2,1.03,4.36,1.89,7.08,2.58c2.72,0.69,5.92,1.03,9.61,1.03
		h0.56h0.56h0.38v-0.01c1.59-0.02,3.02-0.15,4.26-0.41c1.34-0.28,2.58-0.78,3.7-1.5c1.12-0.72,2.23-1.7,3.33-2.95
		c0.69-0.78,1.41-1.72,2.18-2.78c1.37,1.26,2.87,2.45,4.52,3.58c2.44,1.66,5.06,3,7.87,4.03c2.81,1.03,5.64,1.61,8.48,1.73
		c2.84,0.12,5.53-0.27,8.06-1.17c1.92-0.69,3.67-1.78,5.25-3.28c1.02,0.68,2.12,1.25,3.33,1.69c2,0.72,4.37,1.08,7.12,1.08h1.69
		h0.94h0.94c6.56,0,12.24-0.31,17.06-0.94c4.81-0.62,8.96-1.45,12.46-2.48c3.5-1.03,6.56-2.16,9.18-3.37
		c2.62-1.22,5.06-2.42,7.31-3.61c0.13-0.07,0.26-0.13,0.39-0.2c0.99,2.16,2.15,3.96,3.5,5.41c1.65,1.78,3.81,3.09,6.47,3.94
		c2.65,0.84,5.95,1.26,9.89,1.26h3.19h0.94h21.46v-69.35h-11.53V506.62z M195.79,508.59c-2.59-0.12-5.06-0.53-7.4-1.22
		c-2.34-0.69-4.5-1.56-6.47-2.62c-1.55-0.84-2.92-1.7-4.1-2.58c0.19-0.32,0.39-0.65,0.59-0.99c1.62-2.75,3.09-4.92,4.4-6.51
		c1.31-1.59,2.51-2.73,3.61-3.42c1.09-0.69,2.08-1.03,2.95-1.03c1,0,1.94,0.34,2.81,1.03c0.87,0.69,1.8,1.92,2.76,3.7
		c0.97,1.78,2.08,4.33,3.33,7.64c0.75,2.07,1.61,3.96,2.57,5.69C199.15,508.57,197.46,508.67,195.79,508.59z"/>
	<rect x="326.94" y="448.52" width="11.53" height="69.35"/>
	<path d="M384.67,487.08c-1.75-2.53-3.83-4.47-6.23-5.81c-2.41-1.34-5.01-2.01-7.82-2.01c-2.62,0-5.12,0.58-7.5,1.73
		c-2.37,1.16-4.45,2.78-6.23,4.87c-1.78,2.09-3.19,4.51-4.22,7.26c-1.03,2.75-1.55,5.72-1.55,8.9c0,2.12,0.34,4.11,1.03,5.95
		c0.69,1.84,1.8,3.44,3.33,4.78c1.53,1.34,3.47,2.41,5.81,3.19c2.34,0.78,5.17,1.17,8.48,1.17c1.44,0,2.98-0.11,4.64-0.33
		c1.65-0.22,3.33-0.55,5.01-0.98c-0.81,2.81-2.08,5.11-3.8,6.89c-1.72,1.78-3.72,3.11-6,3.98c-2.28,0.87-4.73,1.31-7.36,1.31
		c-2.06,0-4.2-0.28-6.42-0.84c-2.22-0.56-4.3-1.19-6.23-1.87l-3.94,7.68c2.81,2.31,5.81,3.97,9,4.97c3.19,1,6.22,1.5,9.09,1.5
		c3.75,0,7.08-0.63,9.98-1.87c2.91-1.25,5.39-2.94,7.45-5.06c2.06-2.12,3.76-4.53,5.11-7.22c1.34-2.69,2.33-5.47,2.95-8.34
		c0.62-2.87,0.94-5.65,0.94-8.34c0-4.56-0.48-8.65-1.45-12.28C387.77,492.69,386.41,489.61,384.67,487.08z M375.44,505.59
		c-1.47,0.25-2.98,0.37-4.55,0.37c-2.25,0-4.05-0.26-5.39-0.8c-1.34-0.53-2.33-1.25-2.95-2.16c-0.63-0.9-0.94-1.98-0.94-3.23
		c0-1.5,0.36-2.97,1.08-4.4c0.72-1.44,1.7-2.61,2.95-3.51c1.25-0.91,2.65-1.36,4.22-1.36c1.94,0,3.59,0.7,4.97,2.11
		c1.37,1.41,2.47,3.19,3.28,5.34c0.81,2.16,1.34,4.36,1.59,6.61C378.32,505,376.9,505.34,375.44,505.59z"/>
	<polygon points="432.18,454.7 440.52,463.14 448.49,454.7 440.14,446.18 	"/>
	<polygon points="456.83,463.14 464.7,454.7 456.36,446.18 448.49,454.7 	"/>
	<polygon points="492.62,532.96 500.96,541.48 508.84,532.96 500.5,524.52 	"/>
	<path d="M478.38,517.87h22.68c2.06-5.87,3.03-11.26,2.9-16.17c-0.13-4.9-0.89-9.48-2.3-13.73c-1.41-4.25-3.02-8.28-4.83-12.09
		l-10.22,10.31c2.19,3.5,3.94,6.89,5.25,10.17c1.31,3.28,2.06,6.7,2.25,10.26h-15.74h-0.94h-3.37c-3.31,0-5.51-0.61-6.61-1.83
		c-1.09-1.22-1.64-3.17-1.64-5.86v-30.55H454.3v7.33c-3.47,1.44-6.63,2.82-9.46,4.15c-4.06,1.91-7.47,3.81-10.22,5.72
		c-2.75,1.91-4.83,4-6.23,6.28c-1.41,2.28-2.11,4.89-2.11,7.82c0,3.12,0.94,5.8,2.81,8.01c1.87,2.22,4.42,3.92,7.64,5.11
		c3.22,1.19,6.83,1.78,10.82,1.78c2.81,0,5.28-0.23,7.4-0.7c0.89-0.2,1.8-0.45,2.73-0.75c1.17,1.39,2.79,2.52,4.86,3.38
		c2.19,0.91,5.03,1.36,8.53,1.36h6.37H478.38z M447.36,503.44c-3.31,0-5.73-0.38-7.26-1.12c-1.53-0.75-2.3-1.84-2.3-3.28
		c0-0.81,0.33-1.69,0.98-2.62c0.66-0.94,1.81-1.95,3.47-3.05c1.65-1.09,3.98-2.28,6.98-3.56c1.47-0.63,3.16-1.29,5.06-1.98v14.12
		c0,0.29,0.02,0.58,0.03,0.87c-1.37,0.24-2.63,0.4-3.77,0.49C449.36,503.39,448.3,503.44,447.36,503.44z"/>
	<polygon points="476.32,532.96 484.66,541.48 492.62,532.96 484.28,524.52 	"/>
	<polygon points="533.11,465.95 540.98,457.52 532.64,448.99 524.67,457.52 	"/>
	<polygon points="585.12,458.08 593.55,466.51 601.43,458.08 593.08,449.55 	"/>
	<polygon points="625.13,467.36 633.47,475.79 641.44,467.36 633.1,458.83 	"/>
	<polygon points="641.44,467.36 649.78,475.79 657.65,467.36 649.31,458.83 	"/>
	<path d="M697.01,448.52v58.1h-9.93h-0.94c0,0,0,0,0,0l0,0h-8.43v-58.1h-11.53v58.1h-9.93h-0.94h-3.37c-1.75,0-3.41-0.11-4.97-0.33
		c-1.56-0.22-3.03-0.55-4.4-0.98c-0.07-0.02-0.14-0.05-0.21-0.07c0.98-2.48,1.87-5.07,2.65-7.75c1.06-3.65,2.06-7.67,3-12.04
		l-13.4,4.69c-0.06,1.69-0.27,3.62-0.61,5.81c-0.34,2.19-0.74,4.26-1.17,6.23c-0.44,1.97-0.84,3.45-1.22,4.45h-11.06h-0.94h-9.37
		c-0.94,0-1.84-0.03-2.72-0.09c-0.88-0.06-1.72-0.15-2.53-0.28c1.56-1.44,2.97-3.05,4.22-4.83c1.25-1.78,2.25-3.69,3-5.72
		c0.75-2.03,1.12-4.08,1.12-6.14c0-3.25-0.83-5.89-2.48-7.92c-1.66-2.03-3.98-3.51-6.98-4.45c-3-0.94-6.53-1.41-10.59-1.41
		c-2.38,0-4.84,0.22-7.4,0.66c-2.56,0.44-5.06,1.02-7.5,1.73c-2.44,0.72-4.65,1.55-6.65,2.48v14.53l10.65,10.56
		c-0.05,0.01-0.1,0.02-0.15,0.03c-1.31,0.25-2.67,0.45-4.08,0.61c-1.41,0.16-2.98,0.23-4.73,0.23h-8.81h-0.94h-0.94
		c-1.37,0-2.55-0.19-3.51-0.56c-0.97-0.38-1.87-1.05-2.72-2.02c-0.84-0.97-1.77-2.3-2.77-3.98l-16.4-28.77l-8.72,11.15l15.37,23.62
		c0.06,0.09,0.12,0.18,0.18,0.27c-1.14,0.19-2.54,0.29-4.21,0.29h-26.43l2.06,11.25h24.37c1.81,0,3.62-0.17,5.44-0.52
		c1.81-0.34,3.39-0.87,4.73-1.59c0.59-0.32,1.09-0.69,1.51-1.12c0.37,0.27,0.74,0.52,1.12,0.75c1.47,0.91,3.01,1.55,4.64,1.92
		c1.62,0.37,3.4,0.56,5.34,0.56h0.94h0.94h4.97c4.56,0,8.93-0.39,13.12-1.17c3.7-0.69,7.08-1.61,10.15-2.77
		c0.44,0.23,0.89,0.45,1.33,0.66c1.9,0.88,3.92,1.55,6.04,2.02c2.12,0.47,4.44,0.8,6.93,0.98c2.5,0.19,5.31,0.28,8.43,0.28h4.03
		h0.94h15.18c0.81-1.22,1.57-2.43,2.28-3.64c0.02,0.01,0.04,0.02,0.06,0.03c2,1.03,4.36,1.89,7.08,2.58
		c2.72,0.69,5.92,1.03,9.61,1.03h0.56h0.94h18.65h2.81h8.43l0,0c0,0,0,0,0,0h0.94h21.46v-69.35H697.01z M600.86,495.47
		c-0.63,1.25-1.53,2.5-2.72,3.75c-1.19,1.25-2.66,2.44-4.4,3.56c-0.56-0.5-1.17-1.09-1.83-1.78c-0.66-0.69-1.36-1.41-2.11-2.16
		l-9.46-9.84c1.87-0.62,3.97-1.11,6.28-1.45c2.31-0.34,4.53-0.52,6.65-0.52c2.12,0,3.8,0.22,5.01,0.66
		c1.22,0.44,2.11,1.02,2.67,1.73c0.56,0.72,0.84,1.55,0.84,2.48C601.8,493.03,601.49,494.22,600.86,495.47z"/>
</g>
</svg>
